<?xml version="1.0" encoding="UTF-8" standalone="no"?>
<!DOCTYPE svg PUBLIC "-//W3C//DTD SVG 20010904//EN"
              "http://www.w3.org/TR/2001/REC-SVG-20010904/DTD/svg10.dtd">

<svg xmlns="http://www.w3.org/2000/svg"
     width="0.222222in" height="0.166667in"
     viewBox="0 0 16 12">
  <path id="Path"
        fill="#444444" stroke="none" stroke-width="0"
        d="M 5.92,11.00
           C 5.92,11.00 0.17,11.00 0.17,11.00
             0.17,11.00 0.17,2.00 0.17,2.00
             0.17,2.00 5.92,2.00 5.92,2.00
             5.92,2.00 5.92,3.00 5.92,3.00
             5.92,3.00 1.33,3.00 1.33,3.00
             1.33,3.00 1.33,6.00 1.33,6.00
             1.33,6.00 5.92,6.00 5.92,6.00
             5.92,6.00 5.92,7.00 5.92,7.00
             5.92,7.00 1.33,7.00 1.33,7.00
             1.33,7.00 1.33,10.00 1.33,10.00
             1.33,10.00 5.92,10.00 5.92,10.00
             5.92,10.00 5.92,11.00 5.92,11.00 Z
           M 14.83,11.00
           C 14.83,11.00 13.39,11.00 13.39,11.00
             13.39,11.00 9.25,2.95 9.25,2.95
             9.25,2.95 9.25,11.00 9.25,11.00
             9.25,11.00 8.17,11.00 8.17,11.00
             8.17,11.00 8.17,2.00 8.17,2.00
             8.17,2.00 9.97,2.00 9.97,2.00
             9.97,2.00 13.75,9.34 13.75,9.34
             13.75,9.34 13.75,2.00 13.75,2.00
             13.75,2.00 14.83,2.00 14.83,2.00
             14.83,2.00 14.83,11.00 14.83,11.00 Z" />
</svg>
