<?xml version="1.0" encoding="UTF-8" standalone="no"?>
<!DOCTYPE svg PUBLIC "-//W3C//DTD SVG 20010904//EN"
              "http://www.w3.org/TR/2001/REC-SVG-20010904/DTD/svg10.dtd">

<svg xmlns="http://www.w3.org/2000/svg"
     width="0.222222in" height="0.166667in"
     viewBox="0 0 16 12" style="background-color:white">
  <path id="FR"
        fill="#444444" stroke="none" stroke-width="0"
        d="M 7.19,3.00
           C 7.19,3.00 3.14,3.00 3.14,3.00
             3.14,3.00 3.14,5.00 3.14,5.00
             3.14,5.00 6.61,5.00 6.61,5.00
             6.61,5.00 6.61,6.00 6.61,6.00
             6.61,6.00 3.14,6.00 3.14,6.00
             3.14,6.00 3.14,10.00 3.14,10.00
             3.14,10.00 2.08,10.00 2.08,10.00
             2.08,10.00 2.08,2.00 2.08,2.00
             2.08,2.00 7.19,2.00 7.19,2.00
             7.19,2.00 7.19,3.00 7.19,3.00 Z
           M 14.69,10.00
           C 14.69,10.00 13.31,10.00 13.31,10.00
             13.31,10.00 10.64,7.00 10.64,7.00
             10.64,7.00 9.14,7.00 9.14,7.00
             9.14,7.00 9.14,10.00 9.14,10.00
             9.14,10.00 8.08,10.00 8.08,10.00
             8.08,10.00 8.08,2.00 8.08,2.00
             8.08,2.00 10.31,2.00 10.31,2.00
             10.79,2.00 11.19,2.03 11.52,2.09
             11.84,2.16 12.13,2.28 12.39,2.45
             12.68,2.64 12.91,2.88 13.06,3.17
             13.23,3.45 13.31,3.82 13.31,4.27
             13.31,4.86 13.16,5.36 12.88,5.77
             12.59,6.16 12.20,6.46 11.69,6.67
             11.69,6.67 14.69,10.00 14.69,10.00 Z
           M 12.20,4.33
           C 12.20,4.10 12.16,3.90 12.08,3.72
             12.00,3.54 11.88,3.40 11.69,3.28
             11.53,3.18 11.34,3.11 11.12,3.06
             10.91,3.02 10.67,3.00 10.39,3.00
             10.39,3.00 9.14,3.00 9.14,3.00
             9.14,3.00 9.14,6.00 9.14,6.00
             9.14,6.00 10.22,6.00 10.22,6.00
             10.55,6.00 10.84,5.98 11.09,5.92
             11.34,5.86 11.55,5.75 11.73,5.58
             11.89,5.43 12.00,5.27 12.08,5.08
             12.16,4.88 12.20,4.63 12.20,4.33 Z" />
</svg>
