<svg width="512" height="512" viewBox="0 0 512 512" fill="none" xmlns="http://www.w3.org/2000/svg">
<path d="M270.537 507L266.573 394.894C266.875 385.211 275.193 385.211 287.185 388.204L384.202 405.897L374.589 376.132C370.625 363.758 366.951 360.375 377.571 349.385L482 260.731L464.056 251.728C454.745 247.653 458.721 240.661 460.696 232.287V230.903L477.646 166.695L427.187 177.384C418.492 178.994 411.923 180.301 407.557 171.31L394.596 141.558L345.735 194.147C332.372 208.91 320.09 202.522 324.746 180.767L347.031 69.981L312.754 87.0327C304.827 91.0316 300.775 91.7232 295.804 83.3483L255.953 4L216.416 84.656C212.754 91.6477 206.412 90.6543 200.46 86.9573L162.899 65.2025L187.185 185.294C191.149 200.673 178.477 207.677 169.543 196.989L119.009 140.087L104.727 169.537C101.065 177.233 97.101 180.603 82.8315 177.233L31.6551 166.217L51.5871 231.193C54.5568 240.951 54.2548 245.566 48.6048 249.954L29 262.039L135.04 349.46C144.049 357.144 142.967 364.84 139.003 376.207L127.402 405.972L217.41 388.594C237.028 384.52 245.345 384.205 245.345 395.208L241.382 507H270.537Z" fill="black"/>
</svg>
