<svg width="316" height="129" viewBox="0 0 316 129" fill="none" xmlns="http://www.w3.org/2000/svg">
<rect x="1.5" y="0.5" width="18" height="24" fill="#E6E6E6" stroke="#CCCCCC"/>
<rect x="19.5" y="0.5" width="247" height="24" fill="#E6E6E6" stroke="#CCCCCC"/>
<rect x="266.5" y="0.5" width="48" height="24" fill="#E6E6E6" stroke="#CCCCCC"/>
<rect x="1.5" y="24.5" width="18" height="26" fill="#E6E6E6" stroke="#CCCCCC"/>
<rect x="19.5" y="24.5" width="247" height="26" stroke="#CCCCCC"/>
<rect x="266.5" y="24.5" width="48" height="26" stroke="#CCCCCC"/>
<rect x="1.5" y="50.5" width="18" height="26" fill="#E6E6E6" stroke="#CCCCCC"/>
<rect x="1.5" y="76.5" width="18" height="26" fill="#E6E6E6" stroke="#CCCCCC"/>
<rect x="1.5" y="102.5" width="18" height="26" fill="#E6E6E6" stroke="#CCCCCC"/>
<rect x="19.5" y="50.5" width="247" height="26" stroke="#CCCCCC"/>
<rect x="19.5" y="76.5" width="247" height="26" stroke="#CCCCCC"/>
<rect x="19.5" y="102.5" width="247" height="26" stroke="#CCCCCC"/>
<rect x="266.5" y="50.5" width="48" height="26" stroke="#CCCCCC"/>
<rect x="266.5" y="76.5" width="48" height="26" stroke="#CCCCCC"/>
<rect x="266.5" y="102.5" width="48" height="26" stroke="#CCCCCC"/>
<path d="M140.413 16H139.249L141.866 8.72727H143.134L145.751 16H144.586L142.53 10.0483H142.473L140.413 16ZM140.609 13.152H144.387V14.0753H140.609V13.152Z" fill="black"/>
<path d="M30.935 41.1012C30.402 41.1012 29.9432 40.9933 29.5586 40.7773C29.1763 40.5592 28.8816 40.2511 28.6747 39.853C28.4678 39.4527 28.3643 38.9792 28.3643 38.4327C28.3643 37.8997 28.4678 37.4319 28.6747 37.0293C28.8816 36.6267 29.1729 36.313 29.5485 36.0881C29.9263 35.8632 30.3694 35.7507 30.8777 35.7507C31.2195 35.7507 31.5378 35.8058 31.8324 35.916C32.1293 36.024 32.3879 36.187 32.6083 36.4052C32.831 36.6233 33.0041 36.8977 33.1278 37.2283C33.2515 37.5567 33.3134 37.9413 33.3134 38.3821V38.7768H28.9379V37.8862H31.9606C31.9606 37.6793 31.9156 37.496 31.8256 37.3363C31.7357 37.1766 31.6109 37.0518 31.4512 36.9618C31.2937 36.8696 31.1104 36.8235 30.9013 36.8235C30.6831 36.8235 30.4897 36.8741 30.321 36.9753C30.1546 37.0743 30.0241 37.2081 29.9297 37.3768C29.8352 37.5432 29.7869 37.7288 29.7846 37.9334V38.7802C29.7846 39.0366 29.8319 39.2581 29.9263 39.4448C30.023 39.6315 30.1591 39.7754 30.3345 39.8766C30.5099 39.9778 30.718 40.0284 30.9586 40.0284C31.1183 40.0284 31.2645 40.0059 31.3972 39.9609C31.5299 39.916 31.6435 39.8485 31.7379 39.7585C31.8324 39.6686 31.9044 39.5584 31.9538 39.4279L33.283 39.5156C33.2156 39.835 33.0772 40.1139 32.8681 40.3523C32.6612 40.5884 32.3935 40.7728 32.0652 40.9055C31.7391 41.036 31.3623 41.1012 30.935 41.1012ZM34.2512 41V35.8182H35.6209V36.7324H35.6816C35.7896 36.4288 35.9695 36.1893 36.2214 36.0138C36.4733 35.8384 36.7747 35.7507 37.1255 35.7507C37.4809 35.7507 37.7834 35.8395 38.033 36.0172C38.2827 36.1926 38.4491 36.431 38.5323 36.7324H38.5863C38.692 36.4355 38.8832 36.1983 39.1598 36.0206C39.4387 35.8407 39.7682 35.7507 40.1483 35.7507C40.6318 35.7507 41.0243 35.9048 41.3256 36.2129C41.6293 36.5188 41.7811 36.9528 41.7811 37.5151V41H40.3473V37.7985C40.3473 37.5106 40.2708 37.2947 40.1179 37.1507C39.965 37.0068 39.7738 36.9348 39.5444 36.9348C39.2835 36.9348 39.08 37.0181 38.9338 37.1845C38.7876 37.3487 38.7145 37.5657 38.7145 37.8356V41H37.3212V37.7681C37.3212 37.514 37.2481 37.3116 37.1019 37.1609C36.958 37.0102 36.7679 36.9348 36.5318 36.9348C36.3721 36.9348 36.2282 36.9753 36.1 37.0563C35.974 37.135 35.8739 37.2463 35.7997 37.3903C35.7255 37.532 35.6884 37.6984 35.6884 37.8896V41H34.2512ZM44.3939 41.0978C44.0633 41.0978 43.7687 41.0405 43.51 40.9258C43.2514 40.8088 43.0467 40.6368 42.896 40.4096C42.7476 40.1802 42.6734 39.8946 42.6734 39.5527C42.6734 39.2649 42.7262 39.0231 42.8319 38.8274C42.9376 38.6317 43.0816 38.4743 43.2638 38.3551C43.4459 38.2359 43.6528 38.146 43.8845 38.0852C44.1184 38.0245 44.3635 37.9818 44.6199 37.957C44.9213 37.9255 45.1642 37.8963 45.3486 37.8693C45.5331 37.8401 45.6669 37.7973 45.7501 37.7411C45.8333 37.6849 45.8749 37.6017 45.8749 37.4915V37.4712C45.8749 37.2576 45.8074 37.0923 45.6725 36.9753C45.5398 36.8584 45.3509 36.7999 45.1057 36.7999C44.8471 36.7999 44.6413 36.8572 44.4884 36.9719C44.3354 37.0844 44.2342 37.2261 44.1847 37.397L42.8556 37.2891C42.923 36.9742 43.0557 36.7021 43.2536 36.4727C43.4516 36.241 43.7068 36.0633 44.0194 35.9396C44.3343 35.8137 44.6987 35.7507 45.1125 35.7507C45.4004 35.7507 45.6759 35.7844 45.939 35.8519C46.2044 35.9194 46.4394 36.024 46.6441 36.1657C46.851 36.3074 47.0141 36.4895 47.1333 36.7122C47.2525 36.9326 47.3121 37.1969 47.3121 37.505V41H45.9491V40.2814H45.9086C45.8254 40.4434 45.7141 40.5862 45.5747 40.7099C45.4352 40.8313 45.2677 40.9269 45.072 40.9966C44.8763 41.0641 44.6503 41.0978 44.3939 41.0978ZM44.8055 40.106C45.0169 40.106 45.2036 40.0644 45.3655 39.9812C45.5274 39.8957 45.6545 39.781 45.7467 39.6371C45.8389 39.4931 45.885 39.3301 45.885 39.1479V38.598C45.8401 38.6272 45.7782 38.6542 45.6995 38.679C45.623 38.7015 45.5364 38.7228 45.4397 38.7431C45.343 38.7611 45.2463 38.7779 45.1496 38.7937C45.0529 38.8072 44.9652 38.8195 44.8865 38.8308C44.7178 38.8555 44.5705 38.8949 44.4445 38.9489C44.3186 39.0028 44.2207 39.0759 44.151 39.1681C44.0813 39.2581 44.0464 39.3706 44.0464 39.5055C44.0464 39.7012 44.1173 39.8507 44.259 39.9542C44.4029 40.0554 44.5851 40.106 44.8055 40.106ZM48.427 41V35.8182H49.8642V41H48.427ZM49.149 35.1502C48.9353 35.1502 48.752 35.0794 48.5991 34.9377C48.4484 34.7937 48.373 34.6217 48.373 34.4215C48.373 34.2236 48.4484 34.0538 48.5991 33.9121C48.752 33.7682 48.9353 33.6962 49.149 33.6962C49.3626 33.6962 49.5448 33.7682 49.6955 33.9121C49.8484 34.0538 49.9249 34.2236 49.9249 34.4215C49.9249 34.6217 49.8484 34.7937 49.6955 34.9377C49.5448 35.0794 49.3626 35.1502 49.149 35.1502ZM52.4525 34.0909V41H51.0154V34.0909H52.4525ZM57.2801 41.0978C56.9495 41.0978 56.6549 41.0405 56.3963 40.9258C56.1376 40.8088 55.933 40.6368 55.7823 40.4096C55.6338 40.1802 55.5596 39.8946 55.5596 39.5527C55.5596 39.2649 55.6125 39.0231 55.7182 38.8274C55.8239 38.6317 55.9678 38.4743 56.15 38.3551C56.3322 38.2359 56.5391 38.146 56.7707 38.0852C57.0046 38.0245 57.2498 37.9818 57.5062 37.957C57.8075 37.9255 58.0504 37.8963 58.2349 37.8693C58.4193 37.8401 58.5531 37.7973 58.6363 37.7411C58.7195 37.6849 58.7611 37.6017 58.7611 37.4915V37.4712C58.7611 37.2576 58.6937 37.0923 58.5587 36.9753C58.426 36.8584 58.2371 36.7999 57.992 36.7999C57.7333 36.7999 57.5275 36.8572 57.3746 36.9719C57.2217 37.0844 57.1205 37.2261 57.071 37.397L55.7418 37.2891C55.8093 36.9742 55.942 36.7021 56.1399 36.4727C56.3378 36.241 56.5931 36.0633 56.9057 35.9396C57.2205 35.8137 57.5849 35.7507 57.9987 35.7507C58.2866 35.7507 58.5621 35.7844 58.8252 35.8519C59.0906 35.9194 59.3257 36.024 59.5303 36.1657C59.7372 36.3074 59.9003 36.4895 60.0195 36.7122C60.1387 36.9326 60.1983 37.1969 60.1983 37.505V41H58.8354V40.2814H58.7949C58.7117 40.4434 58.6003 40.5862 58.4609 40.7099C58.3215 40.8313 58.1539 40.9269 57.9582 40.9966C57.7626 41.0641 57.5365 41.0978 57.2801 41.0978ZM57.6917 40.106C57.9031 40.106 58.0898 40.0644 58.2517 39.9812C58.4137 39.8957 58.5407 39.781 58.6329 39.6371C58.7252 39.4931 58.7713 39.3301 58.7713 39.1479V38.598C58.7263 38.6272 58.6644 38.6542 58.5857 38.679C58.5092 38.7015 58.4227 38.7228 58.326 38.7431C58.2292 38.7611 58.1325 38.7779 58.0358 38.7937C57.9391 38.8072 57.8514 38.8195 57.7727 38.8308C57.604 38.8555 57.4567 38.8949 57.3307 38.9489C57.2048 39.0028 57.107 39.0759 57.0372 39.1681C56.9675 39.2581 56.9327 39.3706 56.9327 39.5055C56.9327 39.7012 57.0035 39.8507 57.1452 39.9542C57.2891 40.0554 57.4713 40.106 57.6917 40.106ZM63.2227 41.0843C62.8291 41.0843 62.4726 40.9831 62.1533 40.7807C61.8362 40.5761 61.5843 40.2758 61.3976 39.88C61.2132 39.4819 61.121 38.9938 61.121 38.4158C61.121 37.8221 61.2165 37.3284 61.4077 36.9348C61.5989 36.539 61.853 36.2433 62.1701 36.0476C62.4895 35.8497 62.8392 35.7507 63.2193 35.7507C63.5095 35.7507 63.7512 35.8002 63.9446 35.8991C64.1403 35.9959 64.2977 36.1173 64.4169 36.2635C64.5384 36.4074 64.6306 36.5491 64.6936 36.6886H64.7374V34.0909H66.1712V41H64.7543V40.1701H64.6936C64.6261 40.314 64.5305 40.4569 64.4068 40.5985C64.2854 40.738 64.1268 40.8538 63.9312 40.946C63.7377 41.0382 63.5016 41.0843 63.2227 41.0843ZM63.6781 39.9407C63.9098 39.9407 64.1055 39.8777 64.2651 39.7518C64.4271 39.6236 64.5508 39.4448 64.6362 39.2154C64.7239 38.986 64.7678 38.7172 64.7678 38.4091C64.7678 38.101 64.7251 37.8333 64.6396 37.6062C64.5541 37.379 64.4304 37.2036 64.2685 37.0799C64.1066 36.9562 63.9098 36.8944 63.6781 36.8944C63.442 36.8944 63.2429 36.9585 63.081 37.0866C62.9191 37.2148 62.7965 37.3925 62.7133 37.6197C62.6301 37.8468 62.5885 38.11 62.5885 38.4091C62.5885 38.7105 62.6301 38.977 62.7133 39.2086C62.7988 39.438 62.9213 39.618 63.081 39.7484C63.2429 39.8766 63.442 39.9407 63.6781 39.9407ZM69.2623 41.0843C68.8687 41.0843 68.5122 40.9831 68.1928 40.7807C67.8757 40.5761 67.6238 40.2758 67.4371 39.88C67.2527 39.4819 67.1605 38.9938 67.1605 38.4158C67.1605 37.8221 67.2561 37.3284 67.4473 36.9348C67.6384 36.539 67.8926 36.2433 68.2097 36.0476C68.5291 35.8497 68.8788 35.7507 69.2589 35.7507C69.549 35.7507 69.7908 35.8002 69.9842 35.8991C70.1799 35.9959 70.3373 36.1173 70.4565 36.2635C70.5779 36.4074 70.6702 36.5491 70.7331 36.6886H70.777V34.0909H72.2108V41H70.7939V40.1701H70.7331C70.6657 40.314 70.5701 40.4569 70.4464 40.5985C70.3249 40.738 70.1664 40.8538 69.9707 40.946C69.7773 41.0382 69.5411 41.0843 69.2623 41.0843ZM69.7177 39.9407C69.9493 39.9407 70.145 39.8777 70.3047 39.7518C70.4666 39.6236 70.5903 39.4448 70.6758 39.2154C70.7635 38.986 70.8074 38.7172 70.8074 38.4091C70.8074 38.101 70.7646 37.8333 70.6792 37.6062C70.5937 37.379 70.47 37.2036 70.3081 37.0799C70.1461 36.9562 69.9493 36.8944 69.7177 36.8944C69.4815 36.8944 69.2825 36.9585 69.1206 37.0866C68.9586 37.2148 68.8361 37.3925 68.7528 37.6197C68.6696 37.8468 68.628 38.11 68.628 38.4091C68.628 38.7105 68.6696 38.977 68.7528 39.2086C68.8383 39.438 68.9609 39.618 69.1206 39.7484C69.2825 39.8766 69.4815 39.9407 69.7177 39.9407ZM73.3924 41V35.8182H74.7856V36.7223H74.8396C74.9341 36.4007 75.0926 36.1578 75.3153 35.9936C75.538 35.8272 75.7943 35.744 76.0845 35.744C76.1564 35.744 76.234 35.7485 76.3172 35.7575C76.4005 35.7665 76.4736 35.7788 76.5365 35.7946V37.0698C76.4691 37.0495 76.3757 37.0315 76.2565 37.0158C76.1373 37.0001 76.0282 36.9922 75.9293 36.9922C75.7179 36.9922 75.529 37.0383 75.3625 37.1305C75.1983 37.2205 75.0679 37.3464 74.9712 37.5083C74.8767 37.6703 74.8295 37.8569 74.8295 38.0684V41H73.3924ZM79.3999 41.1012C78.8668 41.1012 78.408 40.9933 78.0234 40.7773C77.6411 40.5592 77.3465 40.2511 77.1396 39.853C76.9326 39.4527 76.8292 38.9792 76.8292 38.4327C76.8292 37.8997 76.9326 37.4319 77.1396 37.0293C77.3465 36.6267 77.6377 36.313 78.0133 36.0881C78.3912 35.8632 78.8342 35.7507 79.3425 35.7507C79.6844 35.7507 80.0026 35.8058 80.2972 35.916C80.5941 36.024 80.8527 36.187 81.0732 36.4052C81.2958 36.6233 81.469 36.8977 81.5927 37.2283C81.7164 37.5567 81.7782 37.9413 81.7782 38.3821V38.7768H77.4027V37.8862H80.4254C80.4254 37.6793 80.3804 37.496 80.2905 37.3363C80.2005 37.1766 80.0757 37.0518 79.916 36.9618C79.7586 36.8696 79.5753 36.8235 79.3661 36.8235C79.148 36.8235 78.9545 36.8741 78.7859 36.9753C78.6194 37.0743 78.489 37.2081 78.3945 37.3768C78.3001 37.5432 78.2517 37.7288 78.2495 37.9334V38.7802C78.2495 39.0366 78.2967 39.2581 78.3912 39.4448C78.4879 39.6315 78.6239 39.7754 78.7994 39.8766C78.9748 39.9778 79.1828 40.0284 79.4235 40.0284C79.5832 40.0284 79.7293 40.0059 79.862 39.9609C79.9947 39.916 80.1083 39.8485 80.2028 39.7585C80.2972 39.6686 80.3692 39.5584 80.4187 39.4279L81.7479 39.5156C81.6804 39.835 81.5421 40.1139 81.3329 40.3523C81.126 40.5884 80.8584 40.7728 80.53 40.9055C80.2039 41.036 79.8272 41.1012 79.3999 41.1012ZM87.0275 37.2958L85.7118 37.3768C85.6893 37.2643 85.641 37.1631 85.5668 37.0732C85.4925 36.9809 85.3947 36.9078 85.2733 36.8539C85.1541 36.7976 85.0112 36.7695 84.8448 36.7695C84.6222 36.7695 84.4344 36.8168 84.2814 36.9112C84.1285 37.0034 84.052 37.1271 84.052 37.2823C84.052 37.406 84.1015 37.5106 84.2005 37.5961C84.2994 37.6815 84.4692 37.7501 84.7099 37.8018L85.6477 37.9908C86.1515 38.0942 86.5271 38.2607 86.7745 38.4901C87.0219 38.7195 87.1456 39.0208 87.1456 39.3942C87.1456 39.7338 87.0455 40.0318 86.8453 40.2882C86.6474 40.5446 86.3753 40.7447 86.0289 40.8887C85.6848 41.0304 85.2879 41.1012 84.8381 41.1012C84.1521 41.1012 83.6056 40.9584 83.1985 40.6728C82.7937 40.3849 82.5564 39.9935 82.4867 39.4988L83.9002 39.4245C83.9429 39.6337 84.0464 39.7934 84.2106 39.9036C84.3748 40.0115 84.585 40.0655 84.8414 40.0655C85.0933 40.0655 85.2958 40.0172 85.4487 39.9205C85.6039 39.8215 85.6826 39.6944 85.6848 39.5392C85.6826 39.4088 85.6275 39.302 85.5195 39.2188C85.4116 39.1333 85.2451 39.0681 85.0202 39.0231L84.1229 38.8443C83.6168 38.7431 83.2401 38.5676 82.9927 38.318C82.7476 38.0684 82.625 37.7501 82.625 37.3633C82.625 37.0304 82.715 36.7437 82.8949 36.503C83.0771 36.2624 83.3323 36.0768 83.6607 35.9464C83.9913 35.8159 84.3781 35.7507 84.8212 35.7507C85.4757 35.7507 85.9907 35.889 86.3663 36.1657C86.7441 36.4423 86.9645 36.819 87.0275 37.2958ZM92.362 37.2958L91.0463 37.3768C91.0238 37.2643 90.9755 37.1631 90.9012 37.0732C90.827 36.9809 90.7292 36.9078 90.6077 36.8539C90.4885 36.7976 90.3457 36.7695 90.1793 36.7695C89.9566 36.7695 89.7688 36.8168 89.6159 36.9112C89.463 37.0034 89.3865 37.1271 89.3865 37.2823C89.3865 37.406 89.436 37.5106 89.5349 37.5961C89.6339 37.6815 89.8037 37.7501 90.0443 37.8018L90.9822 37.9908C91.486 38.0942 91.8616 38.2607 92.109 38.4901C92.3564 38.7195 92.4801 39.0208 92.4801 39.3942C92.4801 39.7338 92.38 40.0318 92.1798 40.2882C91.9819 40.5446 91.7098 40.7447 91.3634 40.8887C91.0193 41.0304 90.6224 41.1012 90.1725 41.1012C89.4866 41.1012 88.9401 40.9584 88.533 40.6728C88.1282 40.3849 87.8909 39.9935 87.8212 39.4988L89.2347 39.4245C89.2774 39.6337 89.3809 39.7934 89.5451 39.9036C89.7092 40.0115 89.9195 40.0655 90.1759 40.0655C90.4278 40.0655 90.6302 40.0172 90.7832 39.9205C90.9383 39.8215 91.0171 39.6944 91.0193 39.5392C91.0171 39.4088 90.962 39.302 90.854 39.2188C90.746 39.1333 90.5796 39.0681 90.3547 39.0231L89.4573 38.8443C88.9513 38.7431 88.5746 38.5676 88.3272 38.318C88.082 38.0684 87.9595 37.7501 87.9595 37.3633C87.9595 37.0304 88.0494 36.7437 88.2294 36.503C88.4115 36.2624 88.6668 36.0768 88.9952 35.9464C89.3258 35.8159 89.7126 35.7507 90.1557 35.7507C90.8101 35.7507 91.3252 35.889 91.7008 36.1657C92.0786 36.4423 92.299 36.819 92.362 37.2958Z" fill="black"/>
<path d="M10.2859 34.0909V41H9.24006V35.1367H9.19957L7.54652 36.2163V35.2177L9.27042 34.0909H10.2859Z" fill="black"/>
<path d="M7.6646 67V66.2443L10.0025 63.8221C10.2521 63.5589 10.4579 63.3284 10.6199 63.1305C10.784 62.9303 10.9066 62.7403 10.9876 62.5604C11.0685 62.3804 11.109 62.1893 11.109 61.9869C11.109 61.7575 11.055 61.5595 10.9471 61.3931C10.8391 61.2244 10.6918 61.0951 10.5051 61.0051C10.3185 60.9129 10.1082 60.8668 9.87429 60.8668C9.62689 60.8668 9.41098 60.9174 9.22656 61.0186C9.04214 61.1199 8.90045 61.2627 8.80149 61.4471C8.70253 61.6315 8.65305 61.8474 8.65305 62.0948H7.65785C7.65785 61.6742 7.75456 61.3065 7.94798 60.9917C8.14139 60.6768 8.40678 60.4328 8.74414 60.2596C9.0815 60.0842 9.46496 59.9964 9.89453 59.9964C10.3286 59.9964 10.7109 60.083 11.0415 60.2562C11.3744 60.4271 11.6342 60.661 11.8208 60.9579C12.0075 61.2525 12.1009 61.5854 12.1009 61.9565C12.1009 62.2129 12.0525 62.4637 11.9558 62.7088C11.8613 62.954 11.696 63.2272 11.4599 63.5286C11.2237 63.8277 10.8954 64.1909 10.4748 64.6183L9.10174 66.0554V66.106H12.2122V67H7.6646Z" fill="black"/>
<path d="M10.07 93.0945C9.60665 93.0945 9.19283 93.0146 8.82848 92.8549C8.46638 92.6953 8.17963 92.4737 7.96822 92.1903C7.75906 91.9047 7.6466 91.5741 7.63086 91.1985H8.69016C8.70366 91.4032 8.77225 91.5808 8.89595 91.7315C9.0219 91.88 9.18608 91.9947 9.38849 92.0756C9.59091 92.1566 9.81581 92.1971 10.0632 92.1971C10.3353 92.1971 10.576 92.1499 10.7852 92.0554C10.9966 91.9609 11.1619 91.8294 11.2811 91.6607C11.4003 91.4898 11.4599 91.293 11.4599 91.0703C11.4599 90.8387 11.4003 90.6351 11.2811 90.4597C11.1641 90.282 10.9921 90.1426 10.7649 90.0414C10.54 89.9402 10.2679 89.8896 9.94851 89.8896H9.36488V89.0394H9.94851C10.2049 89.0394 10.4298 88.9933 10.6232 88.9011C10.8189 88.8089 10.9718 88.6807 11.082 88.5165C11.1922 88.3501 11.2473 88.1555 11.2473 87.9329C11.2473 87.7192 11.199 87.5337 11.1023 87.3762C11.0078 87.2166 10.8729 87.0917 10.6974 87.0018C10.5243 86.9118 10.3196 86.8668 10.0835 86.8668C9.85855 86.8668 9.64826 86.9084 9.45259 86.9917C9.25917 87.0726 9.10174 87.1896 8.98029 87.3425C8.85884 87.4932 8.79362 87.6742 8.78462 87.8857H7.77592C7.78717 87.5123 7.89737 87.1839 8.10653 86.9006C8.31795 86.6172 8.59683 86.3957 8.94318 86.236C9.28954 86.0763 9.67412 85.9964 10.0969 85.9964C10.54 85.9964 10.9223 86.083 11.244 86.2562C11.5678 86.4271 11.8175 86.6554 11.9929 86.9411C12.1706 87.2267 12.2583 87.5393 12.256 87.8789C12.2583 88.2657 12.1503 88.5941 11.9322 88.864C11.7163 89.1339 11.4284 89.3149 11.0685 89.4071V89.4611C11.5273 89.5308 11.8827 89.713 12.1346 90.0076C12.3887 90.3023 12.5147 90.6677 12.5124 91.104C12.5147 91.4841 12.409 91.8249 12.1953 92.1262C11.9839 92.4276 11.6949 92.6649 11.3283 92.8381C10.9617 93.009 10.5423 93.0945 10.07 93.0945Z" fill="black"/>
<path d="M7.51953 117.651V116.807L10.5051 112.091H11.1697V113.332H10.748L8.61257 116.713V116.767H12.7047V117.651H7.51953ZM10.7953 119V117.394L10.802 117.01V112.091H11.7905V119H10.7953Z" fill="black"/>
<path d="M30.8608 67.1046C30.3593 67.1046 29.9274 66.991 29.5653 66.7638C29.2055 66.5344 28.9289 66.2185 28.7354 65.8159C28.542 65.4133 28.4453 64.9522 28.4453 64.4327C28.4453 63.9064 28.5443 63.442 28.7422 63.0394C28.9401 62.6346 29.219 62.3186 29.5788 62.0914C29.9387 61.8643 30.3626 61.7507 30.8507 61.7507C31.2443 61.7507 31.5951 61.8238 31.9032 61.97C32.2114 62.1139 32.4599 62.3163 32.6488 62.5772C32.84 62.8381 32.9535 63.1429 32.9895 63.4915H32.0078C31.9538 63.2486 31.8301 63.0394 31.6367 62.864C31.4455 62.6886 31.1892 62.6009 30.8675 62.6009C30.5864 62.6009 30.3401 62.6751 30.1287 62.8235C29.9196 62.9697 29.7565 63.1789 29.6396 63.451C29.5226 63.7209 29.4641 64.0402 29.4641 64.4091C29.4641 64.7869 29.5215 65.113 29.6362 65.3874C29.7509 65.6618 29.9128 65.8743 30.122 66.025C30.3334 66.1757 30.5819 66.2511 30.8675 66.2511C31.0587 66.2511 31.2319 66.2162 31.3871 66.1465C31.5445 66.0745 31.6761 65.9722 31.7818 65.8395C31.8897 65.7068 31.9651 65.5471 32.0078 65.3604H32.9895C32.9535 65.6955 32.8445 65.9947 32.6623 66.2578C32.4801 66.521 32.2361 66.7279 31.9302 66.8786C31.6266 67.0292 31.2701 67.1046 30.8608 67.1046ZM35.0769 63.9233V67H34.0682V60.0909H35.0634V62.6616H35.1275C35.249 62.3827 35.4345 62.1612 35.6842 61.997C35.9338 61.8328 36.2599 61.7507 36.6625 61.7507C37.0179 61.7507 37.3282 61.8238 37.5936 61.97C37.8613 62.1162 38.0682 62.3343 38.2144 62.6245C38.3628 62.9123 38.437 63.2722 38.437 63.704V67H37.4283V63.8255C37.4283 63.4454 37.3305 63.1507 37.1348 62.9416C36.9391 62.7302 36.667 62.6245 36.3184 62.6245C36.08 62.6245 35.8663 62.6751 35.6774 62.7763C35.4908 62.8775 35.3434 63.0259 35.2355 63.2216C35.1298 63.415 35.0769 63.6489 35.0769 63.9233ZM41.2911 67.1147C40.9627 67.1147 40.6658 67.054 40.4004 66.9325C40.135 66.8088 39.9248 66.63 39.7696 66.3961C39.6166 66.1622 39.5402 65.8755 39.5402 65.5359C39.5402 65.2435 39.5964 65.0028 39.7089 64.8139C39.8213 64.625 39.9731 64.4754 40.1643 64.3652C40.3555 64.255 40.5691 64.1718 40.8053 64.1156C41.0414 64.0594 41.2821 64.0166 41.5272 63.9874C41.8376 63.9514 42.0895 63.9222 42.2829 63.8997C42.4763 63.8749 42.6169 63.8356 42.7046 63.7816C42.7923 63.7276 42.8362 63.6399 42.8362 63.5185V63.4949C42.8362 63.2002 42.7529 62.9719 42.5865 62.81C42.4223 62.6481 42.1772 62.5671 41.8511 62.5671C41.5115 62.5671 41.2438 62.6425 41.0482 62.7931C40.8547 62.9416 40.7209 63.1069 40.6467 63.2891L39.6987 63.0732C39.8112 62.7583 39.9754 62.5041 40.1913 62.3107C40.4094 62.1151 40.6602 61.9734 40.9436 61.8857C41.227 61.7957 41.525 61.7507 41.8376 61.7507C42.0445 61.7507 42.2638 61.7754 42.4954 61.8249C42.7293 61.8722 42.9475 61.9599 43.1499 62.0881C43.3546 62.2163 43.5221 62.3996 43.6526 62.638C43.783 62.8741 43.8482 63.1811 43.8482 63.5589V67H42.8631V66.2915H42.8227C42.7574 66.422 42.6596 66.5502 42.5292 66.6761C42.3987 66.8021 42.2312 66.9067 42.0265 66.9899C41.8218 67.0731 41.5767 67.1147 41.2911 67.1147ZM41.5103 66.305C41.7892 66.305 42.0276 66.2499 42.2255 66.1397C42.4257 66.0295 42.5775 65.8856 42.681 65.7079C42.7867 65.528 42.8395 65.3357 42.8395 65.131V64.4631C42.8035 64.4991 42.7338 64.5328 42.6304 64.5643C42.5292 64.5935 42.4133 64.6194 42.2829 64.6419C42.1524 64.6621 42.0254 64.6812 41.9017 64.6992C41.778 64.715 41.6745 64.7285 41.5913 64.7397C41.3956 64.7644 41.2168 64.806 41.0549 64.8645C40.8952 64.923 40.767 65.0073 40.6703 65.1175C40.5759 65.2255 40.5286 65.3694 40.5286 65.5494C40.5286 65.799 40.6208 65.9879 40.8053 66.1161C40.9897 66.2421 41.2247 66.305 41.5103 66.305ZM45.1918 67V61.8182H46.1667V62.6413H46.2207C46.3152 62.3625 46.4816 62.1432 46.72 61.9835C46.9606 61.8216 47.2328 61.7406 47.5364 61.7406C47.5994 61.7406 47.6736 61.7428 47.7591 61.7473C47.8468 61.7518 47.9154 61.7575 47.9648 61.7642V62.729C47.9244 62.7178 47.8524 62.7054 47.7489 62.6919C47.6455 62.6762 47.542 62.6683 47.4386 62.6683C47.2002 62.6683 46.9876 62.7189 46.801 62.8201C46.6165 62.9191 46.4703 63.0574 46.3624 63.2351C46.2544 63.4105 46.2005 63.6107 46.2005 63.8356V67H45.1918ZM49.8465 60.0909V67H48.8378V60.0909H49.8465ZM51.2035 67V61.8182H52.2122V67H51.2035ZM51.7129 61.0186C51.5375 61.0186 51.3868 60.9602 51.2608 60.8432C51.1371 60.724 51.0753 60.5823 51.0753 60.4181C51.0753 60.2517 51.1371 60.11 51.2608 59.9931C51.3868 59.8739 51.5375 59.8143 51.7129 59.8143C51.8883 59.8143 52.0379 59.8739 52.1616 59.9931C52.2875 60.11 52.3505 60.2517 52.3505 60.4181C52.3505 60.5823 52.2875 60.724 52.1616 60.8432C52.0379 60.9602 51.8883 61.0186 51.7129 61.0186ZM55.8025 67.1046C55.292 67.1046 54.8523 66.9955 54.4834 66.7773C54.1168 66.5569 53.8335 66.2477 53.6333 65.8496C53.4354 65.4493 53.3364 64.9804 53.3364 64.4428C53.3364 63.9121 53.4354 63.4442 53.6333 63.0394C53.8335 62.6346 54.1123 62.3186 54.4699 62.0914C54.8298 61.8643 55.2504 61.7507 55.7317 61.7507C56.024 61.7507 56.3074 61.7991 56.5818 61.8958C56.8562 61.9925 57.1025 62.1443 57.3206 62.3512C57.5388 62.5581 57.7108 62.8269 57.8368 63.1575C57.9627 63.4859 58.0257 63.8851 58.0257 64.3551V64.7127H53.9066V63.957H57.0372C57.0372 63.6916 56.9833 63.4566 56.8753 63.252C56.7674 63.045 56.6155 62.882 56.4199 62.7628C56.2265 62.6436 55.9993 62.584 55.7384 62.584C55.455 62.584 55.2076 62.6537 54.9962 62.7931C54.7871 62.9303 54.6251 63.1103 54.5104 63.3329C54.398 63.5533 54.3418 63.7929 54.3418 64.0515V64.6419C54.3418 64.9882 54.4025 65.2828 54.5239 65.5257C54.6476 65.7686 54.8197 65.9542 55.0401 66.0824C55.2605 66.2083 55.518 66.2713 55.8126 66.2713C56.0038 66.2713 56.1781 66.2443 56.3355 66.1903C56.493 66.1341 56.629 66.0509 56.7437 65.9407C56.8584 65.8305 56.9462 65.6944 57.0069 65.5325L57.9616 65.7045C57.8851 65.9857 57.7479 66.2319 57.55 66.4434C57.3544 66.6525 57.1081 66.8156 56.8112 66.9325C56.5166 67.0472 56.1804 67.1046 55.8025 67.1046ZM63.3045 68.8791C62.6073 68.8791 61.9888 68.7835 61.449 68.5923C60.9115 68.4034 60.4583 68.1245 60.0895 67.7557C59.7206 67.3891 59.4406 66.9393 59.2495 66.4062C59.0583 65.8732 58.9627 65.2649 58.9627 64.5811C58.9627 63.9154 59.0594 63.3172 59.2528 62.7864C59.4463 62.2556 59.7274 61.8036 60.0962 61.4302C60.4673 61.0546 60.9183 60.7679 61.449 60.57C61.9798 60.372 62.5826 60.2731 63.2573 60.2731C63.9028 60.2731 64.4718 60.3743 64.9643 60.5767C65.4569 60.7791 65.8707 61.0569 66.2058 61.41C66.5431 61.7631 66.7973 62.1679 66.9682 62.6245C67.1391 63.081 67.2246 63.5634 67.2246 64.0717C67.2246 64.4271 67.2021 64.7746 67.1571 65.1142C67.1122 65.4515 67.0289 65.7574 66.9075 66.0318C66.7883 66.3039 66.6151 66.5221 66.388 66.6863C66.1631 66.8482 65.8707 66.9325 65.5108 66.9393C65.3197 66.946 65.1341 66.9235 64.9542 66.8718C64.7743 66.8201 64.6213 66.7369 64.4954 66.6222C64.3694 66.5052 64.293 66.3568 64.266 66.1768H64.2255C64.1715 66.3095 64.0816 66.4332 63.9556 66.5479C63.8297 66.6604 63.6689 66.7504 63.4732 66.8178C63.2798 66.883 63.0549 66.91 62.7985 66.8988C62.5151 66.8875 62.2598 66.8234 62.0327 66.7065C61.8055 66.5895 61.611 66.4276 61.449 66.2207C61.2894 66.0138 61.1668 65.7686 61.0813 65.4853C60.9959 65.2019 60.9531 64.887 60.9531 64.5407C60.9531 64.2078 61.0015 63.9098 61.0982 63.6467C61.1949 63.3813 61.3265 63.153 61.4929 62.9618C61.6616 62.7684 61.855 62.6155 62.0732 62.503C62.2913 62.3906 62.5218 62.3197 62.7647 62.2905C63.0009 62.2635 63.2179 62.2702 63.4158 62.3107C63.6138 62.3512 63.7779 62.4131 63.9084 62.4963C64.0411 62.5795 64.1243 62.6706 64.158 62.7695H64.2019V62.3917H65.0318V65.5224C65.0318 65.7 65.0779 65.8507 65.1701 65.9744C65.2646 66.0981 65.3984 66.16 65.5716 66.16C65.7762 66.16 65.9359 66.0846 66.0506 65.9339C66.1676 65.7833 66.2496 65.5516 66.2969 65.239C66.3464 64.9264 66.3711 64.526 66.3711 64.038C66.3711 63.6961 66.325 63.3745 66.2328 63.0732C66.1428 62.7695 66.009 62.4951 65.8313 62.25C65.6559 62.0026 65.44 61.7901 65.1836 61.6124C64.9272 61.4347 64.6348 61.2975 64.3065 61.2008C63.9804 61.1041 63.6194 61.0558 63.2235 61.0558C62.686 61.0558 62.2081 61.139 61.7898 61.3054C61.3714 61.4696 61.0183 61.7069 60.7305 62.0172C60.4448 62.3276 60.2278 62.6998 60.0794 63.1339C59.9332 63.5657 59.8601 64.0504 59.8601 64.5879C59.8601 65.1479 59.9354 65.6449 60.0861 66.079C60.2368 66.5108 60.4595 66.8752 60.7541 67.1721C61.0487 67.4689 61.4131 67.6938 61.8471 67.8468C62.2812 68.002 62.7816 68.0795 63.3484 68.0795C63.6003 68.0795 63.8477 68.0571 64.0906 68.0121C64.3335 67.9693 64.5494 67.9199 64.7383 67.8636C64.9295 67.8097 65.0723 67.7658 65.1667 67.7321L65.4029 68.4709C65.2634 68.5361 65.0779 68.6002 64.8462 68.6632C64.6168 68.7261 64.3672 68.7779 64.0973 68.8184C63.8297 68.8588 63.5654 68.8791 63.3045 68.8791ZM62.9941 66.0723C63.2865 66.0723 63.5215 66.0138 63.6992 65.8968C63.8791 65.7799 64.0085 65.6056 64.0872 65.3739C64.1681 65.14 64.2086 64.8477 64.2086 64.4968C64.2064 64.1549 64.1625 63.8828 64.0771 63.6804C63.9938 63.4757 63.8634 63.3295 63.6857 63.2418C63.5103 63.1519 63.2843 63.1069 63.0076 63.1069C62.7535 63.1069 62.5365 63.1687 62.3565 63.2924C62.1789 63.4161 62.0428 63.5837 61.9483 63.7951C61.8561 64.0065 61.8089 64.2415 61.8066 64.5002C61.8089 64.7723 61.8471 65.0287 61.9213 65.2694C61.9978 65.5078 62.1215 65.7012 62.2924 65.8496C62.4656 65.998 62.6995 66.0723 62.9941 66.0723ZM70.572 67.1046C70.0615 67.1046 69.6218 66.9955 69.253 66.7773C68.8864 66.5569 68.603 66.2477 68.4028 65.8496C68.2049 65.4493 68.106 64.9804 68.106 64.4428C68.106 63.9121 68.2049 63.4442 68.4028 63.0394C68.603 62.6346 68.8819 62.3186 69.2395 62.0914C69.5993 61.8643 70.0199 61.7507 70.5012 61.7507C70.7936 61.7507 71.077 61.7991 71.3513 61.8958C71.6257 61.9925 71.872 62.1443 72.0902 62.3512C72.3083 62.5581 72.4804 62.8269 72.6063 63.1575C72.7323 63.4859 72.7952 63.8851 72.7952 64.3551V64.7127H68.6761V63.957H71.8068C71.8068 63.6916 71.7528 63.4566 71.6448 63.252C71.5369 63.045 71.3851 62.882 71.1894 62.7628C70.996 62.6436 70.7688 62.584 70.5079 62.584C70.2246 62.584 69.9772 62.6537 69.7658 62.7931C69.5566 62.9303 69.3947 63.1103 69.28 63.3329C69.1675 63.5533 69.1113 63.7929 69.1113 64.0515V64.6419C69.1113 64.9882 69.172 65.2828 69.2935 65.5257C69.4172 65.7686 69.5892 65.9542 69.8096 66.0824C70.03 66.2083 70.2875 66.2713 70.5822 66.2713C70.7733 66.2713 70.9476 66.2443 71.1051 66.1903C71.2625 66.1341 71.3986 66.0509 71.5133 65.9407C71.628 65.8305 71.7157 65.6944 71.7764 65.5325L72.7311 65.7045C72.6547 65.9857 72.5175 66.2319 72.3196 66.4434C72.1239 66.6525 71.8776 66.8156 71.5807 66.9325C71.2861 67.0472 70.9499 67.1046 70.572 67.1046ZM73.9144 67V61.8182H74.8826V62.6616H74.9467C75.0547 62.3759 75.2312 62.1533 75.4764 61.9936C75.7215 61.8317 76.015 61.7507 76.3569 61.7507C76.7032 61.7507 76.9934 61.8317 77.2273 61.9936C77.4634 62.1555 77.6377 62.3782 77.7502 62.6616H77.8042C77.9279 62.3849 78.1246 62.1645 78.3945 62.0004C78.6644 61.8339 78.986 61.7507 79.3594 61.7507C79.8294 61.7507 80.2129 61.898 80.5098 62.1926C80.8089 62.4873 80.9585 62.9315 80.9585 63.5252V67H79.9498V63.6197C79.9498 63.2688 79.8542 63.0147 79.663 62.8572C79.4718 62.6998 79.2435 62.6211 78.9782 62.6211C78.6498 62.6211 78.3945 62.7223 78.2124 62.9247C78.0302 63.1249 77.9391 63.3824 77.9391 63.6973V67H76.9338V63.5556C76.9338 63.2744 76.8461 63.0484 76.6706 62.8775C76.4952 62.7066 76.2669 62.6211 75.9858 62.6211C75.7946 62.6211 75.6181 62.6717 75.4561 62.7729C75.2965 62.8719 75.1671 63.0102 75.0682 63.1879C74.9715 63.3655 74.9231 63.5713 74.9231 63.8052V67H73.9144ZM83.8184 67.1147C83.49 67.1147 83.1932 67.054 82.9278 66.9325C82.6624 66.8088 82.4521 66.63 82.2969 66.3961C82.144 66.1622 82.0675 65.8755 82.0675 65.5359C82.0675 65.2435 82.1237 65.0028 82.2362 64.8139C82.3486 64.625 82.5005 64.4754 82.6916 64.3652C82.8828 64.255 83.0965 64.1718 83.3326 64.1156C83.5688 64.0594 83.8094 64.0166 84.0546 63.9874C84.3649 63.9514 84.6168 63.9222 84.8102 63.8997C85.0037 63.8749 85.1442 63.8356 85.2319 63.7816C85.3196 63.7276 85.3635 63.6399 85.3635 63.5185V63.4949C85.3635 63.2002 85.2803 62.9719 85.1139 62.81C84.9497 62.6481 84.7045 62.5671 84.3784 62.5671C84.0388 62.5671 83.7712 62.6425 83.5755 62.7931C83.3821 62.9416 83.2483 63.1069 83.1741 63.2891L82.2261 63.0732C82.3385 62.7583 82.5027 62.5041 82.7186 62.3107C82.9368 62.1151 83.1875 61.9734 83.4709 61.8857C83.7543 61.7957 84.0523 61.7507 84.3649 61.7507C84.5718 61.7507 84.7911 61.7754 85.0228 61.8249C85.2567 61.8722 85.4748 61.9599 85.6772 62.0881C85.8819 62.2163 86.0495 62.3996 86.1799 62.638C86.3104 62.8741 86.3756 63.1811 86.3756 63.5589V67H85.3905V66.2915H85.35C85.2848 66.422 85.187 66.5502 85.0565 66.6761C84.9261 66.8021 84.7585 66.9067 84.5538 66.9899C84.3492 67.0731 84.104 67.1147 83.8184 67.1147ZM84.0377 66.305C84.3166 66.305 84.555 66.2499 84.7529 66.1397C84.9531 66.0295 85.1049 65.8856 85.2083 65.7079C85.314 65.528 85.3669 65.3357 85.3669 65.131V64.4631C85.3309 64.4991 85.2612 64.5328 85.1577 64.5643C85.0565 64.5935 84.9407 64.6194 84.8102 64.6419C84.6798 64.6621 84.5527 64.6812 84.429 64.6992C84.3053 64.715 84.2019 64.7285 84.1187 64.7397C83.923 64.7644 83.7442 64.806 83.5823 64.8645C83.4226 64.923 83.2944 65.0073 83.1977 65.1175C83.1032 65.2255 83.056 65.3694 83.056 65.5494C83.056 65.799 83.1482 65.9879 83.3326 66.1161C83.517 66.2421 83.7521 66.305 84.0377 66.305ZM87.7191 67V61.8182H88.7278V67H87.7191ZM88.2285 61.0186C88.0531 61.0186 87.9024 60.9602 87.7765 60.8432C87.6528 60.724 87.5909 60.5823 87.5909 60.4181C87.5909 60.2517 87.6528 60.11 87.7765 59.9931C87.9024 59.8739 88.0531 59.8143 88.2285 59.8143C88.4039 59.8143 88.5535 59.8739 88.6772 59.9931C88.8031 60.11 88.8661 60.2517 88.8661 60.4181C88.8661 60.5823 88.8031 60.724 88.6772 60.8432C88.5535 60.9602 88.4039 61.0186 88.2285 61.0186ZM91.0935 60.0909V67H90.0848V60.0909H91.0935ZM93.1151 67.0641C92.9307 67.0641 92.7722 66.9989 92.6395 66.8684C92.5068 66.7357 92.4404 66.5761 92.4404 66.3894C92.4404 66.205 92.5068 66.0475 92.6395 65.9171C92.7722 65.7844 92.9307 65.718 93.1151 65.718C93.2996 65.718 93.4581 65.7844 93.5908 65.9171C93.7235 66.0475 93.7899 66.205 93.7899 66.3894C93.7899 66.5131 93.7584 66.6267 93.6954 66.7301C93.6347 66.8313 93.5537 66.9123 93.4525 66.973C93.3513 67.0337 93.2388 67.0641 93.1151 67.0641ZM97.3237 67.1046C96.8221 67.1046 96.3903 66.991 96.0282 66.7638C95.6684 66.5344 95.3917 66.2185 95.1983 65.8159C95.0049 65.4133 94.9082 64.9522 94.9082 64.4327C94.9082 63.9064 95.0072 63.442 95.2051 63.0394C95.403 62.6346 95.6819 62.3186 96.0417 62.0914C96.4016 61.8643 96.8255 61.7507 97.3136 61.7507C97.7071 61.7507 98.058 61.8238 98.3661 61.97C98.6742 62.1139 98.9228 62.3163 99.1117 62.5772C99.3029 62.8381 99.4164 63.1429 99.4524 63.4915H98.4707C98.4167 63.2486 98.293 63.0394 98.0996 62.864C97.9084 62.6886 97.652 62.6009 97.3304 62.6009C97.0493 62.6009 96.803 62.6751 96.5916 62.8235C96.3825 62.9697 96.2194 63.1789 96.1025 63.451C95.9855 63.7209 95.927 64.0402 95.927 64.4091C95.927 64.7869 95.9844 65.113 96.0991 65.3874C96.2138 65.6618 96.3757 65.8743 96.5849 66.025C96.7963 66.1757 97.0448 66.2511 97.3304 66.2511C97.5216 66.2511 97.6948 66.2162 97.85 66.1465C98.0074 66.0745 98.139 65.9722 98.2447 65.8395C98.3526 65.7068 98.428 65.5471 98.4707 65.3604H99.4524C99.4164 65.6955 99.3074 65.9947 99.1252 66.2578C98.943 66.521 98.699 66.7279 98.3931 66.8786C98.0895 67.0292 97.733 67.1046 97.3237 67.1046ZM102.714 67.1046C102.228 67.1046 101.804 66.9933 101.442 66.7706C101.08 66.5479 100.799 66.2364 100.599 65.8361C100.398 65.4358 100.298 64.968 100.298 64.4327C100.298 63.8952 100.398 63.4251 100.599 63.0225C100.799 62.62 101.08 62.3074 101.442 62.0847C101.804 61.862 102.228 61.7507 102.714 61.7507C103.2 61.7507 103.624 61.862 103.986 62.0847C104.348 62.3074 104.629 62.62 104.829 63.0225C105.029 63.4251 105.129 63.8952 105.129 64.4327C105.129 64.968 105.029 65.4358 104.829 65.8361C104.629 66.2364 104.348 66.5479 103.986 66.7706C103.624 66.9933 103.2 67.1046 102.714 67.1046ZM102.717 66.2578C103.032 66.2578 103.293 66.1746 103.5 66.0082C103.707 65.8417 103.86 65.6202 103.959 65.3436C104.06 65.0669 104.11 64.7622 104.11 64.4293C104.11 64.0987 104.06 63.7951 103.959 63.5185C103.86 63.2396 103.707 63.0158 103.5 62.8471C103.293 62.6784 103.032 62.5941 102.717 62.5941C102.4 62.5941 102.137 62.6784 101.928 62.8471C101.721 63.0158 101.567 63.2396 101.466 63.5185C101.367 63.7951 101.317 64.0987 101.317 64.4293C101.317 64.7622 101.367 65.0669 101.466 65.3436C101.567 65.6202 101.721 65.8417 101.928 66.0082C102.137 66.1746 102.4 66.2578 102.717 66.2578ZM106.255 67V61.8182H107.223V62.6616H107.288C107.396 62.3759 107.572 62.1533 107.817 61.9936C108.062 61.8317 108.356 61.7507 108.698 61.7507C109.044 61.7507 109.334 61.8317 109.568 61.9936C109.804 62.1555 109.979 62.3782 110.091 62.6616H110.145C110.269 62.3849 110.465 62.1645 110.735 62.0004C111.005 61.8339 111.327 61.7507 111.7 61.7507C112.17 61.7507 112.554 61.898 112.851 62.1926C113.15 62.4873 113.299 62.9315 113.299 63.5252V67H112.291V63.6197C112.291 63.2688 112.195 63.0147 112.004 62.8572C111.813 62.6998 111.584 62.6211 111.319 62.6211C110.991 62.6211 110.735 62.7223 110.553 62.9247C110.371 63.1249 110.28 63.3824 110.28 63.6973V67H109.275V63.5556C109.275 63.2744 109.187 63.0484 109.011 62.8775C108.836 62.7066 108.608 62.6211 108.327 62.6211C108.135 62.6211 107.959 62.6717 107.797 62.7729C107.637 62.8719 107.508 63.0102 107.409 63.1879C107.312 63.3655 107.264 63.5713 107.264 63.8052V67H106.255Z" fill="black"/>
<path d="M30.1861 93.1147C29.8577 93.1147 29.5608 93.054 29.2955 92.9325C29.0301 92.8088 28.8198 92.63 28.6646 92.3961C28.5117 92.1622 28.4352 91.8755 28.4352 91.5359C28.4352 91.2435 28.4914 91.0028 28.6039 90.8139C28.7163 90.625 28.8681 90.4754 29.0593 90.3652C29.2505 90.255 29.4641 90.1718 29.7003 90.1156C29.9364 90.0594 30.1771 90.0166 30.4222 89.9874C30.7326 89.9514 30.9845 89.9222 31.1779 89.8997C31.3713 89.8749 31.5119 89.8356 31.5996 89.7816C31.6873 89.7276 31.7312 89.6399 31.7312 89.5185V89.4949C31.7312 89.2002 31.648 88.9719 31.4815 88.81C31.3174 88.6481 31.0722 88.5671 30.7461 88.5671C30.4065 88.5671 30.1388 88.6425 29.9432 88.7931C29.7498 88.9416 29.6159 89.1069 29.5417 89.2891L28.5938 89.0732C28.7062 88.7583 28.8704 88.5041 29.0863 88.3107C29.3045 88.1151 29.5552 87.9734 29.8386 87.8857C30.122 87.7957 30.42 87.7507 30.7326 87.7507C30.9395 87.7507 31.1588 87.7754 31.3904 87.8249C31.6243 87.8722 31.8425 87.9599 32.0449 88.0881C32.2496 88.2163 32.4171 88.3996 32.5476 88.638C32.678 88.8741 32.7433 89.1811 32.7433 89.5589V93H31.7582V92.2915H31.7177C31.6525 92.422 31.5546 92.5502 31.4242 92.6761C31.2937 92.8021 31.1262 92.9067 30.9215 92.9899C30.7169 93.0731 30.4717 93.1147 30.1861 93.1147ZM30.4054 92.305C30.6842 92.305 30.9226 92.2499 31.1206 92.1397C31.3207 92.0295 31.4725 91.8856 31.576 91.7079C31.6817 91.528 31.7346 91.3357 31.7346 91.131V90.4631C31.6986 90.4991 31.6288 90.5328 31.5254 90.5643C31.4242 90.5935 31.3084 90.6194 31.1779 90.6419C31.0475 90.6621 30.9204 90.6812 30.7967 90.6992C30.673 90.715 30.5695 90.7285 30.4863 90.7397C30.2907 90.7644 30.1119 90.806 29.9499 90.8645C29.7902 90.923 29.6621 91.0073 29.5653 91.1175C29.4709 91.2255 29.4237 91.3694 29.4237 91.5494C29.4237 91.799 29.5159 91.9879 29.7003 92.1161C29.8847 92.2421 30.1197 92.305 30.4054 92.305ZM35.0955 89.9233V93H34.0868V87.8182H35.055V88.6616H35.1191C35.2383 88.3872 35.425 88.1668 35.6791 88.0004C35.9355 87.8339 36.2582 87.7507 36.6473 87.7507C37.0004 87.7507 37.3097 87.8249 37.5751 87.9734C37.8405 88.1196 38.0462 88.3377 38.1924 88.6278C38.3386 88.918 38.4117 89.2767 38.4117 89.704V93H37.403V89.8255C37.403 89.4499 37.3052 89.1564 37.1095 88.945C36.9138 88.7313 36.6451 88.6245 36.3032 88.6245C36.0693 88.6245 35.8613 88.6751 35.6791 88.7763C35.4992 88.8775 35.3564 89.0259 35.2507 89.2216C35.1472 89.415 35.0955 89.6489 35.0955 89.9233ZM40.7732 89.9233V93H39.7645V87.8182H40.7327V88.6616H40.7968C40.916 88.3872 41.1027 88.1668 41.3568 88.0004C41.6132 87.8339 41.936 87.7507 42.3251 87.7507C42.6782 87.7507 42.9874 87.8249 43.2528 87.9734C43.5182 88.1196 43.724 88.3377 43.8702 88.6278C44.0164 88.918 44.0894 89.2767 44.0894 89.704V93H43.0807V89.8255C43.0807 89.4499 42.9829 89.1564 42.7872 88.945C42.5916 88.7313 42.3228 88.6245 41.981 88.6245C41.7471 88.6245 41.539 88.6751 41.3568 88.7763C41.1769 88.8775 41.0341 89.0259 40.9284 89.2216C40.8249 89.415 40.7732 89.6489 40.7732 89.9233ZM46.9502 93.1147C46.6219 93.1147 46.325 93.054 46.0596 92.9325C45.7942 92.8088 45.5839 92.63 45.4288 92.3961C45.2758 92.1622 45.1994 91.8755 45.1994 91.5359C45.1994 91.2435 45.2556 91.0028 45.368 90.8139C45.4805 90.625 45.6323 90.4754 45.8235 90.3652C46.0146 90.255 46.2283 90.1718 46.4644 90.1156C46.7006 90.0594 46.9412 90.0166 47.1864 89.9874C47.4968 89.9514 47.7487 89.9222 47.9421 89.8997C48.1355 89.8749 48.2761 89.8356 48.3638 89.7816C48.4515 89.7276 48.4953 89.6399 48.4953 89.5185V89.4949C48.4953 89.2002 48.4121 88.9719 48.2457 88.81C48.0815 88.6481 47.8364 88.5671 47.5103 88.5671C47.1706 88.5671 46.903 88.6425 46.7073 88.7931C46.5139 88.9416 46.3801 89.1069 46.3059 89.2891L45.3579 89.0732C45.4704 88.7583 45.6345 88.5041 45.8505 88.3107C46.0686 88.1151 46.3194 87.9734 46.6028 87.8857C46.8861 87.7957 47.1841 87.7507 47.4968 87.7507C47.7037 87.7507 47.923 87.7754 48.1546 87.8249C48.3885 87.8722 48.6067 87.9599 48.8091 88.0881C49.0137 88.2163 49.1813 88.3996 49.3117 88.638C49.4422 88.8741 49.5074 89.1811 49.5074 89.5589V93H48.5223V92.2915H48.4818C48.4166 92.422 48.3188 92.5502 48.1883 92.6761C48.0579 92.8021 47.8903 92.9067 47.6857 92.9899C47.481 93.0731 47.2359 93.1147 46.9502 93.1147ZM47.1695 92.305C47.4484 92.305 47.6868 92.2499 47.8847 92.1397C48.0849 92.0295 48.2367 91.8856 48.3402 91.7079C48.4459 91.528 48.4987 91.3357 48.4987 91.131V90.4631C48.4627 90.4991 48.393 90.5328 48.2896 90.5643C48.1883 90.5935 48.0725 90.6194 47.9421 90.6419C47.8116 90.6621 47.6846 90.6812 47.5609 90.6992C47.4372 90.715 47.3337 90.7285 47.2505 90.7397C47.0548 90.7644 46.876 90.806 46.7141 90.8645C46.5544 90.923 46.4262 91.0073 46.3295 91.1175C46.235 91.2255 46.1878 91.3694 46.1878 91.5494C46.1878 91.799 46.28 91.9879 46.4644 92.1161C46.6489 92.2421 46.8839 92.305 47.1695 92.305ZM55.0106 94.8791C54.3134 94.8791 53.6949 94.7835 53.1551 94.5923C52.6176 94.4034 52.1644 94.1245 51.7955 93.7557C51.4267 93.3891 51.1467 92.9393 50.9555 92.4062C50.7644 91.8732 50.6688 91.2649 50.6688 90.5811C50.6688 89.9154 50.7655 89.3172 50.9589 88.7864C51.1523 88.2556 51.4334 87.8036 51.8023 87.4302C52.1734 87.0546 52.6243 86.7679 53.1551 86.57C53.6859 86.372 54.2886 86.2731 54.9633 86.2731C55.6088 86.2731 56.1778 86.3743 56.6704 86.5767C57.1629 86.7791 57.5767 87.0569 57.9118 87.41C58.2492 87.7631 58.5033 88.1679 58.6743 88.6245C58.8452 89.081 58.9307 89.5634 58.9307 90.0717C58.9307 90.4271 58.9082 90.7746 58.8632 91.1142C58.8182 91.4515 58.735 91.7574 58.6135 92.0318C58.4943 92.3039 58.3212 92.5221 58.094 92.6863C57.8691 92.8482 57.5767 92.9325 57.2169 92.9393C57.0257 92.946 56.8402 92.9235 56.6602 92.8718C56.4803 92.8201 56.3274 92.7369 56.2014 92.6222C56.0755 92.5052 55.999 92.3568 55.972 92.1768H55.9316C55.8776 92.3095 55.7876 92.4332 55.6617 92.5479C55.5357 92.6604 55.3749 92.7504 55.1792 92.8178C54.9858 92.883 54.7609 92.91 54.5045 92.8988C54.2211 92.8875 53.9659 92.8234 53.7387 92.7065C53.5116 92.5895 53.317 92.4276 53.1551 92.2207C52.9954 92.0138 52.8728 91.7686 52.7874 91.4853C52.7019 91.2019 52.6592 90.887 52.6592 90.5407C52.6592 90.2078 52.7075 89.9098 52.8042 89.6467C52.901 89.3813 53.0325 89.153 53.199 88.9618C53.3676 88.7684 53.5611 88.6155 53.7792 88.503C53.9974 88.3906 54.2279 88.3197 54.4708 88.2905C54.7069 88.2635 54.924 88.2702 55.1219 88.3107C55.3198 88.3512 55.484 88.4131 55.6144 88.4963C55.7471 88.5795 55.8303 88.6706 55.8641 88.7695H55.9079V88.3917H56.7378V91.5224C56.7378 91.7 56.7839 91.8507 56.8762 91.9744C56.9706 92.0981 57.1044 92.16 57.2776 92.16C57.4823 92.16 57.642 92.0846 57.7567 91.9339C57.8736 91.7833 57.9557 91.5516 58.0029 91.239C58.0524 90.9264 58.0771 90.526 58.0771 90.038C58.0771 89.6961 58.031 89.3745 57.9388 89.0732C57.8489 88.7695 57.7151 88.4951 57.5374 88.25C57.3619 88.0026 57.146 87.7901 56.8896 87.6124C56.6333 87.4347 56.3409 87.2975 56.0125 87.2008C55.6864 87.1041 55.3254 87.0558 54.9296 87.0558C54.3921 87.0558 53.9142 87.139 53.4958 87.3054C53.0775 87.4696 52.7244 87.7069 52.4365 88.0172C52.1509 88.3276 51.9339 88.6998 51.7854 89.1339C51.6392 89.5657 51.5661 90.0504 51.5661 90.5879C51.5661 91.1479 51.6415 91.6449 51.7922 92.079C51.9429 92.5108 52.1655 92.8752 52.4601 93.1721C52.7548 93.4689 53.1191 93.6938 53.5532 93.8468C53.9872 94.002 54.4877 94.0795 55.0544 94.0795C55.3063 94.0795 55.5537 94.0571 55.7966 94.0121C56.0395 93.9693 56.2554 93.9199 56.4443 93.8636C56.6355 93.8097 56.7783 93.7658 56.8728 93.7321L57.1089 94.4709C56.9695 94.5361 56.7839 94.6002 56.5523 94.6632C56.3229 94.7261 56.0732 94.7779 55.8034 94.8184C55.5357 94.8588 55.2715 94.8791 55.0106 94.8791ZM54.7002 92.0723C54.9926 92.0723 55.2276 92.0138 55.4053 91.8968C55.5852 91.7799 55.7145 91.6056 55.7932 91.3739C55.8742 91.14 55.9147 90.8477 55.9147 90.4968C55.9124 90.1549 55.8686 89.8828 55.7831 89.6804C55.6999 89.4757 55.5695 89.3295 55.3918 89.2418C55.2164 89.1519 54.9903 89.1069 54.7137 89.1069C54.4595 89.1069 54.2425 89.1687 54.0626 89.2924C53.8849 89.4161 53.7488 89.5837 53.6544 89.7951C53.5622 90.0065 53.5149 90.2415 53.5127 90.5002C53.5149 90.7723 53.5532 91.0287 53.6274 91.2694C53.7039 91.5078 53.8276 91.7012 53.9985 91.8496C54.1717 91.998 54.4056 92.0723 54.7002 92.0723ZM62.2781 93.1046C61.7676 93.1046 61.3279 92.9955 60.959 92.7773C60.5924 92.5569 60.3091 92.2477 60.1089 91.8496C59.911 91.4493 59.812 90.9804 59.812 90.4428C59.812 89.9121 59.911 89.4442 60.1089 89.0394C60.3091 88.6346 60.5879 88.3186 60.9455 88.0914C61.3054 87.8643 61.726 87.7507 62.2073 87.7507C62.4996 87.7507 62.783 87.7991 63.0574 87.8958C63.3318 87.9925 63.5781 88.1443 63.7962 88.3512C64.0144 88.5581 64.1864 88.8269 64.3124 89.1575C64.4383 89.4859 64.5013 89.8851 64.5013 90.3551V90.7127H60.3821V89.957H63.5128C63.5128 89.6916 63.4589 89.4566 63.3509 89.252C63.2429 89.045 63.0911 88.882 62.8955 88.7628C62.702 88.6436 62.4749 88.584 62.214 88.584C61.9306 88.584 61.6832 88.6537 61.4718 88.7931C61.2627 88.9303 61.1007 89.1103 60.986 89.3329C60.8736 89.5533 60.8173 89.7929 60.8173 90.0515V90.6419C60.8173 90.9882 60.8781 91.2828 60.9995 91.5257C61.1232 91.7686 61.2953 91.9542 61.5157 92.0824C61.7361 92.2083 61.9936 92.2713 62.2882 92.2713C62.4794 92.2713 62.6537 92.2443 62.8111 92.1903C62.9686 92.1341 63.1046 92.0509 63.2193 91.9407C63.334 91.8305 63.4217 91.6944 63.4825 91.5325L64.4372 91.7045C64.3607 91.9857 64.2235 92.2319 64.0256 92.4434C63.8299 92.6525 63.5837 92.8156 63.2868 92.9325C62.9922 93.0472 62.6559 93.1046 62.2781 93.1046ZM65.6205 93V87.8182H66.5887V88.6616H66.6528C66.7607 88.3759 66.9373 88.1533 67.1824 87.9936C67.4276 87.8317 67.7211 87.7507 68.0629 87.7507C68.4093 87.7507 68.6994 87.8317 68.9333 87.9936C69.1695 88.1555 69.3438 88.3782 69.4562 88.6616H69.5102C69.6339 88.3849 69.8307 88.1645 70.1006 88.0004C70.3705 87.8339 70.6921 87.7507 71.0654 87.7507C71.5355 87.7507 71.9189 87.898 72.2158 88.1926C72.5149 88.4873 72.6645 88.9315 72.6645 89.5252V93H71.6558V89.6197C71.6558 89.2688 71.5602 89.0147 71.3691 88.8572C71.1779 88.6998 70.9496 88.6211 70.6842 88.6211C70.3559 88.6211 70.1006 88.7223 69.9184 88.9247C69.7362 89.1249 69.6452 89.3824 69.6452 89.6973V93H68.6398V89.5556C68.6398 89.2744 68.5521 89.0484 68.3767 88.8775C68.2013 88.7066 67.973 88.6211 67.6919 88.6211C67.5007 88.6211 67.3241 88.6717 67.1622 88.7729C67.0025 88.8719 66.8732 89.0102 66.7742 89.1879C66.6775 89.3655 66.6292 89.5713 66.6292 89.8052V93H65.6205ZM75.5245 93.1147C75.1961 93.1147 74.8992 93.054 74.6338 92.9325C74.3684 92.8088 74.1582 92.63 74.003 92.3961C73.85 92.1622 73.7736 91.8755 73.7736 91.5359C73.7736 91.2435 73.8298 91.0028 73.9422 90.8139C74.0547 90.625 74.2065 90.4754 74.3977 90.3652C74.5889 90.255 74.8025 90.1718 75.0387 90.1156C75.2748 90.0594 75.5155 90.0166 75.7606 89.9874C76.071 89.9514 76.3229 89.9222 76.5163 89.8997C76.7097 89.8749 76.8503 89.8356 76.938 89.7816C77.0257 89.7276 77.0696 89.6399 77.0696 89.5185V89.4949C77.0696 89.2002 76.9863 88.9719 76.8199 88.81C76.6557 88.6481 76.4106 88.5671 76.0845 88.5671C75.7449 88.5671 75.4772 88.6425 75.2816 88.7931C75.0881 88.9416 74.9543 89.1069 74.8801 89.2891L73.9321 89.0732C74.0446 88.7583 74.2088 88.5041 74.4247 88.3107C74.6428 88.1151 74.8936 87.9734 75.177 87.8857C75.4604 87.7957 75.7584 87.7507 76.071 87.7507C76.2779 87.7507 76.4972 87.7754 76.7288 87.8249C76.9627 87.8722 77.1809 87.9599 77.3833 88.0881C77.588 88.2163 77.7555 88.3996 77.886 88.638C78.0164 88.8741 78.0816 89.1811 78.0816 89.5589V93H77.0965V92.2915H77.0561C76.9908 92.422 76.893 92.5502 76.7626 92.6761C76.6321 92.8021 76.4646 92.9067 76.2599 92.9899C76.0552 93.0731 75.8101 93.1147 75.5245 93.1147ZM75.7437 92.305C76.0226 92.305 76.261 92.2499 76.4589 92.1397C76.6591 92.0295 76.8109 91.8856 76.9144 91.7079C77.0201 91.528 77.0729 91.3357 77.0729 91.131V90.4631C77.0369 90.4991 76.9672 90.5328 76.8638 90.5643C76.7626 90.5935 76.6467 90.6194 76.5163 90.6419C76.3858 90.6621 76.2588 90.6812 76.1351 90.6992C76.0114 90.715 75.9079 90.7285 75.8247 90.7397C75.629 90.7644 75.4502 90.806 75.2883 90.8645C75.1286 90.923 75.0004 91.0073 74.9037 91.1175C74.8093 91.2255 74.762 91.3694 74.762 91.5494C74.762 91.799 74.8542 91.9879 75.0387 92.1161C75.2231 92.2421 75.4581 92.305 75.7437 92.305ZM79.4252 93V87.8182H80.4339V93H79.4252ZM79.9346 87.0186C79.7591 87.0186 79.6085 86.9602 79.4825 86.8432C79.3588 86.724 79.297 86.5823 79.297 86.4181C79.297 86.2517 79.3588 86.11 79.4825 85.9931C79.6085 85.8739 79.7591 85.8143 79.9346 85.8143C80.11 85.8143 80.2596 85.8739 80.3833 85.9931C80.5092 86.11 80.5722 86.2517 80.5722 86.4181C80.5722 86.5823 80.5092 86.724 80.3833 86.8432C80.2596 86.9602 80.11 87.0186 79.9346 87.0186ZM82.7996 86.0909V93H81.7909V86.0909H82.7996ZM84.8212 93.0641C84.6368 93.0641 84.4782 92.9989 84.3455 92.8684C84.2128 92.7357 84.1465 92.5761 84.1465 92.3894C84.1465 92.205 84.2128 92.0475 84.3455 91.9171C84.4782 91.7844 84.6368 91.718 84.8212 91.718C85.0056 91.718 85.1642 91.7844 85.2969 91.9171C85.4296 92.0475 85.4959 92.205 85.4959 92.3894C85.4959 92.5131 85.4644 92.6267 85.4015 92.7301C85.3407 92.8313 85.2598 92.9123 85.1586 92.973C85.0574 93.0337 84.9449 93.0641 84.8212 93.0641ZM89.0297 93.1046C88.5282 93.1046 88.0964 92.991 87.7343 92.7638C87.3744 92.5344 87.0978 92.2185 86.9044 91.8159C86.711 91.4133 86.6143 90.9522 86.6143 90.4327C86.6143 89.9064 86.7132 89.442 86.9111 89.0394C87.109 88.6346 87.3879 88.3186 87.7478 88.0914C88.1076 87.8643 88.5316 87.7507 89.0196 87.7507C89.4132 87.7507 89.7641 87.8238 90.0722 87.97C90.3803 88.1139 90.6288 88.3163 90.8177 88.5772C91.0089 88.8381 91.1225 89.1429 91.1585 89.4915H90.1768C90.1228 89.2486 89.9991 89.0394 89.8057 88.864C89.6145 88.6886 89.3581 88.6009 89.0365 88.6009C88.7554 88.6009 88.5091 88.6751 88.2977 88.8235C88.0885 88.9697 87.9255 89.1789 87.8085 89.451C87.6916 89.7209 87.6331 90.0402 87.6331 90.4091C87.6331 90.7869 87.6904 91.113 87.8051 91.3874C87.9198 91.6618 88.0818 91.8743 88.2909 92.025C88.5023 92.1757 88.7509 92.2511 89.0365 92.2511C89.2277 92.2511 89.4008 92.2162 89.556 92.1465C89.7135 92.0745 89.845 91.9722 89.9507 91.8395C90.0587 91.7068 90.134 91.5471 90.1768 91.3604H91.1585C91.1225 91.6955 91.0134 91.9947 90.8312 92.2578C90.6491 92.521 90.405 92.7279 90.0992 92.8786C89.7955 93.0292 89.4391 93.1046 89.0297 93.1046ZM94.4199 93.1046C93.9341 93.1046 93.5101 92.9933 93.148 92.7706C92.7859 92.5479 92.5048 92.2364 92.3046 91.8361C92.1045 91.4358 92.0044 90.968 92.0044 90.4327C92.0044 89.8952 92.1045 89.4251 92.3046 89.0225C92.5048 88.62 92.7859 88.3074 93.148 88.0847C93.5101 87.862 93.9341 87.7507 94.4199 87.7507C94.9057 87.7507 95.3296 87.862 95.6917 88.0847C96.0538 88.3074 96.3349 88.62 96.5351 89.0225C96.7353 89.4251 96.8354 89.8952 96.8354 90.4327C96.8354 90.968 96.7353 91.4358 96.5351 91.8361C96.3349 92.2364 96.0538 92.5479 95.6917 92.7706C95.3296 92.9933 94.9057 93.1046 94.4199 93.1046ZM94.4233 92.2578C94.7381 92.2578 94.999 92.1746 95.2059 92.0082C95.4128 91.8417 95.5658 91.6202 95.6647 91.3436C95.7659 91.0669 95.8165 90.7622 95.8165 90.4293C95.8165 90.0987 95.7659 89.7951 95.6647 89.5185C95.5658 89.2396 95.4128 89.0158 95.2059 88.8471C94.999 88.6784 94.7381 88.5941 94.4233 88.5941C94.1061 88.5941 93.843 88.6784 93.6338 88.8471C93.4269 89.0158 93.2729 89.2396 93.1717 89.5185C93.0727 89.7951 93.0232 90.0987 93.0232 90.4293C93.0232 90.7622 93.0727 91.0669 93.1717 91.3436C93.2729 91.6202 93.4269 91.8417 93.6338 92.0082C93.843 92.1746 94.1061 92.2578 94.4233 92.2578ZM97.9613 93V87.8182H98.9295V88.6616H98.9936C99.1016 88.3759 99.2781 88.1533 99.5233 87.9936C99.7684 87.8317 100.062 87.7507 100.404 87.7507C100.75 87.7507 101.04 87.8317 101.274 87.9936C101.51 88.1555 101.685 88.3782 101.797 88.6616H101.851C101.975 88.3849 102.172 88.1645 102.441 88.0004C102.711 87.8339 103.033 87.7507 103.406 87.7507C103.876 87.7507 104.26 87.898 104.557 88.1926C104.856 88.4873 105.005 88.9315 105.005 89.5252V93H103.997V89.6197C103.997 89.2688 103.901 89.0147 103.71 88.8572C103.519 88.6998 103.29 88.6211 103.025 88.6211C102.697 88.6211 102.441 88.7223 102.259 88.9247C102.077 89.1249 101.986 89.3824 101.986 89.6973V93H100.981V89.5556C100.981 89.2744 100.893 89.0484 100.718 88.8775C100.542 88.7066 100.314 88.6211 100.033 88.6211C99.8415 88.6211 99.665 88.6717 99.503 88.7729C99.3433 88.8719 99.214 89.0102 99.1151 89.1879C99.0183 89.3655 98.97 89.5713 98.97 89.8052V93H97.9613Z" fill="black"/>
<path d="M29.6868 115.923V119H28.6781V113.818H29.6463V114.662H29.7104C29.8296 114.387 30.0163 114.167 30.2704 114C30.5268 113.834 30.8496 113.751 31.2386 113.751C31.5917 113.751 31.901 113.825 32.1664 113.973C32.4318 114.12 32.6375 114.338 32.7837 114.628C32.9299 114.918 33.003 115.277 33.003 115.704V119H31.9943V115.825C31.9943 115.45 31.8965 115.156 31.7008 114.945C31.5051 114.731 31.2364 114.624 30.8945 114.624C30.6606 114.624 30.4526 114.675 30.2704 114.776C30.0905 114.877 29.9477 115.026 29.842 115.222C29.7385 115.415 29.6868 115.649 29.6868 115.923ZM36.5385 119.105C36.0527 119.105 35.6288 118.993 35.2667 118.771C34.9046 118.548 34.6235 118.236 34.4233 117.836C34.2231 117.436 34.123 116.968 34.123 116.433C34.123 115.895 34.2231 115.425 34.4233 115.023C34.6235 114.62 34.9046 114.307 35.2667 114.085C35.6288 113.862 36.0527 113.751 36.5385 113.751C37.0243 113.751 37.4483 113.862 37.8104 114.085C38.1725 114.307 38.4536 114.62 38.6538 115.023C38.8539 115.425 38.954 115.895 38.954 116.433C38.954 116.968 38.8539 117.436 38.6538 117.836C38.4536 118.236 38.1725 118.548 37.8104 118.771C37.4483 118.993 37.0243 119.105 36.5385 119.105ZM36.5419 118.258C36.8568 118.258 37.1177 118.175 37.3246 118.008C37.5315 117.842 37.6844 117.62 37.7834 117.344C37.8846 117.067 37.9352 116.762 37.9352 116.429C37.9352 116.099 37.8846 115.795 37.7834 115.518C37.6844 115.24 37.5315 115.016 37.3246 114.847C37.1177 114.678 36.8568 114.594 36.5419 114.594C36.2248 114.594 35.9616 114.678 35.7525 114.847C35.5456 115.016 35.3915 115.24 35.2903 115.518C35.1913 115.795 35.1419 116.099 35.1419 116.429C35.1419 116.762 35.1913 117.067 35.2903 117.344C35.3915 117.62 35.5456 117.842 35.7525 118.008C35.9616 118.175 36.2248 118.258 36.5419 118.258ZM41.5879 119.115C41.2596 119.115 40.9627 119.054 40.6973 118.933C40.4319 118.809 40.2216 118.63 40.0665 118.396C39.9135 118.162 39.837 117.875 39.837 117.536C39.837 117.243 39.8933 117.003 40.0057 116.814C40.1182 116.625 40.27 116.475 40.4612 116.365C40.6523 116.255 40.866 116.172 41.1021 116.116C41.3383 116.059 41.5789 116.017 41.8241 115.987C42.1345 115.951 42.3863 115.922 42.5798 115.9C42.7732 115.875 42.9138 115.836 43.0015 115.782C43.0892 115.728 43.133 115.64 43.133 115.518V115.495C43.133 115.2 43.0498 114.972 42.8834 114.81C42.7192 114.648 42.4741 114.567 42.1479 114.567C41.8083 114.567 41.5407 114.642 41.345 114.793C41.1516 114.942 41.0178 115.107 40.9436 115.289L39.9956 115.073C40.1081 114.758 40.2722 114.504 40.4881 114.311C40.7063 114.115 40.9571 113.973 41.2405 113.886C41.5238 113.796 41.8218 113.751 42.1345 113.751C42.3414 113.751 42.5607 113.775 42.7923 113.825C43.0262 113.872 43.2444 113.96 43.4468 114.088C43.6514 114.216 43.819 114.4 43.9494 114.638C44.0799 114.874 44.1451 115.181 44.1451 115.559V119H43.16V118.292H43.1195C43.0543 118.422 42.9565 118.55 42.826 118.676C42.6956 118.802 42.528 118.907 42.3234 118.99C42.1187 119.073 41.8736 119.115 41.5879 119.115ZM41.8072 118.305C42.0861 118.305 42.3245 118.25 42.5224 118.14C42.7226 118.03 42.8744 117.886 42.9778 117.708C43.0836 117.528 43.1364 117.336 43.1364 117.131V116.463C43.1004 116.499 43.0307 116.533 42.9272 116.564C42.826 116.594 42.7102 116.619 42.5798 116.642C42.4493 116.662 42.3223 116.681 42.1986 116.699C42.0749 116.715 41.9714 116.728 41.8882 116.74C41.6925 116.764 41.5137 116.806 41.3518 116.865C41.1921 116.923 41.0639 117.007 40.9672 117.118C40.8727 117.225 40.8255 117.369 40.8255 117.549C40.8255 117.799 40.9177 117.988 41.1021 118.116C41.2866 118.242 41.5216 118.305 41.8072 118.305ZM45.4886 119V113.818H46.4569V114.662H46.521C46.6289 114.376 46.8055 114.153 47.0506 113.994C47.2958 113.832 47.5893 113.751 47.9311 113.751C48.2775 113.751 48.5676 113.832 48.8015 113.994C49.0376 114.156 49.2119 114.378 49.3244 114.662H49.3784C49.5021 114.385 49.6989 114.165 49.9688 114C50.2386 113.834 50.5603 113.751 50.9336 113.751C51.4036 113.751 51.7871 113.898 52.084 114.193C52.3831 114.487 52.5327 114.931 52.5327 115.525V119H51.524V115.62C51.524 115.269 51.4284 115.015 51.2372 114.857C51.046 114.7 50.8178 114.621 50.5524 114.621C50.224 114.621 49.9688 114.722 49.7866 114.925C49.6044 115.125 49.5133 115.382 49.5133 115.697V119H48.508V115.556C48.508 115.274 48.4203 115.048 48.2449 114.877C48.0694 114.707 47.8411 114.621 47.56 114.621C47.3688 114.621 47.1923 114.672 47.0304 114.773C46.8707 114.872 46.7414 115.01 46.6424 115.188C46.5457 115.366 46.4973 115.571 46.4973 115.805V119H45.4886ZM58.0443 120.879C57.347 120.879 56.7286 120.783 56.1888 120.592C55.6513 120.403 55.1981 120.125 54.8292 119.756C54.4604 119.389 54.1804 118.939 53.9892 118.406C53.798 117.873 53.7025 117.265 53.7025 116.581C53.7025 115.915 53.7992 115.317 53.9926 114.786C54.186 114.256 54.4671 113.804 54.836 113.43C55.2071 113.055 55.658 112.768 56.1888 112.57C56.7196 112.372 57.3223 112.273 57.997 112.273C58.6425 112.273 59.2115 112.374 59.7041 112.577C60.1966 112.779 60.6104 113.057 60.9455 113.41C61.2829 113.763 61.537 114.168 61.708 114.624C61.8789 115.081 61.9644 115.563 61.9644 116.072C61.9644 116.427 61.9419 116.775 61.8969 117.114C61.8519 117.452 61.7687 117.757 61.6472 118.032C61.528 118.304 61.3549 118.522 61.1277 118.686C60.9028 118.848 60.6104 118.933 60.2506 118.939C60.0594 118.946 59.8739 118.924 59.6939 118.872C59.514 118.82 59.3611 118.737 59.2351 118.622C59.1092 118.505 59.0327 118.357 59.0057 118.177H58.9652C58.9113 118.31 58.8213 118.433 58.6954 118.548C58.5694 118.66 58.4086 118.75 58.2129 118.818C58.0195 118.883 57.7946 118.91 57.5382 118.899C57.2548 118.888 56.9996 118.823 56.7724 118.706C56.5453 118.59 56.3507 118.428 56.1888 118.221C56.0291 118.014 55.9065 117.769 55.8211 117.485C55.7356 117.202 55.6929 116.887 55.6929 116.541C55.6929 116.208 55.7412 115.91 55.8379 115.647C55.9346 115.381 56.0662 115.153 56.2326 114.962C56.4013 114.768 56.5947 114.615 56.8129 114.503C57.0311 114.391 57.2616 114.32 57.5045 114.29C57.7406 114.263 57.9577 114.27 58.1556 114.311C58.3535 114.351 58.5177 114.413 58.6481 114.496C58.7808 114.579 58.864 114.671 58.8978 114.77H58.9416V114.392H59.7715V117.522C59.7715 117.7 59.8176 117.851 59.9098 117.974C60.0043 118.098 60.1381 118.16 60.3113 118.16C60.516 118.16 60.6756 118.085 60.7904 117.934C60.9073 117.783 60.9894 117.552 61.0366 117.239C61.0861 116.926 61.1108 116.526 61.1108 116.038C61.1108 115.696 61.0647 115.375 60.9725 115.073C60.8826 114.77 60.7487 114.495 60.5711 114.25C60.3956 114.003 60.1797 113.79 59.9233 113.612C59.6669 113.435 59.3746 113.298 59.0462 113.201C58.7201 113.104 58.3591 113.056 57.9633 113.056C57.4258 113.056 56.9478 113.139 56.5295 113.305C56.1112 113.47 55.7581 113.707 55.4702 114.017C55.1846 114.328 54.9676 114.7 54.8191 115.134C54.6729 115.566 54.5998 116.05 54.5998 116.588C54.5998 117.148 54.6752 117.645 54.8259 118.079C54.9765 118.511 55.1992 118.875 55.4938 119.172C55.7885 119.469 56.1528 119.694 56.5869 119.847C57.0209 120.002 57.5214 120.08 58.0881 120.08C58.34 120.08 58.5874 120.057 58.8303 120.012C59.0732 119.969 59.2891 119.92 59.478 119.864C59.6692 119.81 59.812 119.766 59.9065 119.732L60.1426 120.471C60.0032 120.536 59.8176 120.6 59.586 120.663C59.3566 120.726 59.1069 120.778 58.837 120.818C58.5694 120.859 58.3051 120.879 58.0443 120.879ZM57.7339 118.072C58.0263 118.072 58.2613 118.014 58.439 117.897C58.6189 117.78 58.7482 117.606 58.8269 117.374C58.9079 117.14 58.9484 116.848 58.9484 116.497C58.9461 116.155 58.9023 115.883 58.8168 115.68C58.7336 115.476 58.6031 115.33 58.4255 115.242C58.25 115.152 58.024 115.107 57.7474 115.107C57.4932 115.107 57.2762 115.169 57.0963 115.292C56.9186 115.416 56.7825 115.584 56.6881 115.795C56.5959 116.007 56.5486 116.242 56.5464 116.5C56.5486 116.772 56.5869 117.029 56.6611 117.269C56.7376 117.508 56.8613 117.701 57.0322 117.85C57.2054 117.998 57.4393 118.072 57.7339 118.072ZM65.3118 119.105C64.8013 119.105 64.3616 118.996 63.9927 118.777C63.6261 118.557 63.3427 118.248 63.1426 117.85C62.9447 117.449 62.8457 116.98 62.8457 116.443C62.8457 115.912 62.9447 115.444 63.1426 115.039C63.3427 114.635 63.6216 114.319 63.9792 114.091C64.3391 113.864 64.7596 113.751 65.2409 113.751C65.5333 113.751 65.8167 113.799 66.0911 113.896C66.3655 113.992 66.6117 114.144 66.8299 114.351C67.0481 114.558 67.2201 114.827 67.3461 115.157C67.472 115.486 67.535 115.885 67.535 116.355V116.713H63.4158V115.957H66.5465C66.5465 115.692 66.4925 115.457 66.3846 115.252C66.2766 115.045 66.1248 114.882 65.9292 114.763C65.7357 114.644 65.5086 114.584 65.2477 114.584C64.9643 114.584 64.7169 114.654 64.5055 114.793C64.2963 114.93 64.1344 115.11 64.0197 115.333C63.9073 115.553 63.851 115.793 63.851 116.051V116.642C63.851 116.988 63.9118 117.283 64.0332 117.526C64.1569 117.769 64.329 117.954 64.5494 118.082C64.7698 118.208 65.0273 118.271 65.3219 118.271C65.5131 118.271 65.6874 118.244 65.8448 118.19C66.0022 118.134 66.1383 118.051 66.253 117.941C66.3677 117.83 66.4554 117.694 66.5162 117.532L67.4709 117.705C67.3944 117.986 67.2572 118.232 67.0593 118.443C66.8636 118.653 66.6174 118.816 66.3205 118.933C66.0259 119.047 65.6896 119.105 65.3118 119.105ZM68.6542 119V113.818H69.6224V114.662H69.6865C69.7944 114.376 69.971 114.153 70.2161 113.994C70.4613 113.832 70.7548 113.751 71.0966 113.751C71.443 113.751 71.7331 113.832 71.967 113.994C72.2032 114.156 72.3775 114.378 72.4899 114.662H72.5439C72.6676 114.385 72.8644 114.165 73.1343 114C73.4042 113.834 73.7258 113.751 74.0991 113.751C74.5692 113.751 74.9526 113.898 75.2495 114.193C75.5486 114.487 75.6982 114.931 75.6982 115.525V119H74.6895V115.62C74.6895 115.269 74.5939 115.015 74.4027 114.857C74.2116 114.7 73.9833 114.621 73.7179 114.621C73.3895 114.621 73.1343 114.722 72.9521 114.925C72.7699 115.125 72.6788 115.382 72.6788 115.697V119H71.6735V115.556C71.6735 115.274 71.5858 115.048 71.4104 114.877C71.235 114.707 71.0067 114.621 70.7255 114.621C70.5344 114.621 70.3578 114.672 70.1959 114.773C70.0362 114.872 69.9069 115.01 69.8079 115.188C69.7112 115.366 69.6629 115.571 69.6629 115.805V119H68.6542ZM78.5581 119.115C78.2298 119.115 77.9329 119.054 77.6675 118.933C77.4021 118.809 77.1919 118.63 77.0367 118.396C76.8837 118.162 76.8073 117.875 76.8073 117.536C76.8073 117.243 76.8635 117.003 76.9759 116.814C77.0884 116.625 77.2402 116.475 77.4314 116.365C77.6225 116.255 77.8362 116.172 78.0724 116.116C78.3085 116.059 78.5492 116.017 78.7943 115.987C79.1047 115.951 79.3566 115.922 79.55 115.9C79.7434 115.875 79.884 115.836 79.9717 115.782C80.0594 115.728 80.1032 115.64 80.1032 115.518V115.495C80.1032 115.2 80.02 114.972 79.8536 114.81C79.6894 114.648 79.4443 114.567 79.1182 114.567C78.7786 114.567 78.5109 114.642 78.3153 114.793C78.1218 114.942 77.988 115.107 77.9138 115.289L76.9658 115.073C77.0783 114.758 77.2425 114.504 77.4584 114.311C77.6765 114.115 77.9273 113.973 78.2107 113.886C78.4941 113.796 78.7921 113.751 79.1047 113.751C79.3116 113.751 79.5309 113.775 79.7625 113.825C79.9964 113.872 80.2146 113.96 80.417 114.088C80.6217 114.216 80.7892 114.4 80.9197 114.638C81.0501 114.874 81.1153 115.181 81.1153 115.559V119H80.1302V118.292H80.0898C80.0245 118.422 79.9267 118.55 79.7963 118.676C79.6658 118.802 79.4983 118.907 79.2936 118.99C79.0889 119.073 78.8438 119.115 78.5581 119.115ZM78.7774 118.305C79.0563 118.305 79.2947 118.25 79.4926 118.14C79.6928 118.03 79.8446 117.886 79.9481 117.708C80.0538 117.528 80.1066 117.336 80.1066 117.131V116.463C80.0706 116.499 80.0009 116.533 79.8975 116.564C79.7963 116.594 79.6804 116.619 79.55 116.642C79.4195 116.662 79.2925 116.681 79.1688 116.699C79.0451 116.715 78.9416 116.728 78.8584 116.74C78.6627 116.764 78.4839 116.806 78.322 116.865C78.1623 116.923 78.0341 117.007 77.9374 117.118C77.843 117.225 77.7957 117.369 77.7957 117.549C77.7957 117.799 77.8879 117.988 78.0724 118.116C78.2568 118.242 78.4918 118.305 78.7774 118.305ZM82.4589 119V113.818H83.4676V119H82.4589ZM82.9683 113.019C82.7928 113.019 82.6421 112.96 82.5162 112.843C82.3925 112.724 82.3307 112.582 82.3307 112.418C82.3307 112.252 82.3925 112.11 82.5162 111.993C82.6421 111.874 82.7928 111.814 82.9683 111.814C83.1437 111.814 83.2932 111.874 83.4169 111.993C83.5429 112.11 83.6059 112.252 83.6059 112.418C83.6059 112.582 83.5429 112.724 83.4169 112.843C83.2932 112.96 83.1437 113.019 82.9683 113.019ZM85.8333 112.091V119H84.8246V112.091H85.8333ZM87.8549 119.064C87.6705 119.064 87.5119 118.999 87.3792 118.868C87.2465 118.736 87.1802 118.576 87.1802 118.389C87.1802 118.205 87.2465 118.048 87.3792 117.917C87.5119 117.784 87.6705 117.718 87.8549 117.718C88.0393 117.718 88.1979 117.784 88.3306 117.917C88.4633 118.048 88.5296 118.205 88.5296 118.389C88.5296 118.513 88.4981 118.627 88.4351 118.73C88.3744 118.831 88.2935 118.912 88.1922 118.973C88.091 119.034 87.9786 119.064 87.8549 119.064ZM92.0634 119.105C91.5619 119.105 91.1301 118.991 90.768 118.764C90.4081 118.534 90.1315 118.218 89.9381 117.816C89.7447 117.413 89.6479 116.952 89.6479 116.433C89.6479 115.906 89.7469 115.442 89.9448 115.039C90.1427 114.635 90.4216 114.319 90.7815 114.091C91.1413 113.864 91.5653 113.751 92.0533 113.751C92.4469 113.751 92.7977 113.824 93.1059 113.97C93.414 114.114 93.6625 114.316 93.8514 114.577C94.0426 114.838 94.1562 115.143 94.1922 115.491H93.2104C93.1565 115.249 93.0328 115.039 92.8394 114.864C92.6482 114.689 92.3918 114.601 92.0702 114.601C91.789 114.601 91.5428 114.675 91.3314 114.824C91.1222 114.97 90.9591 115.179 90.8422 115.451C90.7252 115.721 90.6668 116.04 90.6668 116.409C90.6668 116.787 90.7241 117.113 90.8388 117.387C90.9535 117.662 91.1155 117.874 91.3246 118.025C91.536 118.176 91.7845 118.251 92.0702 118.251C92.2613 118.251 92.4345 118.216 92.5897 118.146C92.7471 118.075 92.8787 117.972 92.9844 117.839C93.0924 117.707 93.1677 117.547 93.2104 117.36H94.1922C94.1562 117.696 94.0471 117.995 93.8649 118.258C93.6828 118.521 93.4387 118.728 93.1329 118.879C92.8292 119.029 92.4728 119.105 92.0634 119.105ZM97.4536 119.105C96.9678 119.105 96.5438 118.993 96.1817 118.771C95.8196 118.548 95.5385 118.236 95.3383 117.836C95.1382 117.436 95.0381 116.968 95.0381 116.433C95.0381 115.895 95.1382 115.425 95.3383 115.023C95.5385 114.62 95.8196 114.307 96.1817 114.085C96.5438 113.862 96.9678 113.751 97.4536 113.751C97.9394 113.751 98.3633 113.862 98.7254 114.085C99.0875 114.307 99.3686 114.62 99.5688 115.023C99.769 115.425 99.8691 115.895 99.8691 116.433C99.8691 116.968 99.769 117.436 99.5688 117.836C99.3686 118.236 99.0875 118.548 98.7254 118.771C98.3633 118.993 97.9394 119.105 97.4536 119.105ZM97.4569 118.258C97.7718 118.258 98.0327 118.175 98.2396 118.008C98.4465 117.842 98.5995 117.62 98.6984 117.344C98.7996 117.067 98.8502 116.762 98.8502 116.429C98.8502 116.099 98.7996 115.795 98.6984 115.518C98.5995 115.24 98.4465 115.016 98.2396 114.847C98.0327 114.678 97.7718 114.594 97.4569 114.594C97.1398 114.594 96.8767 114.678 96.6675 114.847C96.4606 115.016 96.3066 115.24 96.2053 115.518C96.1064 115.795 96.0569 116.099 96.0569 116.429C96.0569 116.762 96.1064 117.067 96.2053 117.344C96.3066 117.62 96.4606 117.842 96.6675 118.008C96.8767 118.175 97.1398 118.258 97.4569 118.258ZM100.995 119V113.818H101.963V114.662H102.027C102.135 114.376 102.312 114.153 102.557 113.994C102.802 113.832 103.096 113.751 103.437 113.751C103.784 113.751 104.074 113.832 104.308 113.994C104.544 114.156 104.718 114.378 104.831 114.662H104.885C105.008 114.385 105.205 114.165 105.475 114C105.745 113.834 106.067 113.751 106.44 113.751C106.91 113.751 107.293 113.898 107.59 114.193C107.889 114.487 108.039 114.931 108.039 115.525V119H107.03V115.62C107.03 115.269 106.935 115.015 106.744 114.857C106.552 114.7 106.324 114.621 106.059 114.621C105.73 114.621 105.475 114.722 105.293 114.925C105.111 115.125 105.02 115.382 105.02 115.697V119H104.014V115.556C104.014 115.274 103.927 115.048 103.751 114.877C103.576 114.707 103.347 114.621 103.066 114.621C102.875 114.621 102.699 114.672 102.537 114.773C102.377 114.872 102.248 115.01 102.149 115.188C102.052 115.366 102.004 115.571 102.004 115.805V119H100.995Z" fill="black"/>
<path d="M316 76H1V103H316" stroke="#005B99" stroke-width="2"/>
</svg>
