<svg width="319" height="130" viewBox="0 0 319 130" fill="none" xmlns="http://www.w3.org/2000/svg">
<rect x="1" y="1" width="317" height="128" rx="6" fill="white" stroke="#26374A" stroke-width="2"/>
<line x1="12" y1="99.5" x2="307" y2="99.5" stroke="#CCCCCC"/>
<path d="M303.774 104.084H305.907V108.353H303.774V104.084ZM300.081 106.218L299.958 106.26C299.958 106.26 300.697 106.875 300.697 106.916C300.738 106.957 300.779 106.957 300.738 107.08C300.697 107.204 300.655 107.327 300.655 107.327C300.655 107.327 301.312 107.204 301.394 107.163C301.476 107.163 301.517 107.163 301.517 107.245C301.517 107.327 301.476 108.025 301.476 108.025H301.681C301.681 108.025 301.64 107.286 301.64 107.245C301.64 107.163 301.681 107.163 301.763 107.163C301.845 107.163 302.502 107.327 302.502 107.327C302.502 107.327 302.461 107.163 302.42 107.08C302.379 106.957 302.42 106.957 302.461 106.916C302.502 106.875 303.199 106.26 303.199 106.26L303.076 106.218C302.994 106.177 303.035 106.136 303.035 106.095C303.035 106.054 303.158 105.644 303.158 105.644C303.158 105.644 302.83 105.726 302.789 105.726C302.748 105.726 302.707 105.726 302.707 105.685C302.707 105.644 302.625 105.48 302.625 105.48C302.625 105.48 302.256 105.89 302.215 105.931C302.133 106.013 302.05 105.931 302.091 105.849C302.091 105.767 302.297 104.905 302.297 104.905C302.297 104.905 302.091 105.028 302.009 105.069C301.927 105.11 301.886 105.11 301.886 105.028C301.845 104.946 301.599 104.494 301.599 104.453C301.599 104.453 301.353 104.946 301.312 105.028C301.271 105.11 301.23 105.11 301.189 105.069C301.107 105.028 300.902 104.905 300.902 104.905C300.902 104.905 301.107 105.767 301.107 105.849C301.107 105.931 301.066 105.972 300.984 105.931L300.573 105.48C300.573 105.48 300.532 105.603 300.491 105.644C300.491 105.685 300.45 105.726 300.409 105.685C300.327 105.685 299.999 105.603 299.999 105.603C299.999 105.603 300.122 106.013 300.163 106.054C300.163 106.095 300.163 106.177 300.081 106.218ZM297.332 104.084H299.466V108.353H297.332V104.084Z" fill="#FF0000"/>
<path d="M306.386 116.891C306.222 117.261 305.893 117.384 305.688 117.384C305.442 117.384 304.703 117.343 304.703 115.414C304.703 115.414 304.703 111.514 304.703 111.268C304.703 109.995 303.719 108.969 301.175 108.969C298.426 108.969 298.385 110.324 298.385 110.652C298.344 111.021 298.549 111.432 299.247 111.432C299.862 111.432 300.026 110.734 300.108 110.488C300.19 110.201 300.231 109.38 301.339 109.38C302.283 109.38 302.857 110.201 302.898 111.391C302.898 111.596 302.898 111.719 302.898 111.842C302.898 111.925 302.898 111.966 302.898 112.048V112.089C302.816 112.499 302.611 112.704 302.242 112.869C301.749 113.115 300.313 113.32 300.149 113.361C299.575 113.484 297.975 113.895 298.016 115.578C298.057 117.22 299.698 117.794 300.847 117.753C301.955 117.712 302.611 117.261 302.898 117.014C303.062 116.891 303.062 116.891 303.185 117.055C303.349 117.22 303.883 117.753 305.155 117.753C306.468 117.753 306.632 117.138 306.714 116.932C306.755 116.809 306.468 116.686 306.386 116.891ZM301.257 117.343C300.108 117.343 299.821 116.399 299.821 115.906C299.821 115.455 300.067 114.51 301.216 113.854C301.216 113.854 301.749 113.525 302.775 113.115C302.816 113.115 302.857 113.115 302.857 113.115C302.857 113.115 302.898 113.156 302.898 113.197V113.238V113.279V115.003C302.898 116.358 302.242 117.343 301.257 117.343ZM297.482 117.302C297.318 117.261 296.293 117.384 296.293 114.264C296.293 111.145 296.293 104.454 296.293 104.454C296.293 104.331 296.293 104.002 295.923 104.002C295.554 104.002 293.092 104.126 292.928 104.167C292.764 104.167 292.641 104.372 292.928 104.372C293.215 104.413 294.528 104.495 294.528 106.67C294.528 107.738 294.528 108.805 294.528 109.585C294.528 109.626 294.528 109.667 294.528 109.667C294.528 109.749 294.528 109.79 294.487 109.831C294.487 109.831 294.487 109.831 294.487 109.872C294.446 109.913 294.405 109.872 294.282 109.79C294.077 109.626 293.133 109.051 291.943 109.051C290.015 109.051 287.635 110.447 287.635 113.32C287.635 116.399 289.81 117.876 292.067 117.876C293.174 117.876 293.954 117.384 294.241 117.22C294.569 117.014 294.528 117.055 294.569 117.343C294.61 117.548 294.569 117.958 295.144 117.917C295.759 117.835 297.236 117.671 297.523 117.63C297.811 117.507 297.729 117.343 297.482 117.302ZM292.395 117.425C290.589 117.425 289.646 115.29 289.646 113.238C289.646 110.98 290.918 109.462 292.272 109.544C294.036 109.667 294.487 111.063 294.528 113.566C294.528 113.731 294.528 113.895 294.528 114.1C294.487 116.563 293.462 117.425 292.395 117.425ZM287.594 116.891C287.43 117.261 287.102 117.384 286.897 117.384C286.651 117.384 285.912 117.343 285.912 115.414C285.912 115.414 285.912 111.514 285.912 111.268C285.912 109.995 284.927 108.969 282.384 108.969C279.635 108.969 279.594 110.324 279.594 110.652C279.553 111.021 279.758 111.432 280.455 111.432C281.071 111.432 281.235 110.734 281.317 110.488C281.399 110.201 281.44 109.38 282.548 109.38C283.491 109.38 284.107 110.201 284.107 111.432V111.473C284.107 111.514 284.107 111.555 284.107 111.555V111.678C284.107 111.719 284.107 111.801 284.107 111.842C284.066 112.458 283.902 112.663 283.409 112.91C282.917 113.156 281.481 113.361 281.317 113.402C280.743 113.525 279.142 113.936 279.183 115.619C279.224 117.261 280.866 117.835 282.014 117.794C283.122 117.753 283.779 117.302 284.066 117.055C284.23 116.932 284.23 116.932 284.353 117.096C284.517 117.261 285.051 117.794 286.322 117.794C287.635 117.794 287.8 117.179 287.882 116.973C287.964 116.809 287.717 116.686 287.594 116.891ZM282.507 117.343C281.358 117.343 281.071 116.399 281.071 115.906C281.071 115.455 281.317 114.51 282.466 113.854C282.466 113.854 282.999 113.525 284.025 113.115C284.066 113.115 284.107 113.115 284.107 113.115V113.156C284.107 113.197 284.107 113.238 284.107 113.32V113.279C284.107 113.279 284.107 113.279 284.107 113.32V115.044C284.107 116.358 283.45 117.343 282.507 117.343ZM278.568 117.302C278.24 117.22 277.665 116.85 277.665 115.044V111.76C277.665 110.98 277.747 108.969 274.67 108.969C273.07 108.969 272.167 109.79 272.085 109.831C271.962 109.954 271.88 109.995 271.839 109.79C271.798 109.626 271.716 109.38 271.675 109.215C271.634 109.092 271.552 108.969 271.265 109.01C270.978 109.051 269.172 109.339 268.844 109.421C268.557 109.503 268.639 109.626 268.844 109.667C269.049 109.708 270.034 109.79 270.034 111.473C270.034 113.156 270.034 115.003 270.034 115.003C270.034 117.055 269.624 117.22 269.254 117.343C268.762 117.466 269.008 117.63 269.213 117.63C269.213 117.63 272.865 117.63 272.947 117.63C273.193 117.63 273.316 117.384 272.824 117.302C272.332 117.22 271.88 116.932 271.88 115.331C271.88 115.167 271.88 113.402 271.88 113.074C271.88 112.212 271.675 109.585 274.055 109.544C275.737 109.503 275.901 110.898 275.901 111.801V115.29C275.901 116.727 275.491 117.179 274.998 117.261C274.547 117.343 274.629 117.548 274.875 117.548C274.957 117.548 278.691 117.548 278.691 117.548C278.896 117.63 279.101 117.425 278.568 117.302ZM268.598 116.891C268.434 117.261 268.106 117.384 267.9 117.384C267.654 117.384 266.916 117.343 266.916 115.414C266.916 115.414 266.916 111.514 266.916 111.268C266.916 109.995 265.931 108.969 263.387 108.969C260.638 108.969 260.597 110.324 260.597 110.652C260.556 111.021 260.761 111.432 261.459 111.432C262.074 111.432 262.238 110.734 262.321 110.488C262.403 110.201 262.444 109.38 263.551 109.38C264.495 109.38 265.069 110.201 265.11 111.391C265.11 111.596 265.11 111.719 265.11 111.842C265.11 111.925 265.11 112.007 265.069 112.048V112.089C264.987 112.499 264.782 112.704 264.413 112.869C263.921 113.115 262.485 113.32 262.321 113.361C261.746 113.484 260.146 113.895 260.187 115.578C260.228 117.22 261.869 117.794 263.018 117.753C264.126 117.712 264.782 117.261 265.069 117.014C265.234 116.891 265.234 116.891 265.357 117.055C265.521 117.22 266.054 117.753 267.326 117.753C268.639 117.753 268.803 117.138 268.885 116.932C268.967 116.809 268.68 116.686 268.598 116.891ZM263.469 117.343C262.321 117.343 262.033 116.399 262.033 115.906C262.033 115.414 262.279 114.51 263.428 113.854C263.428 113.854 263.962 113.525 264.987 113.115C265.028 113.115 265.069 113.115 265.069 113.115C265.069 113.115 265.11 113.156 265.11 113.197C265.11 113.197 265.11 113.238 265.11 113.279V113.32V115.044C265.11 116.358 264.454 117.343 263.469 117.343ZM259.531 113.772C259.12 115.085 258.341 117.22 255.51 117.302C252.556 117.343 250.791 115.331 250.709 111.596C250.586 107.615 252.309 104.577 254.976 104.495C257.971 104.454 259.038 108.025 259.079 108.559C259.12 108.969 259.654 108.928 259.654 108.518C259.654 108.312 259.407 104.782 259.325 104.372C259.243 103.961 258.915 104.126 258.833 104.29C258.792 104.413 258.874 104.167 258.71 104.536C258.546 104.905 258.095 104.7 257.93 104.659C257.438 104.454 256.494 103.961 254.976 104.002C251.489 104.085 247.919 106.67 248.001 111.186C248.083 115.578 251.612 118.041 254.894 117.999C257.889 117.958 259.572 116.07 260.064 113.895C260.228 113.361 259.695 113.238 259.531 113.772Z" fill="black"/>
<rect width="295" height="80" transform="translate(12 12)" fill="#B9DEF8"/>
<rect x="27.5" y="23.5" width="199" height="25" fill="white" stroke="black"/>
<path d="M34.3849 42.0455C34.2263 42.0455 34.0819 42.0324 33.9517 42.0064C33.8215 41.9827 33.7244 41.9567 33.6605 41.9283L33.9162 41.0582C34.1103 41.1103 34.2831 41.1328 34.4347 41.1257C34.5862 41.1186 34.7199 41.0618 34.8359 40.9553C34.9543 40.8487 35.0585 40.6747 35.1484 40.4332L35.2798 40.071L33.2841 34.5455H34.4205L35.8018 38.7784H35.8587L37.2401 34.5455H38.38L36.1321 40.728C36.0279 41.0121 35.8954 41.2524 35.7344 41.4489C35.5734 41.6477 35.3816 41.7969 35.1591 41.8963C34.9366 41.9957 34.6785 42.0455 34.3849 42.0455ZM41.4899 40.1101C40.9785 40.1101 40.5323 39.9929 40.1511 39.7585C39.7699 39.5241 39.474 39.1963 39.2633 38.7749C39.0526 38.3535 38.9473 37.861 38.9473 37.2976C38.9473 36.7318 39.0526 36.237 39.2633 35.8132C39.474 35.3894 39.7699 35.0604 40.1511 34.826C40.5323 34.5916 40.9785 34.4744 41.4899 34.4744C42.0012 34.4744 42.4475 34.5916 42.8287 34.826C43.2098 35.0604 43.5057 35.3894 43.7164 35.8132C43.9271 36.237 44.0325 36.7318 44.0325 37.2976C44.0325 37.861 43.9271 38.3535 43.7164 38.7749C43.5057 39.1963 43.2098 39.5241 42.8287 39.7585C42.4475 39.9929 42.0012 40.1101 41.4899 40.1101ZM41.4934 39.2188C41.8249 39.2188 42.0995 39.1312 42.3173 38.956C42.5351 38.7808 42.6961 38.5476 42.8002 38.2564C42.9068 37.9652 42.96 37.6444 42.96 37.294C42.96 36.946 42.9068 36.6264 42.8002 36.3352C42.6961 36.0417 42.5351 35.8061 42.3173 35.6286C42.0995 35.451 41.8249 35.3622 41.4934 35.3622C41.1596 35.3622 40.8826 35.451 40.6625 35.6286C40.4447 35.8061 40.2825 36.0417 40.176 36.3352C40.0718 36.6264 40.0197 36.946 40.0197 37.294C40.0197 37.6444 40.0718 37.9652 40.176 38.2564C40.2825 38.5476 40.4447 38.7808 40.6625 38.956C40.8826 39.1312 41.1596 39.2188 41.4934 39.2188ZM48.6729 37.7379V34.5455H49.7383V40H48.6942V39.0554H48.6374C48.512 39.3466 48.3107 39.5893 48.0337 39.7834C47.7591 39.9751 47.417 40.071 47.0075 40.071C46.6571 40.071 46.3469 39.9941 46.0771 39.8402C45.8095 39.6839 45.5988 39.4531 45.445 39.1477C45.2934 38.8423 45.2177 38.4647 45.2177 38.0149V34.5455H46.2795V37.8871C46.2795 38.2588 46.3825 38.5547 46.5884 38.7749C46.7944 38.995 47.0619 39.1051 47.391 39.1051C47.5898 39.1051 47.7875 39.0554 47.984 38.956C48.1829 38.8565 48.3474 38.7062 48.4776 38.505C48.6102 38.3037 48.6753 38.0481 48.6729 37.7379ZM51.165 40V34.5455H52.1912V35.4119H52.248C52.3475 35.1184 52.5227 34.8875 52.7736 34.7195C53.0269 34.549 53.3134 34.4638 53.633 34.4638C53.6993 34.4638 53.7774 34.4661 53.8674 34.4709C53.9597 34.4756 54.0319 34.4815 54.084 34.4886V35.5043C54.0414 35.4924 53.9656 35.4794 53.8567 35.4652C53.7478 35.4486 53.6389 35.4403 53.53 35.4403C53.2791 35.4403 53.0553 35.4936 52.8588 35.6001C52.6647 35.7043 52.5108 35.8499 52.3972 36.0369C52.2836 36.2216 52.2267 36.4323 52.2267 36.669V40H51.165ZM59.3814 41.978C58.6475 41.978 57.9964 41.8774 57.4283 41.6761C56.8625 41.4773 56.3854 41.1837 55.9972 40.7955C55.6089 40.4096 55.3142 39.9361 55.1129 39.375C54.9117 38.8139 54.8111 38.1735 54.8111 37.4538C54.8111 36.7531 54.9129 36.1233 55.1165 35.5646C55.3201 35.0059 55.616 34.5301 56.0043 34.1371C56.3949 33.7417 56.8696 33.4399 57.4283 33.2315C57.987 33.0232 58.6214 32.919 59.3317 32.919C60.0111 32.919 60.6101 33.0256 61.1286 33.2386C61.647 33.4517 62.0826 33.7441 62.4354 34.1158C62.7905 34.4875 63.058 34.9136 63.2379 35.3942C63.4179 35.8748 63.5078 36.3826 63.5078 36.9176C63.5078 37.2917 63.4841 37.6574 63.4368 38.0149C63.3894 38.37 63.3018 38.692 63.174 38.9808C63.0485 39.2673 62.8662 39.4969 62.6271 39.6697C62.3904 39.8402 62.0826 39.929 61.7038 39.9361C61.5026 39.9432 61.3073 39.9195 61.1179 39.8651C60.9285 39.8106 60.7675 39.723 60.6349 39.6023C60.5024 39.4792 60.4219 39.3229 60.3935 39.1335H60.3509C60.294 39.2732 60.1993 39.4034 60.0668 39.5241C59.9342 39.6425 59.7649 39.7372 59.5589 39.8082C59.3554 39.8769 59.1186 39.9053 58.8487 39.8935C58.5504 39.8816 58.2817 39.8142 58.0426 39.6911C57.8035 39.5679 57.5987 39.3975 57.4283 39.1797C57.2602 38.9619 57.1312 38.7038 57.0412 38.4055C56.9512 38.1072 56.9062 37.7758 56.9062 37.4112C56.9062 37.0608 56.9571 36.7472 57.0589 36.4702C57.1607 36.1908 57.2992 35.9505 57.4744 35.7493C57.652 35.5457 57.8556 35.3847 58.0852 35.2663C58.3149 35.148 58.5575 35.0734 58.8132 35.0426C59.0618 35.0142 59.2902 35.0213 59.4986 35.0639C59.7069 35.1065 59.8797 35.1716 60.017 35.2592C60.1567 35.3468 60.2443 35.4427 60.2798 35.5469H60.326V35.1491H61.1996V38.4446C61.1996 38.6316 61.2481 38.7902 61.3452 38.9205C61.4446 39.0507 61.5855 39.1158 61.7678 39.1158C61.9832 39.1158 62.1513 39.0365 62.272 38.8778C62.3951 38.7192 62.4815 38.4754 62.5312 38.1463C62.5833 37.8172 62.6094 37.3958 62.6094 36.8821C62.6094 36.5223 62.5608 36.1837 62.4638 35.8665C62.3691 35.5469 62.2282 35.258 62.0412 35C61.8565 34.7396 61.6293 34.5159 61.3594 34.3288C61.0895 34.1418 60.7817 33.9974 60.4361 33.8956C60.0928 33.7938 59.7128 33.7429 59.2962 33.7429C58.7304 33.7429 58.2273 33.8305 57.7869 34.0057C57.3466 34.1785 56.9749 34.4283 56.6719 34.755C56.3712 35.0817 56.1428 35.4735 55.9865 35.9304C55.8326 36.3849 55.7557 36.8951 55.7557 37.4609C55.7557 38.0504 55.835 38.5736 55.9936 39.0305C56.1522 39.4851 56.3866 39.8686 56.6967 40.1811C57.0069 40.4936 57.3904 40.7304 57.8473 40.8913C58.3042 41.0547 58.831 41.1364 59.4276 41.1364C59.6927 41.1364 59.9531 41.1127 60.2088 41.0653C60.4645 41.0204 60.6918 40.9683 60.8906 40.9091C61.0919 40.8523 61.2422 40.8061 61.3416 40.7706L61.5902 41.5483C61.4434 41.617 61.2481 41.6844 61.0043 41.7507C60.7628 41.817 60.5 41.8714 60.2159 41.9141C59.9342 41.9567 59.656 41.978 59.3814 41.978ZM59.0547 39.0234C59.3625 39.0234 59.6098 38.9619 59.7969 38.8388C59.9863 38.7157 60.1224 38.5322 60.2053 38.2884C60.2905 38.0421 60.3331 37.7344 60.3331 37.3651C60.3307 37.0052 60.2846 36.7187 60.1946 36.5057C60.107 36.2902 59.9697 36.1364 59.7827 36.044C59.598 35.9493 59.3601 35.902 59.0689 35.902C58.8014 35.902 58.5729 35.9671 58.3835 36.0973C58.1965 36.2275 58.0533 36.4039 57.9538 36.6264C57.8568 36.849 57.8071 37.0964 57.8047 37.3686C57.8071 37.6551 57.8473 37.925 57.9254 38.1783C58.0059 38.4292 58.1361 38.6328 58.3161 38.7891C58.4983 38.9453 58.7446 39.0234 59.0547 39.0234ZM68.7679 35.8771L67.8056 36.0476C67.7653 35.9245 67.7014 35.8073 67.6138 35.696C67.5286 35.5848 67.4126 35.4936 67.2658 35.4226C67.119 35.3516 66.9355 35.3161 66.7154 35.3161C66.4147 35.3161 66.1638 35.3835 65.9625 35.5185C65.7613 35.651 65.6607 35.8227 65.6607 36.0334C65.6607 36.2157 65.7282 36.3625 65.8631 36.4737C65.998 36.585 66.2158 36.6761 66.5165 36.7472L67.383 36.946C67.8849 37.062 68.2589 37.2408 68.5051 37.4822C68.7514 37.7237 68.8745 38.0374 68.8745 38.4233C68.8745 38.75 68.7798 39.0412 68.5904 39.2969C68.4034 39.5502 68.1417 39.7491 67.8056 39.8935C67.4718 40.0379 67.0847 40.1101 66.6444 40.1101C66.0336 40.1101 65.5352 39.9799 65.1493 39.7195C64.7634 39.4567 64.5267 39.0838 64.4391 38.6009L65.4654 38.4446C65.5293 38.7121 65.6607 38.9145 65.8596 39.0518C66.0584 39.1868 66.3176 39.2543 66.6373 39.2543C66.9853 39.2543 67.2634 39.1821 67.4718 39.0376C67.6801 38.8909 67.7843 38.7121 67.7843 38.5014C67.7843 38.331 67.7203 38.1877 67.5925 38.0717C67.467 37.9557 67.2741 37.8681 67.0137 37.8089L66.0904 37.6065C65.5814 37.4905 65.205 37.3059 64.9611 37.0526C64.7196 36.7992 64.5989 36.4785 64.5989 36.0902C64.5989 35.7682 64.6889 35.4865 64.8688 35.245C65.0487 35.0036 65.2973 34.8153 65.6145 34.6804C65.9318 34.5431 66.2952 34.4744 66.7047 34.4744C67.2942 34.4744 67.7582 34.6023 68.0968 34.858C68.4353 35.1113 68.659 35.451 68.7679 35.8771ZM73.4972 37.7379V34.5455H74.5625V40H73.5185V39.0554H73.4616C73.3362 39.3466 73.1349 39.5893 72.858 39.7834C72.5833 39.9751 72.2412 40.071 71.8317 40.071C71.4813 40.071 71.1712 39.9941 70.9013 39.8402C70.6338 39.6839 70.4231 39.4531 70.2692 39.1477C70.1177 38.8423 70.0419 38.4647 70.0419 38.0149V34.5455H71.1037V37.8871C71.1037 38.2588 71.2067 38.5547 71.4126 38.7749C71.6186 38.995 71.8861 39.1051 72.2152 39.1051C72.4141 39.1051 72.6117 39.0554 72.8082 38.956C73.0071 38.8565 73.1716 38.7062 73.3018 38.505C73.4344 38.3037 73.4995 38.0481 73.4972 37.7379ZM76.0744 40V32.7273H77.1362V35.4297H77.2001C77.2617 35.3161 77.3504 35.1847 77.4664 35.0355C77.5824 34.8864 77.7434 34.7562 77.9494 34.6449C78.1554 34.5312 78.4276 34.4744 78.7662 34.4744C79.2065 34.4744 79.5995 34.5857 79.9451 34.8082C80.2908 35.0308 80.5618 35.3516 80.7583 35.7706C80.9572 36.1896 81.0566 36.6939 81.0566 37.2834C81.0566 37.8729 80.9584 38.3783 80.7619 38.7997C80.5654 39.2187 80.2955 39.5419 79.9522 39.7692C79.609 39.9941 79.2172 40.1065 78.7768 40.1065C78.4454 40.1065 78.1743 40.0509 77.9636 39.9396C77.7553 39.8284 77.5919 39.6982 77.4735 39.549C77.3552 39.3999 77.264 39.2673 77.2001 39.1513H77.1113V40H76.0744ZM77.1149 37.2727C77.1149 37.6562 77.1705 37.9924 77.2818 38.2812C77.3931 38.5701 77.554 38.7962 77.7647 38.9595C77.9754 39.1205 78.2335 39.201 78.5389 39.201C78.8561 39.201 79.1213 39.117 79.3343 38.9489C79.5474 38.7784 79.7084 38.5476 79.8173 38.2564C79.9286 37.9652 79.9842 37.6373 79.9842 37.2727C79.9842 36.9129 79.9297 36.5897 79.8208 36.3033C79.7143 36.0168 79.5533 35.7907 79.3379 35.625C79.1248 35.4593 78.8585 35.3764 78.5389 35.3764C78.2311 35.3764 77.9707 35.4557 77.7576 35.6143C77.5469 35.773 77.3871 35.9943 77.2782 36.2784C77.1693 36.5625 77.1149 36.8939 77.1149 37.2727ZM82.9485 40.0675C82.7544 40.0675 82.5875 39.9988 82.4478 39.8615C82.3081 39.7218 82.2383 39.5537 82.2383 39.3572C82.2383 39.1631 82.3081 38.9974 82.4478 38.8601C82.5875 38.7204 82.7544 38.6506 82.9485 38.6506C83.1426 38.6506 83.3095 38.7204 83.4492 38.8601C83.5889 38.9974 83.6587 39.1631 83.6587 39.3572C83.6587 39.4875 83.6256 39.607 83.5593 39.7159C83.4954 39.8224 83.4102 39.9077 83.3036 39.9716C83.1971 40.0355 83.0787 40.0675 82.9485 40.0675ZM87.3786 40.1101C86.8506 40.1101 86.3961 39.9905 86.0149 39.7514C85.6361 39.5099 85.3449 39.1773 85.1413 38.7536C84.9377 38.3298 84.8359 37.8445 84.8359 37.2976C84.8359 36.7436 84.9401 36.2547 85.1484 35.831C85.3568 35.4048 85.6503 35.0722 86.0291 34.8331C86.4079 34.594 86.8542 34.4744 87.3679 34.4744C87.7822 34.4744 88.1515 34.5514 88.4759 34.7053C88.8002 34.8568 89.0618 35.0698 89.2607 35.3445C89.4619 35.6191 89.5814 35.9399 89.6193 36.3068H88.5859C88.5291 36.0511 88.3989 35.831 88.1953 35.6463C87.9941 35.4616 87.7242 35.3693 87.3857 35.3693C87.0897 35.3693 86.8305 35.4474 86.608 35.6037C86.3878 35.7576 86.2161 35.9777 86.093 36.2642C85.9699 36.5483 85.9084 36.8845 85.9084 37.2727C85.9084 37.6705 85.9688 38.0137 86.0895 38.3026C86.2102 38.5914 86.3807 38.8151 86.6009 38.9737C86.8234 39.1323 87.085 39.2116 87.3857 39.2116C87.5869 39.2116 87.7692 39.175 87.9325 39.1016C88.0982 39.0258 88.2367 38.9181 88.348 38.7784C88.4616 38.6387 88.541 38.4706 88.5859 38.2741H89.6193C89.5814 38.6269 89.4666 38.9418 89.2749 39.2188C89.0831 39.4957 88.8262 39.7135 88.5043 39.8722C88.1847 40.0308 87.8094 40.1101 87.3786 40.1101ZM92.3422 40.1207C91.9965 40.1207 91.684 40.0568 91.4047 39.929C91.1253 39.7988 90.9039 39.6106 90.7406 39.3643C90.5796 39.1181 90.4991 38.8163 90.4991 38.4588C90.4991 38.151 90.5583 37.8977 90.6767 37.6989C90.795 37.5 90.9548 37.3426 91.1561 37.2266C91.3573 37.1106 91.5822 37.023 91.8308 36.9638C92.0794 36.9046 92.3327 36.8596 92.5907 36.8288C92.9174 36.791 93.1826 36.7602 93.3862 36.7365C93.5898 36.7105 93.7377 36.669 93.8301 36.6122C93.9224 36.5554 93.9686 36.4631 93.9686 36.3352V36.3104C93.9686 36.0002 93.881 35.7599 93.7058 35.5895C93.533 35.419 93.2749 35.3338 92.9316 35.3338C92.5742 35.3338 92.2924 35.4131 92.0865 35.5717C91.8829 35.728 91.742 35.902 91.6639 36.0938L90.666 35.8665C90.7844 35.535 90.9572 35.2675 91.1845 35.0639C91.4141 34.858 91.6781 34.7088 91.9764 34.6165C92.2747 34.5218 92.5884 34.4744 92.9174 34.4744C93.1352 34.4744 93.3661 34.5005 93.6099 34.5526C93.8561 34.6023 94.0858 34.6946 94.2988 34.8295C94.5143 34.9645 94.6906 35.1574 94.8279 35.4084C94.9653 35.657 95.0339 35.9801 95.0339 36.3778V40H93.997V39.2543H93.9544C93.8857 39.3916 93.7827 39.5265 93.6454 39.6591C93.5081 39.7917 93.3317 39.9018 93.1163 39.9893C92.9009 40.0769 92.6428 40.1207 92.3422 40.1207ZM92.573 39.2685C92.8665 39.2685 93.1175 39.2105 93.3258 39.0945C93.5365 38.9785 93.6963 38.8269 93.8052 38.6399C93.9165 38.4505 93.9721 38.2481 93.9721 38.0327V37.3295C93.9342 37.3674 93.8609 37.4029 93.752 37.4361C93.6454 37.4669 93.5235 37.4941 93.3862 37.5178C93.2489 37.5391 93.1151 37.5592 92.9849 37.5781C92.8547 37.5947 92.7458 37.6089 92.6582 37.6207C92.4522 37.6468 92.264 37.6906 92.0936 37.7521C91.9255 37.8137 91.7905 37.9025 91.6887 38.0185C91.5893 38.1321 91.5396 38.2836 91.5396 38.473C91.5396 38.7358 91.6367 38.9347 91.8308 39.0696C92.0249 39.2022 92.2723 39.2685 92.573 39.2685Z" fill="black"/>
<rect x="27" y="55" width="69" height="26" rx="3" fill="#26374A"/>
<path d="M41.7656 66.6378C41.7277 66.3016 41.5715 66.0412 41.2969 65.8565C41.0223 65.6695 40.6766 65.576 40.2599 65.576C39.9616 65.576 39.7036 65.6233 39.4858 65.718C39.268 65.8104 39.0987 65.9382 38.978 66.1016C38.8596 66.2625 38.8004 66.446 38.8004 66.652C38.8004 66.8248 38.8407 66.974 38.9212 67.0994C39.004 67.2249 39.1117 67.3303 39.2443 67.4155C39.3793 67.4983 39.5237 67.5682 39.6776 67.625C39.8314 67.6795 39.9794 67.7244 40.1214 67.7599L40.8317 67.9446C41.0637 68.0014 41.3016 68.0784 41.5455 68.1754C41.7893 68.2725 42.0154 68.4003 42.2237 68.5589C42.4321 68.7176 42.6001 68.9141 42.728 69.1484C42.8582 69.3828 42.9233 69.6634 42.9233 69.9901C42.9233 70.402 42.8168 70.7678 42.6037 71.0874C42.393 71.407 42.0864 71.6591 41.6839 71.8438C41.2839 72.0284 40.7997 72.1207 40.2315 72.1207C39.687 72.1207 39.2159 72.0343 38.8182 71.8615C38.4205 71.6887 38.1091 71.4437 37.8842 71.1264C37.6593 70.8068 37.535 70.428 37.5114 69.9901H38.6122C38.6335 70.2528 38.7188 70.4718 38.8679 70.647C39.0194 70.8198 39.2124 70.9489 39.4467 71.0341C39.6835 71.117 39.9427 71.1584 40.2244 71.1584C40.5346 71.1584 40.8104 71.1098 41.0518 71.0128C41.2957 70.9134 41.4875 70.776 41.6271 70.6009C41.7668 70.4233 41.8366 70.2161 41.8366 69.9794C41.8366 69.764 41.7751 69.5876 41.652 69.4503C41.5313 69.313 41.3667 69.1993 41.1584 69.1094C40.9524 69.0194 40.7192 68.9401 40.4588 68.8714L39.5994 68.6371C39.017 68.4785 38.5554 68.2453 38.2145 67.9375C37.8759 67.6297 37.7067 67.2225 37.7067 66.7159C37.7067 66.2969 37.8203 65.9311 38.0476 65.6186C38.2749 65.3061 38.5826 65.0634 38.9709 64.8906C39.3591 64.7154 39.7971 64.6278 40.2848 64.6278C40.7772 64.6278 41.2116 64.7143 41.5881 64.8871C41.9669 65.0599 42.2652 65.2978 42.483 65.6009C42.7008 65.9015 42.8144 66.2472 42.8239 66.6378H41.7656ZM47.6046 69.7379V66.5455H48.6699V72H47.6259V71.0554H47.5691C47.4436 71.3466 47.2424 71.5893 46.9654 71.7834C46.6908 71.9751 46.3487 72.071 45.9391 72.071C45.5887 72.071 45.2786 71.9941 45.0087 71.8402C44.7412 71.6839 44.5305 71.4531 44.3766 71.1477C44.2251 70.8423 44.1493 70.4647 44.1493 70.0149V66.5455H45.2111V69.8871C45.2111 70.2588 45.3141 70.5547 45.5201 70.7749C45.726 70.995 45.9935 71.1051 46.3226 71.1051C46.5215 71.1051 46.7192 71.0554 46.9157 70.956C47.1145 70.8565 47.2791 70.7062 47.4093 70.505C47.5418 70.3037 47.6069 70.0481 47.6046 69.7379ZM50.1818 72V64.7273H51.2436V67.4297H51.3075C51.3691 67.3161 51.4579 67.1847 51.5739 67.0355C51.6899 66.8864 51.8509 66.7562 52.0568 66.6449C52.2628 66.5312 52.535 66.4744 52.8736 66.4744C53.3139 66.4744 53.7069 66.5857 54.0526 66.8082C54.3982 67.0308 54.6693 67.3516 54.8658 67.7706C55.0646 68.1896 55.1641 68.6939 55.1641 69.2834C55.1641 69.8729 55.0658 70.3783 54.8693 70.7997C54.6728 71.2187 54.4029 71.5419 54.0597 71.7692C53.7164 71.9941 53.3246 72.1065 52.8842 72.1065C52.5528 72.1065 52.2817 72.0509 52.071 71.9396C51.8627 71.8284 51.6993 71.6982 51.581 71.549C51.4626 71.3999 51.3714 71.2673 51.3075 71.1513H51.2188V72H50.1818ZM51.2223 69.2727C51.2223 69.6562 51.2779 69.9924 51.3892 70.2812C51.5005 70.5701 51.6615 70.7962 51.8722 70.9595C52.0829 71.1205 52.3409 71.201 52.6463 71.201C52.9635 71.201 53.2287 71.117 53.4418 70.9489C53.6548 70.7784 53.8158 70.5476 53.9247 70.2564C54.036 69.9652 54.0916 69.6373 54.0916 69.2727C54.0916 68.9129 54.0372 68.5897 53.9283 68.3033C53.8217 68.0168 53.6607 67.7907 53.4453 67.625C53.2322 67.4593 52.9659 67.3764 52.6463 67.3764C52.3385 67.3764 52.0781 67.4557 51.8651 67.6143C51.6544 67.773 51.4946 67.9943 51.3857 68.2784C51.2768 68.5625 51.2223 68.8939 51.2223 69.2727ZM60.4437 67.8771L59.4814 68.0476C59.4411 67.9245 59.3772 67.8073 59.2896 67.696C59.2044 67.5848 59.0884 67.4936 58.9416 67.4226C58.7948 67.3516 58.6113 67.3161 58.3912 67.3161C58.0905 67.3161 57.8395 67.3835 57.6383 67.5185C57.4371 67.651 57.3365 67.8227 57.3365 68.0334C57.3365 68.2157 57.4039 68.3625 57.5389 68.4737C57.6738 68.585 57.8916 68.6761 58.1923 68.7472L59.0588 68.946C59.5607 69.062 59.9347 69.2408 60.1809 69.4822C60.4271 69.7237 60.5502 70.0374 60.5502 70.4233C60.5502 70.75 60.4556 71.0412 60.2662 71.2969C60.0791 71.5502 59.8175 71.7491 59.4814 71.8935C59.1475 72.0379 58.7605 72.1101 58.3201 72.1101C57.7093 72.1101 57.211 71.9799 56.8251 71.7195C56.4392 71.4567 56.2025 71.0838 56.1149 70.6009L57.1412 70.4446C57.2051 70.7121 57.3365 70.9145 57.5353 71.0518C57.7342 71.1868 57.9934 71.2543 58.313 71.2543C58.661 71.2543 58.9392 71.1821 59.1475 71.0376C59.3559 70.8909 59.46 70.7121 59.46 70.5014C59.46 70.331 59.3961 70.1877 59.2683 70.0717C59.1428 69.9557 58.9499 69.8681 58.6895 69.8089L57.7662 69.6065C57.2572 69.4905 56.8807 69.3059 56.6369 69.0526C56.3954 68.7992 56.2747 68.4785 56.2747 68.0902C56.2747 67.7682 56.3646 67.4865 56.5446 67.245C56.7245 67.0036 56.9731 66.8153 57.2903 66.6804C57.6075 66.5431 57.9709 66.4744 58.3805 66.4744C58.97 66.4744 59.434 66.6023 59.7725 66.858C60.1111 67.1113 60.3348 67.451 60.4437 67.8771ZM64.0153 72.1101C63.4873 72.1101 63.0328 71.9905 62.6516 71.7514C62.2728 71.5099 61.9817 71.1773 61.7781 70.7536C61.5745 70.3298 61.4727 69.8445 61.4727 69.2976C61.4727 68.7436 61.5768 68.2547 61.7852 67.831C61.9935 67.4048 62.2871 67.0722 62.6658 66.8331C63.0446 66.594 63.4909 66.4744 64.0046 66.4744C64.4189 66.4744 64.7882 66.5514 65.1126 66.7053C65.4369 66.8568 65.6985 67.0698 65.8974 67.3445C66.0986 67.6191 66.2182 67.9399 66.256 68.3068H65.2227C65.1658 68.0511 65.0356 67.831 64.832 67.6463C64.6308 67.4616 64.3609 67.3693 64.0224 67.3693C63.7264 67.3693 63.4672 67.4474 63.2447 67.6037C63.0245 67.7576 62.8529 67.9777 62.7298 68.2642C62.6067 68.5483 62.5451 68.8845 62.5451 69.2727C62.5451 69.6705 62.6055 70.0137 62.7262 70.3026C62.8469 70.5914 63.0174 70.8151 63.2376 70.9737C63.4601 71.1323 63.7217 71.2116 64.0224 71.2116C64.2236 71.2116 64.4059 71.175 64.5692 71.1016C64.735 71.0258 64.8735 70.9181 64.9847 70.7784C65.0984 70.6387 65.1777 70.4706 65.2227 70.2741H66.256C66.2182 70.6269 66.1033 70.9418 65.9116 71.2188C65.7198 71.4957 65.4629 71.7135 65.141 71.8722C64.8214 72.0308 64.4461 72.1101 64.0153 72.1101ZM67.3915 72V66.5455H68.4178V67.4119H68.4746C68.574 67.1184 68.7492 66.8875 69.0002 66.7195C69.2535 66.549 69.54 66.4638 69.8596 66.4638C69.9258 66.4638 70.004 66.4661 70.0939 66.4709C70.1863 66.4756 70.2585 66.4815 70.3105 66.4886V67.5043C70.2679 67.4924 70.1922 67.4794 70.0833 67.4652C69.9744 67.4486 69.8655 67.4403 69.7566 67.4403C69.5056 67.4403 69.2819 67.4936 69.0854 67.6001C68.8913 67.7043 68.7374 67.8499 68.6238 68.0369C68.5101 68.2216 68.4533 68.4323 68.4533 68.669V72H67.3915ZM71.2294 72V66.5455H72.2912V72H71.2294ZM71.7656 65.7038C71.581 65.7038 71.4223 65.6423 71.2898 65.5192C71.1596 65.3937 71.0945 65.2446 71.0945 65.0717C71.0945 64.8965 71.1596 64.7474 71.2898 64.6243C71.4223 64.4988 71.581 64.4361 71.7656 64.4361C71.9503 64.4361 72.1077 64.4988 72.2379 64.6243C72.3705 64.7474 72.4368 64.8965 72.4368 65.0717C72.4368 65.2446 72.3705 65.3937 72.2379 65.5192C72.1077 65.6423 71.9503 65.7038 71.7656 65.7038ZM73.8049 72V64.7273H74.8667V67.4297H74.9306C74.9921 67.3161 75.0809 67.1847 75.1969 67.0355C75.3129 66.8864 75.4739 66.7562 75.6799 66.6449C75.8858 66.5312 76.1581 66.4744 76.4966 66.4744C76.937 66.4744 77.33 66.5857 77.6756 66.8082C78.0212 67.0308 78.2923 67.3516 78.4888 67.7706C78.6877 68.1896 78.7871 68.6939 78.7871 69.2834C78.7871 69.8729 78.6889 70.3783 78.4924 70.7997C78.2959 71.2187 78.026 71.5419 77.6827 71.7692C77.3394 71.9941 76.9476 72.1065 76.5073 72.1065C76.1758 72.1065 75.9048 72.0509 75.6941 71.9396C75.4857 71.8284 75.3224 71.6982 75.204 71.549C75.0856 71.3999 74.9945 71.2673 74.9306 71.1513H74.8418V72H73.8049ZM74.8453 69.2727C74.8453 69.6562 74.901 69.9924 75.0123 70.2812C75.1235 70.5701 75.2845 70.7962 75.4952 70.9595C75.7059 71.1205 75.964 71.201 76.2694 71.201C76.5866 71.201 76.8517 71.117 77.0648 70.9489C77.2779 70.7784 77.4389 70.5476 77.5478 70.2564C77.659 69.9652 77.7147 69.6373 77.7147 69.2727C77.7147 68.9129 77.6602 68.5897 77.5513 68.3033C77.4448 68.0168 77.2838 67.7907 77.0684 67.625C76.8553 67.4593 76.589 67.3764 76.2694 67.3764C75.9616 67.3764 75.7012 67.4557 75.4881 67.6143C75.2774 67.773 75.1176 67.9943 75.0087 68.2784C74.8998 68.5625 74.8453 68.8939 74.8453 69.2727ZM82.3303 72.1101C81.7929 72.1101 81.33 71.9953 80.9418 71.7656C80.5559 71.5336 80.2576 71.2081 80.0469 70.7891C79.8385 70.3677 79.7344 69.8741 79.7344 69.3082C79.7344 68.7495 79.8385 68.2571 80.0469 67.831C80.2576 67.4048 80.5511 67.0722 80.9276 66.8331C81.3063 66.594 81.7491 66.4744 82.2557 66.4744C82.5634 66.4744 82.8617 66.5253 83.1506 66.6271C83.4394 66.7289 83.6986 66.8887 83.9283 67.1065C84.1579 67.3243 84.339 67.6072 84.4716 67.9553C84.6042 68.3009 84.6705 68.7211 84.6705 69.2159V69.5923H80.3345V68.7969H83.63C83.63 68.5175 83.5732 68.2701 83.4595 68.0547C83.3459 67.8369 83.1861 67.6652 82.9801 67.5398C82.7765 67.4143 82.5374 67.3516 82.2628 67.3516C81.9645 67.3516 81.7041 67.425 81.4815 67.5717C81.2614 67.7161 81.0909 67.9055 80.9702 68.1399C80.8518 68.3719 80.7926 68.6241 80.7926 68.8963V69.5178C80.7926 69.8823 80.8565 70.1925 80.9844 70.4482C81.1146 70.7038 81.2957 70.8991 81.5277 71.0341C81.7597 71.1667 82.0308 71.233 82.3409 71.233C82.5421 71.233 82.7256 71.2045 82.8913 71.1477C83.0571 71.0885 83.2003 71.0009 83.321 70.8849C83.4418 70.7689 83.5341 70.6257 83.598 70.4553L84.603 70.6364C84.5225 70.9323 84.3781 71.1915 84.1697 71.4141C83.9638 71.6342 83.7045 71.8059 83.392 71.929C83.0819 72.0497 82.728 72.1101 82.3303 72.1101Z" fill="white"/>
</svg>
