<svg width="316" height="129" viewBox="0 0 316 129" fill="none" xmlns="http://www.w3.org/2000/svg">
<rect x="1.5" y="0.5" width="18" height="24" fill="#E6E6E6" stroke="#CCCCCC"/>
<rect x="19.5" y="0.5" width="247" height="24" fill="#E6E6E6" stroke="#CCCCCC"/>
<rect x="266.5" y="0.5" width="48" height="24" fill="#E6E6E6" stroke="#CCCCCC"/>
<rect x="1.5" y="24.5" width="18" height="26" fill="#E6E6E6" stroke="#CCCCCC"/>
<rect x="19.5" y="24.5" width="247" height="26" stroke="#CCCCCC"/>
<rect x="266.5" y="24.5" width="48" height="26" stroke="#CCCCCC"/>
<rect x="1.5" y="50.5" width="18" height="26" fill="#E6E6E6" stroke="#CCCCCC"/>
<rect x="1.5" y="76.5" width="18" height="26" fill="#E6E6E6" stroke="#CCCCCC"/>
<rect x="1.5" y="102.5" width="18" height="26" fill="#E6E6E6" stroke="#CCCCCC"/>
<rect x="19.5" y="50.5" width="247" height="26" stroke="#CCCCCC"/>
<rect x="19.5" y="76.5" width="247" height="26" stroke="#CCCCCC"/>
<rect x="19.5" y="102.5" width="247" height="26" stroke="#CCCCCC"/>
<rect x="266.5" y="50.5" width="48" height="26" stroke="#CCCCCC"/>
<rect x="266.5" y="76.5" width="48" height="26" stroke="#CCCCCC"/>
<rect x="266.5" y="102.5" width="48" height="26" stroke="#CCCCCC"/>
<path d="M140.413 16H139.249L141.866 8.72727H143.134L145.751 16H144.586L142.53 10.0483H142.473L140.413 16ZM140.609 13.152H144.387V14.0753H140.609V13.152Z" fill="black"/>
<path d="M28.5735 42.9432V35.8182H29.9904V36.6886H30.0545C30.1175 36.5491 30.2086 36.4074 30.3278 36.2635C30.4492 36.1173 30.6067 35.9959 30.8001 35.8991C30.9957 35.8002 31.2386 35.7507 31.5288 35.7507C31.9066 35.7507 32.2552 35.8497 32.5746 36.0476C32.8939 36.2433 33.1492 36.539 33.3404 36.9348C33.5315 37.3284 33.6271 37.8221 33.6271 38.4158C33.6271 38.9938 33.5338 39.4819 33.3471 39.88C33.1627 40.2758 32.9108 40.5761 32.5914 40.7807C32.2743 40.9831 31.919 41.0843 31.5254 41.0843C31.2465 41.0843 31.0092 41.0382 30.8136 40.946C30.6201 40.8538 30.4616 40.738 30.3379 40.5985C30.2142 40.4569 30.1197 40.314 30.0545 40.1701H30.0107V42.9432H28.5735ZM29.9803 38.4091C29.9803 38.7172 30.023 38.986 30.1085 39.2154C30.194 39.4448 30.3176 39.6236 30.4796 39.7518C30.6415 39.8777 30.8383 39.9407 31.07 39.9407C31.3039 39.9407 31.5018 39.8766 31.6637 39.7484C31.8256 39.618 31.9482 39.438 32.0314 39.2086C32.1169 38.977 32.1596 38.7105 32.1596 38.4091C32.1596 38.11 32.118 37.8468 32.0348 37.6197C31.9516 37.3925 31.829 37.2148 31.6671 37.0866C31.5051 36.9585 31.3061 36.8944 31.07 36.8944C30.8361 36.8944 30.6381 36.9562 30.4762 37.0799C30.3165 37.2036 30.194 37.379 30.1085 37.6062C30.023 37.8333 29.9803 38.101 29.9803 38.4091ZM36.0224 38.0043V41H34.5852V34.0909H35.9819V36.7324H36.0426C36.1596 36.4266 36.3485 36.187 36.6094 36.0138C36.8703 35.8384 37.1975 35.7507 37.5911 35.7507C37.9509 35.7507 38.2647 35.8294 38.5323 35.9869C38.8022 36.142 39.0114 36.3658 39.1598 36.6582C39.3105 36.9483 39.3847 37.2958 39.3825 37.7006V41H37.9453V37.957C37.9476 37.6377 37.8666 37.3891 37.7024 37.2115C37.5405 37.0338 37.3133 36.945 37.021 36.945C36.8253 36.945 36.6521 36.9866 36.5014 37.0698C36.353 37.153 36.236 37.2744 36.1506 37.4341C36.0674 37.5916 36.0246 37.7816 36.0224 38.0043ZM42.8547 41.1012C42.3307 41.1012 41.8775 40.9899 41.4952 40.7672C41.1151 40.5423 40.8216 40.2297 40.6147 39.8294C40.4077 39.4268 40.3043 38.9601 40.3043 38.4293C40.3043 37.8941 40.4077 37.4263 40.6147 37.0259C40.8216 36.6233 41.1151 36.3107 41.4952 36.0881C41.8775 35.8632 42.3307 35.7507 42.8547 35.7507C43.3787 35.7507 43.8308 35.8632 44.2109 36.0881C44.5932 36.3107 44.8879 36.6233 45.0948 37.0259C45.3017 37.4263 45.4051 37.8941 45.4051 38.4293C45.4051 38.9601 45.3017 39.4268 45.0948 39.8294C44.8879 40.2297 44.5932 40.5423 44.2109 40.7672C43.8308 40.9899 43.3787 41.1012 42.8547 41.1012ZM42.8615 39.9879C43.0999 39.9879 43.2989 39.9205 43.4586 39.7855C43.6183 39.6483 43.7386 39.4616 43.8196 39.2255C43.9028 38.9893 43.9444 38.7206 43.9444 38.4192C43.9444 38.1178 43.9028 37.8491 43.8196 37.6129C43.7386 37.3768 43.6183 37.1901 43.4586 37.0529C43.2989 36.9157 43.0999 36.8471 42.8615 36.8471C42.6208 36.8471 42.4184 36.9157 42.2542 37.0529C42.0923 37.1901 41.9697 37.3768 41.8865 37.6129C41.8055 37.8491 41.765 38.1178 41.765 38.4192C41.765 38.7206 41.8055 38.9893 41.8865 39.2255C41.9697 39.4616 42.0923 39.6483 42.2542 39.7855C42.4184 39.9205 42.6208 39.9879 42.8615 39.9879ZM47.7768 38.0043V41H46.3396V35.8182H47.7093V36.7324H47.77C47.8847 36.431 48.077 36.1926 48.3469 36.0172C48.6168 35.8395 48.944 35.7507 49.3286 35.7507C49.6885 35.7507 50.0022 35.8294 50.2698 35.9869C50.5375 36.1443 50.7455 36.3692 50.894 36.6616C51.0424 36.9517 51.1166 37.2981 51.1166 37.7006V41H49.6795V37.957C49.6817 37.6399 49.6007 37.3925 49.4366 37.2148C49.2724 37.0349 49.0464 36.945 48.7585 36.945C48.5651 36.945 48.3941 36.9866 48.2457 37.0698C48.0995 37.153 47.9848 37.2744 47.9016 37.4341C47.8206 37.5916 47.779 37.7816 47.7768 38.0043ZM54.6108 41.1012C54.0778 41.1012 53.619 40.9933 53.2344 40.7773C52.852 40.5592 52.5574 40.2511 52.3505 39.853C52.1436 39.4527 52.0401 38.9792 52.0401 38.4327C52.0401 37.8997 52.1436 37.4319 52.3505 37.0293C52.5574 36.6267 52.8487 36.313 53.2243 36.0881C53.6021 35.8632 54.0452 35.7507 54.5534 35.7507C54.8953 35.7507 55.2135 35.8058 55.5082 35.916C55.805 36.024 56.0637 36.187 56.2841 36.4052C56.5067 36.6233 56.6799 36.8977 56.8036 37.2283C56.9273 37.5567 56.9892 37.9413 56.9892 38.3821V38.7768H52.6136V37.8862H55.6364C55.6364 37.6793 55.5914 37.496 55.5014 37.3363C55.4115 37.1766 55.2866 37.0518 55.127 36.9618C54.9695 36.8696 54.7862 36.8235 54.5771 36.8235C54.3589 36.8235 54.1655 36.8741 53.9968 36.9753C53.8304 37.0743 53.6999 37.2081 53.6055 37.3768C53.511 37.5432 53.4627 37.7288 53.4604 37.9334V38.7802C53.4604 39.0366 53.5076 39.2581 53.6021 39.4448C53.6988 39.6315 53.8349 39.7754 54.0103 39.8766C54.1857 39.9778 54.3938 40.0284 54.6344 40.0284C54.7941 40.0284 54.9403 40.0059 55.073 39.9609C55.2057 39.916 55.3192 39.8485 55.4137 39.7585C55.5082 39.6686 55.5801 39.5584 55.6296 39.4279L56.9588 39.5156C56.8913 39.835 56.753 40.1139 56.5439 40.3523C56.3369 40.5884 56.0693 40.7728 55.7409 40.9055C55.4148 41.036 55.0381 41.1012 54.6108 41.1012ZM61.5629 38.0043V41H60.1258V35.8182H61.4954V36.7324H61.5562C61.6709 36.431 61.8631 36.1926 62.133 36.0172C62.4029 35.8395 62.7302 35.7507 63.1147 35.7507C63.4746 35.7507 63.7883 35.8294 64.056 35.9869C64.3236 36.1443 64.5316 36.3692 64.6801 36.6616C64.8285 36.9517 64.9027 37.2981 64.9027 37.7006V41H63.4656V37.957C63.4678 37.6399 63.3869 37.3925 63.2227 37.2148C63.0585 37.0349 62.8325 36.945 62.5446 36.945C62.3512 36.945 62.1803 36.9866 62.0318 37.0698C61.8856 37.153 61.7709 37.2744 61.6877 37.4341C61.6068 37.5916 61.5651 37.7816 61.5629 38.0043ZM69.3584 38.7937V35.8182H70.7955V41H69.4157V40.0588H69.3618C69.2448 40.3624 69.0503 40.6064 68.7781 40.7908C68.5083 40.9753 68.1788 41.0675 67.7897 41.0675C67.4433 41.0675 67.1386 40.9888 66.8754 40.8313C66.6123 40.6739 66.4065 40.4501 66.2581 40.16C66.1119 39.8699 66.0377 39.5224 66.0354 39.1175V35.8182H67.4726V38.8612C67.4748 39.167 67.5569 39.4088 67.7188 39.5865C67.8808 39.7641 68.0978 39.853 68.3699 39.853C68.5431 39.853 68.705 39.8136 68.8557 39.7349C69.0064 39.6539 69.1279 39.5347 69.2201 39.3773C69.3145 39.2199 69.3606 39.0253 69.3584 38.7937ZM71.9451 41V35.8182H73.3148V36.7324H73.3755C73.4834 36.4288 73.6634 36.1893 73.9153 36.0138C74.1672 35.8384 74.4685 35.7507 74.8194 35.7507C75.1747 35.7507 75.4772 35.8395 75.7269 36.0172C75.9765 36.1926 76.1429 36.431 76.2262 36.7324H76.2801C76.3858 36.4355 76.577 36.1983 76.8536 36.0206C77.1325 35.8407 77.462 35.7507 77.8421 35.7507C78.3257 35.7507 78.7181 35.9048 79.0195 36.2129C79.3231 36.5188 79.4749 36.9528 79.4749 37.5151V41H78.0411V37.7985C78.0411 37.5106 77.9647 37.2947 77.8117 37.1507C77.6588 37.0068 77.4676 36.9348 77.2382 36.9348C76.9773 36.9348 76.7738 37.0181 76.6276 37.1845C76.4814 37.3487 76.4083 37.5657 76.4083 37.8356V41H75.015V37.7681C75.015 37.514 74.942 37.3116 74.7958 37.1609C74.6518 37.0102 74.4618 36.9348 74.2256 36.9348C74.0659 36.9348 73.922 36.9753 73.7938 37.0563C73.6679 37.135 73.5678 37.2463 73.4936 37.3903C73.4193 37.532 73.3822 37.6984 73.3822 37.8896V41H71.9451ZM80.6371 41V34.0909H82.0743V36.6886H82.1181C82.1811 36.5491 82.2722 36.4074 82.3914 36.2635C82.5128 36.1173 82.6703 35.9959 82.8637 35.8991C83.0593 35.8002 83.3022 35.7507 83.5924 35.7507C83.9702 35.7507 84.3188 35.8497 84.6382 36.0476C84.9575 36.2433 85.2128 36.539 85.404 36.9348C85.5952 37.3284 85.6907 37.8221 85.6907 38.4158C85.6907 38.9938 85.5974 39.4819 85.4107 39.88C85.2263 40.2758 84.9744 40.5761 84.6551 40.7807C84.3379 40.9831 83.9826 41.0843 83.589 41.0843C83.3101 41.0843 83.0728 41.0382 82.8772 40.946C82.6838 40.8538 82.5252 40.738 82.4015 40.5985C82.2778 40.4569 82.1833 40.314 82.1181 40.1701H82.054V41H80.6371ZM82.0439 38.4091C82.0439 38.7172 82.0866 38.986 82.1721 39.2154C82.2576 39.4448 82.3813 39.6236 82.5432 39.7518C82.7051 39.8777 82.9019 39.9407 83.1336 39.9407C83.3675 39.9407 83.5654 39.8766 83.7273 39.7484C83.8892 39.618 84.0118 39.438 84.095 39.2086C84.1805 38.977 84.2232 38.7105 84.2232 38.4091C84.2232 38.11 84.1816 37.8468 84.0984 37.6197C84.0152 37.3925 83.8926 37.2148 83.7307 37.0866C83.5688 36.9585 83.3697 36.8944 83.1336 36.8944C82.8997 36.8944 82.7017 36.9562 82.5398 37.0799C82.3801 37.2036 82.2576 37.379 82.1721 37.6062C82.0866 37.8333 82.0439 38.101 82.0439 38.4091ZM89.0112 41.1012C88.4782 41.1012 88.0194 40.9933 87.6348 40.7773C87.2524 40.5592 86.9578 40.2511 86.7509 39.853C86.544 39.4527 86.4405 38.9792 86.4405 38.4327C86.4405 37.8997 86.544 37.4319 86.7509 37.0293C86.9578 36.6267 87.2491 36.313 87.6246 36.0881C88.0025 35.8632 88.4455 35.7507 88.9538 35.7507C89.2957 35.7507 89.6139 35.8058 89.9086 35.916C90.2054 36.024 90.4641 36.187 90.6845 36.4052C90.9071 36.6233 91.0803 36.8977 91.204 37.2283C91.3277 37.5567 91.3896 37.9413 91.3896 38.3821V38.7768H87.014V37.8862H90.0368C90.0368 37.6793 89.9918 37.496 89.9018 37.3363C89.8118 37.1766 89.687 37.0518 89.5273 36.9618C89.3699 36.8696 89.1866 36.8235 88.9775 36.8235C88.7593 36.8235 88.5659 36.8741 88.3972 36.9753C88.2308 37.0743 88.1003 37.2081 88.0059 37.3768C87.9114 37.5432 87.863 37.7288 87.8608 37.9334V38.7802C87.8608 39.0366 87.908 39.2581 88.0025 39.4448C88.0992 39.6315 88.2353 39.7754 88.4107 39.8766C88.5861 39.9778 88.7942 40.0284 89.0348 40.0284C89.1945 40.0284 89.3407 40.0059 89.4734 39.9609C89.6061 39.916 89.7196 39.8485 89.8141 39.7585C89.9086 39.6686 89.9805 39.5584 90.03 39.4279L91.3592 39.5156C91.2917 39.835 91.1534 40.1139 90.9442 40.3523C90.7373 40.5884 90.4697 40.7728 90.1413 40.9055C89.8152 41.036 89.4385 41.1012 89.0112 41.1012ZM92.3274 41V35.8182H93.7207V36.7223H93.7747C93.8691 36.4007 94.0277 36.1578 94.2504 35.9936C94.473 35.8272 94.7294 35.744 95.0195 35.744C95.0915 35.744 95.1691 35.7485 95.2523 35.7575C95.3355 35.7665 95.4086 35.7788 95.4716 35.7946V37.0698C95.4041 37.0495 95.3108 37.0315 95.1916 37.0158C95.0724 37.0001 94.9633 36.9922 94.8643 36.9922C94.6529 36.9922 94.464 37.0383 94.2976 37.1305C94.1334 37.2205 94.003 37.3464 93.9062 37.5083C93.8118 37.6703 93.7646 37.8569 93.7646 38.0684V41H92.3274ZM100.526 37.2958L99.2104 37.3768C99.1879 37.2643 99.1395 37.1631 99.0653 37.0732C98.9911 36.9809 98.8932 36.9078 98.7718 36.8539C98.6526 36.7976 98.5098 36.7695 98.3434 36.7695C98.1207 36.7695 97.9329 36.8168 97.78 36.9112C97.627 37.0034 97.5506 37.1271 97.5506 37.2823C97.5506 37.406 97.6 37.5106 97.699 37.5961C97.798 37.6815 97.9678 37.7501 98.2084 37.8018L99.1463 37.9908C99.6501 38.0942 100.026 38.2607 100.273 38.4901C100.52 38.7195 100.644 39.0208 100.644 39.3942C100.644 39.7338 100.544 40.0318 100.344 40.2882C100.146 40.5446 99.8738 40.7447 99.5275 40.8887C99.1834 41.0304 98.7864 41.1012 98.3366 41.1012C97.6506 41.1012 97.1041 40.9584 96.697 40.6728C96.2922 40.3849 96.0549 39.9935 95.9852 39.4988L97.3987 39.4245C97.4415 39.6337 97.5449 39.7934 97.7091 39.9036C97.8733 40.0115 98.0836 40.0655 98.34 40.0655C98.5919 40.0655 98.7943 40.0172 98.9472 39.9205C99.1024 39.8215 99.1811 39.6944 99.1834 39.5392C99.1811 39.4088 99.126 39.302 99.0181 39.2188C98.9101 39.1333 98.7437 39.0681 98.5188 39.0231L97.6214 38.8443C97.1154 38.7431 96.7387 38.5676 96.4913 38.318C96.2461 38.0684 96.1235 37.7501 96.1235 37.3633C96.1235 37.0304 96.2135 36.7437 96.3934 36.503C96.5756 36.2624 96.8309 36.0768 97.1592 35.9464C97.4898 35.8159 97.8767 35.7507 98.3197 35.7507C98.9742 35.7507 99.4892 35.889 99.8648 36.1657C100.243 36.4423 100.463 36.819 100.526 37.2958Z" fill="black"/>
<path d="M10.2859 34.0909V41H9.24006V35.1367H9.19957L7.54652 36.2163V35.2177L9.27042 34.0909H10.2859Z" fill="black"/>
<path d="M7.6646 67V66.2443L10.0025 63.8221C10.2521 63.5589 10.4579 63.3284 10.6199 63.1305C10.784 62.9303 10.9066 62.7403 10.9876 62.5604C11.0685 62.3804 11.109 62.1893 11.109 61.9869C11.109 61.7575 11.055 61.5595 10.9471 61.3931C10.8391 61.2244 10.6918 61.0951 10.5051 61.0051C10.3185 60.9129 10.1082 60.8668 9.87429 60.8668C9.62689 60.8668 9.41098 60.9174 9.22656 61.0186C9.04214 61.1199 8.90045 61.2627 8.80149 61.4471C8.70253 61.6315 8.65305 61.8474 8.65305 62.0948H7.65785C7.65785 61.6742 7.75456 61.3065 7.94798 60.9917C8.14139 60.6768 8.40678 60.4328 8.74414 60.2596C9.0815 60.0842 9.46496 59.9964 9.89453 59.9964C10.3286 59.9964 10.7109 60.083 11.0415 60.2562C11.3744 60.4271 11.6342 60.661 11.8208 60.9579C12.0075 61.2525 12.1009 61.5854 12.1009 61.9565C12.1009 62.2129 12.0525 62.4637 11.9558 62.7088C11.8613 62.954 11.696 63.2272 11.4599 63.5286C11.2237 63.8277 10.8954 64.1909 10.4748 64.6183L9.10174 66.0554V66.106H12.2122V67H7.6646Z" fill="black"/>
<path d="M10.07 93.0945C9.60665 93.0945 9.19283 93.0146 8.82848 92.8549C8.46638 92.6953 8.17963 92.4737 7.96822 92.1903C7.75906 91.9047 7.6466 91.5741 7.63086 91.1985H8.69016C8.70366 91.4032 8.77225 91.5808 8.89595 91.7315C9.0219 91.88 9.18608 91.9947 9.38849 92.0756C9.59091 92.1566 9.81581 92.1971 10.0632 92.1971C10.3353 92.1971 10.576 92.1499 10.7852 92.0554C10.9966 91.9609 11.1619 91.8294 11.2811 91.6607C11.4003 91.4898 11.4599 91.293 11.4599 91.0703C11.4599 90.8387 11.4003 90.6351 11.2811 90.4597C11.1641 90.282 10.9921 90.1426 10.7649 90.0414C10.54 89.9402 10.2679 89.8896 9.94851 89.8896H9.36488V89.0394H9.94851C10.2049 89.0394 10.4298 88.9933 10.6232 88.9011C10.8189 88.8089 10.9718 88.6807 11.082 88.5165C11.1922 88.3501 11.2473 88.1555 11.2473 87.9329C11.2473 87.7192 11.199 87.5337 11.1023 87.3762C11.0078 87.2166 10.8729 87.0917 10.6974 87.0018C10.5243 86.9118 10.3196 86.8668 10.0835 86.8668C9.85855 86.8668 9.64826 86.9084 9.45259 86.9917C9.25917 87.0726 9.10174 87.1896 8.98029 87.3425C8.85884 87.4932 8.79362 87.6742 8.78462 87.8857H7.77592C7.78717 87.5123 7.89737 87.1839 8.10653 86.9006C8.31795 86.6172 8.59683 86.3957 8.94318 86.236C9.28954 86.0763 9.67412 85.9964 10.0969 85.9964C10.54 85.9964 10.9223 86.083 11.244 86.2562C11.5678 86.4271 11.8175 86.6554 11.9929 86.9411C12.1706 87.2267 12.2583 87.5393 12.256 87.8789C12.2583 88.2657 12.1503 88.5941 11.9322 88.864C11.7163 89.1339 11.4284 89.3149 11.0685 89.4071V89.4611C11.5273 89.5308 11.8827 89.713 12.1346 90.0076C12.3887 90.3023 12.5147 90.6677 12.5124 91.104C12.5147 91.4841 12.409 91.8249 12.1953 92.1262C11.9839 92.4276 11.6949 92.6649 11.3283 92.8381C10.9617 93.009 10.5423 93.0945 10.07 93.0945Z" fill="black"/>
<path d="M7.51953 117.651V116.807L10.5051 112.091H11.1697V113.332H10.748L8.61257 116.713V116.767H12.7047V117.651H7.51953ZM10.7953 119V117.394L10.802 117.01V112.091H11.7905V119H10.7953Z" fill="black"/>
<path d="M31.2859 60.0909V67H30.2401V61.1367H30.1996L28.5465 62.2163V61.2177L30.2704 60.0909H31.2859ZM33.1548 67V66.2443L35.4927 63.8221C35.7424 63.5589 35.9482 63.3284 36.1101 63.1305C36.2743 62.9303 36.3968 62.7403 36.4778 62.5604C36.5588 62.3804 36.5993 62.1893 36.5993 61.9869C36.5993 61.7575 36.5453 61.5595 36.4373 61.3931C36.3294 61.2244 36.1821 61.0951 35.9954 61.0051C35.8087 60.9129 35.5984 60.8668 35.3645 60.8668C35.1171 60.8668 34.9012 60.9174 34.7168 61.0186C34.5324 61.1199 34.3907 61.2627 34.2917 61.4471C34.1928 61.6315 34.1433 61.8474 34.1433 62.0948H33.1481C33.1481 61.6742 33.2448 61.3065 33.4382 60.9917C33.6316 60.6768 33.897 60.4328 34.2344 60.2596C34.5717 60.0842 34.9552 59.9964 35.3848 59.9964C35.8188 59.9964 36.2012 60.083 36.5318 60.2562C36.8646 60.4271 37.1244 60.661 37.3111 60.9579C37.4978 61.2525 37.5911 61.5854 37.5911 61.9565C37.5911 62.2129 37.5427 62.4637 37.446 62.7088C37.3516 62.954 37.1863 63.2272 36.9501 63.5286C36.714 63.8277 36.3856 64.1909 35.965 64.6183L34.592 66.0554V66.106H37.7024V67H33.1548ZM41.3864 67.0945C40.9231 67.0945 40.5092 67.0146 40.1449 66.8549C39.7828 66.6953 39.496 66.4737 39.2846 66.1903C39.0755 65.9047 38.963 65.5741 38.9473 65.1985H40.0066C40.0201 65.4032 40.0887 65.5808 40.2124 65.7315C40.3383 65.88 40.5025 65.9947 40.7049 66.0756C40.9073 66.1566 41.1322 66.1971 41.3796 66.1971C41.6518 66.1971 41.8924 66.1499 42.1016 66.0554C42.313 65.9609 42.4783 65.8294 42.5975 65.6607C42.7167 65.4898 42.7763 65.293 42.7763 65.0703C42.7763 64.8387 42.7167 64.6351 42.5975 64.4597C42.4805 64.282 42.3085 64.1426 42.0813 64.0414C41.8564 63.9402 41.5843 63.8896 41.2649 63.8896H40.6813V63.0394H41.2649C41.5213 63.0394 41.7462 62.9933 41.9396 62.9011C42.1353 62.8089 42.2882 62.6807 42.3984 62.5165C42.5086 62.3501 42.5637 62.1555 42.5637 61.9329C42.5637 61.7192 42.5154 61.5337 42.4187 61.3762C42.3242 61.2166 42.1893 61.0917 42.0138 61.0018C41.8407 60.9118 41.636 60.8668 41.3999 60.8668C41.175 60.8668 40.9647 60.9084 40.769 60.9917C40.5756 61.0726 40.4181 61.1896 40.2967 61.3425C40.1752 61.4932 40.11 61.6742 40.101 61.8857H39.0923C39.1036 61.5123 39.2138 61.1839 39.4229 60.9006C39.6344 60.6172 39.9132 60.3957 40.2596 60.236C40.6059 60.0763 40.9905 59.9964 41.4134 59.9964C41.8564 59.9964 42.2388 60.083 42.5604 60.2562C42.8842 60.4271 43.1339 60.6554 43.3093 60.9411C43.487 61.2267 43.5747 61.5393 43.5724 61.8789C43.5747 62.2657 43.4667 62.5941 43.2486 62.864C43.0327 63.1339 42.7448 63.3149 42.3849 63.4071V63.4611C42.8438 63.5308 43.1991 63.713 43.451 64.0076C43.7051 64.3023 43.8311 64.6677 43.8288 65.104C43.8311 65.4841 43.7254 65.8249 43.5117 66.1262C43.3003 66.4276 43.0113 66.6649 42.6447 66.8381C42.2781 67.009 41.8587 67.0945 41.3864 67.0945ZM48.1706 63.1069V63.984H45.1074V63.1069H48.1706ZM49.3564 65.6506V64.8072L52.3421 60.0909H53.0067V61.3324H52.585L50.4495 64.7127V64.7667H54.5416V65.6506H49.3564ZM52.6322 67V65.3942L52.6389 65.0096V60.0909H53.6274V67H52.6322ZM57.9979 67.0945C57.575 67.0945 57.195 67.0135 56.8576 66.8516C56.5225 66.6874 56.2549 66.4625 56.0547 66.1768C55.8545 65.8912 55.7477 65.5651 55.7342 65.1985H56.7463C56.771 65.4954 56.9026 65.7394 57.141 65.9306C57.3794 66.1217 57.665 66.2173 57.9979 66.2173C58.2633 66.2173 58.4983 66.1566 58.7029 66.0352C58.9099 65.9115 59.0718 65.7417 59.1887 65.5257C59.3079 65.3098 59.3675 65.0636 59.3675 64.7869C59.3675 64.5058 59.3068 64.255 59.1854 64.0346C59.0639 63.8142 58.8964 63.641 58.6827 63.5151C58.4713 63.3891 58.2284 63.325 57.954 63.3228C57.7449 63.3228 57.5346 63.3588 57.3232 63.4308C57.1117 63.5027 56.9408 63.5972 56.8104 63.7141L55.8556 63.5724L56.2436 60.0909H60.0423V60.9849H57.1106L56.8913 62.918H56.9318C57.0668 62.7875 57.2456 62.6784 57.4682 62.5907C57.6931 62.503 57.9338 62.4592 58.1902 62.4592C58.6107 62.4592 58.9852 62.5592 59.3136 62.7594C59.6442 62.9596 59.9039 63.2328 60.0929 63.5792C60.284 63.9233 60.3785 64.3191 60.3762 64.7667C60.3785 65.2143 60.2773 65.6135 60.0726 65.9643C59.8702 66.3152 59.5891 66.5918 59.2292 66.7942C58.8716 66.9944 58.4612 67.0945 57.9979 67.0945ZM64.0206 67.0945C63.7124 67.09 63.4088 67.0337 63.1097 66.9258C62.8128 66.8178 62.5429 66.6379 62.3 66.386C62.0571 66.1341 61.8626 65.7956 61.7164 65.3706C61.5725 64.9455 61.5005 64.4147 61.5005 63.7782C61.5005 63.1755 61.5601 62.6402 61.6793 62.1724C61.8007 61.7046 61.975 61.3099 62.2022 60.9883C62.4293 60.6644 62.7037 60.4181 63.0253 60.2495C63.347 60.0808 63.7079 59.9964 64.1083 59.9964C64.5198 59.9964 64.8853 60.0774 65.2047 60.2393C65.524 60.4013 65.7827 60.6251 65.9806 60.9107C66.1808 61.1963 66.3078 61.5213 66.3618 61.8857H65.3329C65.2632 61.5978 65.1248 61.3627 64.9179 61.1806C64.711 60.9984 64.4411 60.9073 64.1083 60.9073C63.6022 60.9073 63.2075 61.1277 62.9241 61.5685C62.643 62.0094 62.5013 62.6222 62.4991 63.4071H62.5497C62.6689 63.2115 62.8151 63.045 62.9882 62.9078C63.1637 62.7684 63.3593 62.6616 63.5752 62.5874C63.7934 62.5109 64.0228 62.4727 64.2635 62.4727C64.6638 62.4727 65.0259 62.5705 65.3497 62.7662C65.6759 62.9596 65.9356 63.2272 66.129 63.5691C66.3225 63.9109 66.4192 64.3023 66.4192 64.7431C66.4192 65.1839 66.3191 65.5831 66.1189 65.9407C65.921 66.2983 65.6421 66.5817 65.2823 66.7908C64.9224 66.9978 64.5018 67.099 64.0206 67.0945ZM64.0172 66.2173C64.2826 66.2173 64.5198 66.1521 64.729 66.0217C64.9382 65.8912 65.1035 65.7158 65.2249 65.4954C65.3464 65.275 65.4071 65.0287 65.4071 64.7566C65.4071 64.4912 65.3475 64.2494 65.2283 64.0312C65.1113 63.8131 64.9494 63.6399 64.7425 63.5117C64.5378 63.3835 64.3039 63.3194 64.0408 63.3194C63.8406 63.3194 63.6551 63.3577 63.4842 63.4341C63.3155 63.5106 63.167 63.6163 63.0388 63.7512C62.9106 63.8862 62.8094 64.0414 62.7352 64.2168C62.6632 64.39 62.6273 64.5733 62.6273 64.7667C62.6273 65.0253 62.6869 65.2649 62.8061 65.4853C62.9275 65.7057 63.0928 65.8833 63.302 66.0183C63.5134 66.151 63.7518 66.2173 64.0172 66.2173ZM70.7146 63.1069V63.984H67.6514V63.1069H70.7146ZM72.0463 67L75.0623 61.0355V60.9849H71.574V60.0909H76.1418V61.0153L73.136 67H72.0463ZM79.5103 67.0945C79.0268 67.0945 78.5995 67.0112 78.2284 66.8448C77.8595 66.6784 77.5705 66.449 77.3614 66.1566C77.1522 65.8642 77.0488 65.5314 77.051 65.158C77.0488 64.8656 77.1084 64.5969 77.2298 64.3517C77.3535 64.1043 77.5211 63.8986 77.7325 63.7344C77.9439 63.5679 78.18 63.4622 78.4409 63.4173V63.3768C78.0968 63.2936 77.8213 63.1091 77.6144 62.8235C77.4075 62.5379 77.3051 62.2095 77.3074 61.8384C77.3051 61.4853 77.3985 61.1705 77.5874 60.8938C77.7786 60.6149 78.0406 60.3957 78.3734 60.236C78.7063 60.0763 79.0853 59.9964 79.5103 59.9964C79.9309 59.9964 80.3065 60.0774 80.6371 60.2393C80.97 60.399 81.232 60.6183 81.4232 60.8972C81.6143 61.1738 81.711 61.4876 81.7133 61.8384C81.711 62.2095 81.6053 62.5379 81.3962 62.8235C81.187 63.1091 80.9149 63.2936 80.5798 63.3768V63.4173C80.8384 63.4622 81.0712 63.5679 81.2781 63.7344C81.4873 63.8986 81.6537 64.1043 81.7774 64.3517C81.9033 64.5969 81.9674 64.8656 81.9697 65.158C81.9674 65.5314 81.8617 65.8642 81.6526 66.1566C81.4434 66.449 81.1533 66.6784 80.7822 66.8448C80.4133 67.0112 79.9894 67.0945 79.5103 67.0945ZM79.5103 66.2409C79.796 66.2409 80.0434 66.1937 80.2525 66.0993C80.4617 66.0025 80.6236 65.8687 80.7383 65.6978C80.853 65.5246 80.9115 65.3222 80.9138 65.0906C80.9115 64.8499 80.8485 64.6374 80.7248 64.4529C80.6034 64.2685 80.4381 64.1235 80.2289 64.0178C80.0198 63.9121 79.7802 63.8592 79.5103 63.8592C79.2382 63.8592 78.9964 63.9121 78.785 64.0178C78.5736 64.1235 78.4072 64.2685 78.2857 64.4529C78.1643 64.6374 78.1047 64.8499 78.1069 65.0906C78.1047 65.3222 78.1598 65.5246 78.2722 65.6978C78.3869 65.8687 78.55 66.0025 78.7614 66.0993C78.9728 66.1937 79.2225 66.2409 79.5103 66.2409ZM79.5103 63.0259C79.7397 63.0259 79.9433 62.9798 80.121 62.8876C80.2986 62.7954 80.4381 62.6672 80.5393 62.503C80.6427 62.3388 80.6956 62.1465 80.6978 61.9261C80.6956 61.7102 80.6439 61.5213 80.5427 61.3594C80.4437 61.1974 80.3054 61.0726 80.1277 60.9849C79.95 60.8949 79.7442 60.85 79.5103 60.85C79.2719 60.85 79.0628 60.8949 78.8829 60.9849C78.7052 61.0726 78.5669 61.1974 78.4679 61.3594C78.3689 61.5213 78.3206 61.7102 78.3228 61.9261C78.3206 62.1465 78.3701 62.3388 78.4713 62.503C78.5725 62.6672 78.7119 62.7954 78.8896 62.8876C79.0695 62.9798 79.2764 63.0259 79.5103 63.0259ZM85.4757 59.9964C85.7838 59.9987 86.0874 60.0549 86.3865 60.1651C86.6857 60.2753 86.9556 60.4553 87.1962 60.7049C87.4391 60.9545 87.6325 61.2919 87.7765 61.717C87.9226 62.1398 87.9969 62.6661 87.9991 63.2958C87.9991 63.9008 87.9384 64.4395 87.8169 64.9118C87.6955 65.3818 87.5212 65.7788 87.294 66.1026C87.0691 66.4265 86.7959 66.6728 86.4743 66.8414C86.1526 67.0101 85.7905 67.0945 85.388 67.0945C84.9764 67.0945 84.6109 67.0135 84.2915 66.8516C83.9722 66.6896 83.7124 66.4658 83.5123 66.1802C83.3121 65.8923 83.1873 65.5617 83.1378 65.1884H84.1667C84.2342 65.4853 84.3714 65.7259 84.5783 65.9103C84.7875 66.0925 85.0574 66.1836 85.388 66.1836C85.894 66.1836 86.2887 65.9632 86.5721 65.5224C86.8555 65.0793 86.9983 64.4608 87.0005 63.6669H86.9466C86.8296 63.8603 86.6834 64.0268 86.508 64.1662C86.3348 64.3056 86.1403 64.4136 85.9244 64.4901C85.7085 64.5665 85.4779 64.6048 85.2328 64.6048C84.8347 64.6048 84.4726 64.5069 84.1465 64.3113C83.8204 64.1156 83.5606 63.8468 83.3672 63.505C83.1738 63.1631 83.0771 62.7729 83.0771 62.3343C83.0771 61.898 83.176 61.5022 83.3739 61.1468C83.5741 60.7915 83.853 60.5104 84.2106 60.3034C84.5704 60.0943 84.9921 59.992 85.4757 59.9964ZM85.479 60.8736C85.2159 60.8736 84.9786 60.9388 84.7672 61.0692C84.5581 61.1974 84.3928 61.3717 84.2713 61.5922C84.1499 61.8103 84.0891 62.0532 84.0891 62.3208C84.0891 62.5885 84.1476 62.8314 84.2646 63.0495C84.3838 63.2654 84.5457 63.4375 84.7504 63.5657C84.9573 63.6916 85.1934 63.7546 85.4588 63.7546C85.6567 63.7546 85.8411 63.7164 86.0121 63.6399C86.183 63.5634 86.3326 63.4577 86.4608 63.3228C86.589 63.1856 86.689 63.0304 86.761 62.8572C86.833 62.6841 86.869 62.5019 86.869 62.3107C86.869 62.0566 86.8082 61.8204 86.6868 61.6023C86.5676 61.3841 86.4034 61.2087 86.1942 61.076C85.9851 60.9411 85.7467 60.8736 85.479 60.8736ZM91.6232 67.1147C91.0902 67.1125 90.6347 66.9719 90.2569 66.693C89.879 66.4141 89.59 66.0082 89.3899 65.4751C89.1897 64.9421 89.0896 64.3 89.0896 63.5488C89.0896 62.7999 89.1897 62.16 89.3899 61.6293C89.5923 61.0985 89.8824 60.6937 90.2603 60.4148C90.6403 60.1359 91.0947 59.9964 91.6232 59.9964C92.1517 59.9964 92.6049 60.137 92.9827 60.4181C93.3606 60.697 93.6496 61.1019 93.8497 61.6326C94.0522 62.1612 94.1534 62.7999 94.1534 63.5488C94.1534 64.3023 94.0533 64.9455 93.8531 65.4785C93.653 66.0093 93.3639 66.4152 92.9861 66.6964C92.6083 66.9753 92.154 67.1147 91.6232 67.1147ZM91.6232 66.214C92.091 66.214 92.4565 65.9857 92.7196 65.5291C92.985 65.0726 93.1177 64.4125 93.1177 63.5488C93.1177 62.9753 93.057 62.4906 92.9355 62.0948C92.8163 61.6967 92.6443 61.3954 92.4193 61.1907C92.1967 60.9838 91.9313 60.8803 91.6232 60.8803C91.1576 60.8803 90.7922 61.1097 90.5268 61.5685C90.2614 62.0273 90.1276 62.6874 90.1253 63.5488C90.1253 64.1246 90.1849 64.6115 90.3041 65.0096C90.4256 65.4054 90.5976 65.7057 90.8203 65.9103C91.0429 66.1127 91.3106 66.214 91.6232 66.214Z" fill="black"/>
<path d="M31.2859 86.0909V93H30.2401V87.1367H30.1996L28.5465 88.2163V87.2177L30.2704 86.0909H31.2859ZM35.7761 86.0909V93H34.7303V87.1367H34.6898L33.0368 88.2163V87.2177L34.7607 86.0909H35.7761ZM40.2663 86.0909V93H39.2205V87.1367H39.18L37.527 88.2163V87.2177L39.2509 86.0909H40.2663ZM45.2019 89.1069V89.984H42.1387V89.1069H45.2019ZM46.2544 93V92.2443L48.5923 89.8221C48.842 89.5589 49.0478 89.3284 49.2097 89.1305C49.3739 88.9303 49.4964 88.7403 49.5774 88.5604C49.6584 88.3804 49.6989 88.1893 49.6989 87.9869C49.6989 87.7575 49.6449 87.5595 49.5369 87.3931C49.429 87.2244 49.2817 87.0951 49.095 87.0051C48.9083 86.9129 48.698 86.8668 48.4641 86.8668C48.2167 86.8668 48.0008 86.9174 47.8164 87.0186C47.632 87.1199 47.4903 87.2627 47.3913 87.4471C47.2924 87.6315 47.2429 87.8474 47.2429 88.0948H46.2477C46.2477 87.6742 46.3444 87.3065 46.5378 86.9917C46.7312 86.6768 46.9966 86.4328 47.334 86.2596C47.6713 86.0842 48.0548 85.9964 48.4844 85.9964C48.9184 85.9964 49.3008 86.083 49.6314 86.2562C49.9643 86.4271 50.224 86.661 50.4107 86.9579C50.5974 87.2525 50.6907 87.5854 50.6907 87.9565C50.6907 88.2129 50.6423 88.4637 50.5456 88.7088C50.4512 88.954 50.2859 89.2272 50.0497 89.5286C49.8136 89.8277 49.4852 90.1909 49.0646 90.6183L47.6916 92.0554V92.106H50.802V93H46.2544ZM54.7019 86.0909V93H53.6561V87.1367H53.6156L51.9625 88.2163V87.2177L53.6864 86.0909H54.7019ZM58.9762 93.0945C58.5129 93.0945 58.0991 93.0146 57.7347 92.8549C57.3726 92.6953 57.0859 92.4737 56.8745 92.1903C56.6653 91.9047 56.5529 91.5741 56.5371 91.1985H57.5964C57.6099 91.4032 57.6785 91.5808 57.8022 91.7315C57.9281 91.88 58.0923 91.9947 58.2947 92.0756C58.4972 92.1566 58.7221 92.1971 58.9695 92.1971C59.2416 92.1971 59.4822 92.1499 59.6914 92.0554C59.9028 91.9609 60.0681 91.8294 60.1873 91.6607C60.3065 91.4898 60.3661 91.293 60.3661 91.0703C60.3661 90.8387 60.3065 90.6351 60.1873 90.4597C60.0704 90.282 59.8983 90.1426 59.6712 90.0414C59.4463 89.9402 59.1741 89.8896 58.8548 89.8896H58.2711V89.0394H58.8548C59.1112 89.0394 59.3361 88.9933 59.5295 88.9011C59.7251 88.8089 59.8781 88.6807 59.9883 88.5165C60.0985 88.3501 60.1536 88.1555 60.1536 87.9329C60.1536 87.7192 60.1052 87.5337 60.0085 87.3762C59.9141 87.2166 59.7791 87.0917 59.6037 87.0018C59.4305 86.9118 59.2259 86.8668 58.9897 86.8668C58.7648 86.8668 58.5545 86.9084 58.3588 86.9917C58.1654 87.0726 58.008 87.1896 57.8865 87.3425C57.7651 87.4932 57.6999 87.6742 57.6909 87.8857H56.6822C56.6934 87.5123 56.8036 87.1839 57.0128 86.9006C57.2242 86.6172 57.5031 86.3957 57.8494 86.236C58.1958 86.0763 58.5804 85.9964 59.0032 85.9964C59.4463 85.9964 59.8286 86.083 60.1502 86.2562C60.4741 86.4271 60.7237 86.6554 60.8991 86.9411C61.0768 87.2267 61.1645 87.5393 61.1623 87.8789C61.1645 88.2657 61.0566 88.5941 60.8384 88.864C60.6225 89.1339 60.3346 89.3149 59.9748 89.4071V89.4611C60.4336 89.5308 60.7889 89.713 61.0408 90.0076C61.295 90.3023 61.4209 90.6677 61.4187 91.104C61.4209 91.4841 61.3152 91.8249 61.1016 92.1262C60.8902 92.4276 60.6011 92.6649 60.2346 92.8381C59.868 93.009 59.4485 93.0945 58.9762 93.0945ZM65.7605 89.1069V89.984H62.6973V89.1069H65.7605ZM69.7126 86.0909V93H68.6668V87.1367H68.6263L66.9733 88.2163V87.2177L68.6972 86.0909H69.7126ZM71.4365 91.6506V90.8072L74.4221 86.0909H75.0867V87.3324H74.665L72.5296 90.7127V90.7667H76.6217V91.6506H71.4365ZM74.7123 93V91.3942L74.719 91.0096V86.0909H75.7075V93H74.7123ZM80.3259 86.0909V93H79.2801V87.1367H79.2396L77.5866 88.2163V87.2177L79.3105 86.0909H80.3259ZM84.4754 93.0945C84.0526 93.0945 83.6725 93.0135 83.3351 92.8516C83 92.6874 82.7324 92.4625 82.5322 92.1768C82.3321 91.8912 82.2252 91.5651 82.2117 91.1985H83.2238C83.2485 91.4954 83.3801 91.7394 83.6185 91.9306C83.8569 92.1217 84.1425 92.2173 84.4754 92.2173C84.7408 92.2173 84.9758 92.1566 85.1805 92.0352C85.3874 91.9115 85.5493 91.7417 85.6663 91.5257C85.7855 91.3098 85.8451 91.0636 85.8451 90.7869C85.8451 90.5058 85.7844 90.255 85.6629 90.0346C85.5415 89.8142 85.3739 89.641 85.1602 89.5151C84.9488 89.3891 84.7059 89.325 84.4316 89.3228C84.2224 89.3228 84.0121 89.3588 83.8007 89.4308C83.5893 89.5027 83.4184 89.5972 83.2879 89.7141L82.3332 89.5724L82.7211 86.0909H86.5198V86.9849H83.5882L83.3689 88.918H83.4094C83.5443 88.7875 83.7231 88.6784 83.9458 88.5907C84.1707 88.503 84.4113 88.4592 84.6677 88.4592C85.0883 88.4592 85.4627 88.5592 85.7911 88.7594C86.1217 88.9596 86.3815 89.2328 86.5704 89.5792C86.7616 89.9233 86.856 90.3191 86.8538 90.7667C86.856 91.2143 86.7548 91.6135 86.5502 91.9643C86.3477 92.3152 86.0666 92.5918 85.7068 92.7942C85.3492 92.9944 84.9387 93.0945 84.4754 93.0945Z" fill="black"/>
<path d="M31.2859 112.091V119H30.2401V113.137H30.1996L28.5465 114.216V113.218L30.2704 112.091H31.2859ZM35.5669 119.094C35.2588 119.09 34.9552 119.034 34.6561 118.926C34.3592 118.818 34.0893 118.638 33.8464 118.386C33.6035 118.134 33.409 117.796 33.2628 117.371C33.1188 116.945 33.0469 116.415 33.0469 115.778C33.0469 115.175 33.1065 114.64 33.2257 114.172C33.3471 113.705 33.5214 113.31 33.7486 112.988C33.9757 112.664 34.2501 112.418 34.5717 112.249C34.8933 112.081 35.2543 111.996 35.6547 111.996C36.0662 111.996 36.4317 112.077 36.7511 112.239C37.0704 112.401 37.3291 112.625 37.527 112.911C37.7272 113.196 37.8542 113.521 37.9082 113.886H36.8793C36.8095 113.598 36.6712 113.363 36.4643 113.181C36.2574 112.998 35.9875 112.907 35.6547 112.907C35.1486 112.907 34.7539 113.128 34.4705 113.569C34.1894 114.009 34.0477 114.622 34.0455 115.407H34.0961C34.2153 115.211 34.3614 115.045 34.5346 114.908C34.71 114.768 34.9057 114.662 35.1216 114.587C35.3398 114.511 35.5692 114.473 35.8098 114.473C36.2102 114.473 36.5723 114.57 36.8961 114.766C37.2222 114.96 37.482 115.227 37.6754 115.569C37.8688 115.911 37.9656 116.302 37.9656 116.743C37.9656 117.184 37.8655 117.583 37.6653 117.941C37.4674 118.298 37.1885 118.582 36.8287 118.791C36.4688 118.998 36.0482 119.099 35.5669 119.094ZM35.5636 118.217C35.829 118.217 36.0662 118.152 36.2754 118.022C36.4846 117.891 36.6499 117.716 36.7713 117.495C36.8928 117.275 36.9535 117.029 36.9535 116.757C36.9535 116.491 36.8939 116.249 36.7747 116.031C36.6577 115.813 36.4958 115.64 36.2889 115.512C36.0842 115.384 35.8503 115.319 35.5872 115.319C35.387 115.319 35.2015 115.358 35.0305 115.434C34.8619 115.511 34.7134 115.616 34.5852 115.751C34.457 115.886 34.3558 116.041 34.2816 116.217C34.2096 116.39 34.1737 116.573 34.1737 116.767C34.1737 117.025 34.2333 117.265 34.3525 117.485C34.4739 117.706 34.6392 117.883 34.8484 118.018C35.0598 118.151 35.2982 118.217 35.5636 118.217ZM41.8157 112.091V119H40.7698V113.137H40.7294L39.0763 114.216V113.218L40.8002 112.091H41.8157ZM46.7512 115.107V115.984H43.688V115.107H46.7512ZM48.0829 119L51.0989 113.036V112.985H47.6106V112.091H52.1784V113.015L49.1726 119H48.0829ZM55.9729 112.091V119H54.9271V113.137H54.8866L53.2335 114.216V113.218L54.9574 112.091H55.9729ZM60.1764 119.094C59.6928 119.094 59.2655 119.011 58.8944 118.845C58.5256 118.678 58.2366 118.449 58.0274 118.157C57.8182 117.864 57.7148 117.531 57.717 117.158C57.7148 116.866 57.7744 116.597 57.8958 116.352C58.0195 116.104 58.1871 115.899 58.3985 115.734C58.6099 115.568 58.846 115.462 59.1069 115.417V115.377C58.7628 115.294 58.4873 115.109 58.2804 114.824C58.0735 114.538 57.9712 114.21 57.9734 113.838C57.9712 113.485 58.0645 113.17 58.2534 112.894C58.4446 112.615 58.7066 112.396 59.0395 112.236C59.3723 112.076 59.7513 111.996 60.1764 111.996C60.5969 111.996 60.9725 112.077 61.3031 112.239C61.636 112.399 61.898 112.618 62.0892 112.897C62.2803 113.174 62.3771 113.488 62.3793 113.838C62.3771 114.21 62.2714 114.538 62.0622 114.824C61.853 115.109 61.5809 115.294 61.2458 115.377V115.417C61.5044 115.462 61.7372 115.568 61.9441 115.734C62.1533 115.899 62.3197 116.104 62.4434 116.352C62.5694 116.597 62.6334 116.866 62.6357 117.158C62.6334 117.531 62.5277 117.864 62.3186 118.157C62.1094 118.449 61.8193 118.678 61.4482 118.845C61.0794 119.011 60.6554 119.094 60.1764 119.094ZM60.1764 118.241C60.462 118.241 60.7094 118.194 60.9185 118.099C61.1277 118.003 61.2896 117.869 61.4043 117.698C61.519 117.525 61.5775 117.322 61.5798 117.091C61.5775 116.85 61.5145 116.637 61.3908 116.453C61.2694 116.269 61.1041 116.123 60.8949 116.018C60.6858 115.912 60.4462 115.859 60.1764 115.859C59.9042 115.859 59.6624 115.912 59.451 116.018C59.2396 116.123 59.0732 116.269 58.9517 116.453C58.8303 116.637 58.7707 116.85 58.7729 117.091C58.7707 117.322 58.8258 117.525 58.9383 117.698C59.053 117.869 59.216 118.003 59.4274 118.099C59.6388 118.194 59.8885 118.241 60.1764 118.241ZM60.1764 115.026C60.4058 115.026 60.6093 114.98 60.787 114.888C60.9647 114.795 61.1041 114.667 61.2053 114.503C61.3088 114.339 61.3616 114.147 61.3639 113.926C61.3616 113.71 61.3099 113.521 61.2087 113.359C61.1097 113.197 60.9714 113.073 60.7937 112.985C60.616 112.895 60.4103 112.85 60.1764 112.85C59.938 112.85 59.7288 112.895 59.5489 112.985C59.3712 113.073 59.2329 113.197 59.1339 113.359C59.035 113.521 58.9866 113.71 58.9889 113.926C58.9866 114.147 59.0361 114.339 59.1373 114.503C59.2385 114.667 59.3779 114.795 59.5556 114.888C59.7355 114.98 59.9425 115.026 60.1764 115.026ZM66.9109 115.107V115.984H63.8477V115.107H66.9109ZM70.863 112.091V119H69.8172V113.137H69.7767L68.1237 114.216V113.218L69.8476 112.091H70.863ZM75.0294 111.996C75.3375 111.999 75.6411 112.055 75.9403 112.165C76.2394 112.275 76.5093 112.455 76.7499 112.705C76.9928 112.955 77.1862 113.292 77.3302 113.717C77.4764 114.14 77.5506 114.666 77.5528 115.296C77.5528 115.901 77.4921 116.439 77.3706 116.912C77.2492 117.382 77.0749 117.779 76.8477 118.103C76.6228 118.426 76.3496 118.673 76.028 118.841C75.7064 119.01 75.3443 119.094 74.9417 119.094C74.5301 119.094 74.1646 119.013 73.8453 118.852C73.5259 118.69 73.2661 118.466 73.066 118.18C72.8658 117.892 72.741 117.562 72.6915 117.188H73.7204C73.7879 117.485 73.9251 117.726 74.132 117.91C74.3412 118.093 74.6111 118.184 74.9417 118.184C75.4477 118.184 75.8424 117.963 76.1258 117.522C76.4092 117.079 76.552 116.461 76.5542 115.667H76.5003C76.3833 115.86 76.2371 116.027 76.0617 116.166C75.8885 116.306 75.694 116.414 75.4781 116.49C75.2622 116.567 75.0316 116.605 74.7865 116.605C74.3884 116.605 74.0263 116.507 73.7002 116.311C73.3741 116.116 73.1143 115.847 72.9209 115.505C72.7275 115.163 72.6308 114.773 72.6308 114.334C72.6308 113.898 72.7297 113.502 72.9276 113.147C73.1278 112.791 73.4067 112.51 73.7643 112.303C74.1241 112.094 74.5458 111.992 75.0294 111.996ZM75.0328 112.874C74.7696 112.874 74.5323 112.939 74.3209 113.069C74.1118 113.197 73.9465 113.372 73.825 113.592C73.7036 113.81 73.6428 114.053 73.6428 114.321C73.6428 114.588 73.7013 114.831 73.8183 115.05C73.9375 115.265 74.0994 115.438 74.3041 115.566C74.511 115.692 74.7471 115.755 75.0125 115.755C75.2104 115.755 75.3949 115.716 75.5658 115.64C75.7367 115.563 75.8863 115.458 76.0145 115.323C76.1427 115.186 76.2427 115.03 76.3147 114.857C76.3867 114.684 76.4227 114.502 76.4227 114.311C76.4227 114.057 76.3619 113.82 76.2405 113.602C76.1213 113.384 75.9571 113.209 75.748 113.076C75.5388 112.941 75.3004 112.874 75.0328 112.874ZM78.7715 119V118.244L81.1094 115.822C81.3591 115.559 81.5649 115.328 81.7268 115.131C81.891 114.93 82.0135 114.74 82.0945 114.56C82.1755 114.38 82.216 114.189 82.216 113.987C82.216 113.757 82.162 113.56 82.054 113.393C81.9461 113.224 81.7988 113.095 81.6121 113.005C81.4254 112.913 81.2151 112.867 80.9812 112.867C80.7338 112.867 80.5179 112.917 80.3335 113.019C80.1491 113.12 80.0074 113.263 79.9084 113.447C79.8095 113.632 79.76 113.847 79.76 114.095H78.7648C78.7648 113.674 78.8615 113.307 79.0549 112.992C79.2483 112.677 79.5137 112.433 79.8511 112.26C80.1884 112.084 80.5719 111.996 81.0015 111.996C81.4355 111.996 81.8179 112.083 82.1485 112.256C82.4813 112.427 82.7411 112.661 82.9278 112.958C83.1145 113.253 83.2078 113.585 83.2078 113.956C83.2078 114.213 83.1594 114.464 83.0627 114.709C82.9683 114.954 82.803 115.227 82.5668 115.529C82.3307 115.828 82.0023 116.191 81.5817 116.618L80.2087 118.055V118.106H83.3191V119H78.7715ZM87.0031 119.115C86.47 119.112 86.0146 118.972 85.6368 118.693C85.2589 118.414 84.9699 118.008 84.7698 117.475C84.5696 116.942 84.4695 116.3 84.4695 115.549C84.4695 114.8 84.5696 114.16 84.7698 113.629C84.9722 113.098 85.2623 112.694 85.6401 112.415C86.0202 112.136 86.4745 111.996 87.0031 111.996C87.5316 111.996 87.9848 112.137 88.3626 112.418C88.7405 112.697 89.0295 113.102 89.2296 113.633C89.432 114.161 89.5332 114.8 89.5332 115.549C89.5332 116.302 89.4332 116.945 89.233 117.479C89.0328 118.009 88.7438 118.415 88.366 118.696C87.9881 118.975 87.5338 119.115 87.0031 119.115ZM87.0031 118.214C87.4709 118.214 87.8363 117.986 88.0995 117.529C88.3649 117.073 88.4976 116.412 88.4976 115.549C88.4976 114.975 88.4368 114.491 88.3154 114.095C88.1962 113.697 88.0241 113.395 87.7992 113.191C87.5766 112.984 87.3112 112.88 87.0031 112.88C86.5375 112.88 86.172 113.11 85.9066 113.569C85.6413 114.027 85.5074 114.687 85.5052 115.549C85.5052 116.125 85.5648 116.612 85.684 117.01C85.8054 117.405 85.9775 117.706 86.2002 117.91C86.4228 118.113 86.6904 118.214 87.0031 118.214Z" fill="black"/>
<path d="M316 76H1V103H316" stroke="#005B99" stroke-width="2"/>
</svg>
