<svg width="300" height="59" viewBox="0 0 300 59" fill="none" xmlns="http://www.w3.org/2000/svg">
<g clip-path="url(#clip0)">
<path d="M81.864 17.4561C81.864 20 81.8421 20.6579 81.6666 21.3816C81.4254 22.4781 80.8114 24.364 77.4342 24.364C74.5614 24.364 73.3772 22.6535 73.0921 20.9211C73.0044 20.3947 72.8947 19.5833 72.8947 14.8904C72.8947 9.93421 72.9824 9.3421 73.114 8.50877C73.2675 7.67544 73.75 4.95614 77.6316 4.95614C79.1886 4.95614 81.0965 5.61403 81.5789 7.67544C81.7982 8.57456 81.7982 9.69298 81.7763 11.1623H79.5833V9.75877C79.5833 8.48684 79.5614 6.92982 77.6316 6.92982C75.6359 6.92982 75.4605 8.5307 75.3947 9.25438C75.2412 10.614 75.2412 13.4649 75.2412 14.9123C75.2412 16.0526 75.2851 19.8684 75.3947 20.614C75.4824 20.9649 75.7237 22.3684 77.5877 22.3684C79.2763 22.3684 79.5175 20.9211 79.5833 20.5921C79.693 20.1096 79.693 19.693 79.693 17.4342L81.864 17.4561Z" fill="black"/>
<path d="M91.0965 21.2719C91.0965 23.3553 91.1842 23.6403 91.7324 24.1009H89.1228V22.5C88.8377 23.0921 88.1798 24.3421 86.3816 24.3421C85.7675 24.3421 85.2412 24.2105 84.7807 23.9474C83.5307 23.2018 83.3991 21.9298 83.3991 20.943C83.3991 18.7719 84.2544 18.0921 85.636 17.1272C87.6535 15.7675 87.8728 15.636 88.9912 14.5833C88.9912 13.4868 88.9912 12.2368 87.3684 12.2368C85.7675 12.2368 85.7675 13.3553 85.7675 14.1667C85.7675 14.5614 85.7895 14.8684 85.8114 15.1535H83.8596C83.8377 14.5833 83.8377 13.1579 84.057 12.4781C84.7149 10.5263 86.9956 10.5263 87.5877 10.5263C88.5526 10.5263 89.5175 10.6798 90.2851 11.5132C91.1184 12.3684 91.1184 13.0921 91.1184 14.8903V21.2719H91.0965ZM88.9912 16.4912C88.3772 17.0833 88.2675 17.1491 87.2368 17.9386C86.2719 18.6842 85.5482 19.2544 85.5482 20.7895C85.5482 21.3816 85.5482 22.7632 86.9956 22.7632C87.3903 22.7632 87.7851 22.6316 88.1359 22.3684C88.9035 21.7763 88.9912 20.8772 88.9912 19.8026V16.4912Z" fill="black"/>
<path d="M101.118 24.1009H98.9474V15.4167C98.9474 13.4868 98.9474 12.2149 97.3684 12.2149C95.5921 12.2149 95.5921 14.0351 95.5921 15.5044V24.1228H93.4649V10.7895H95.4824V12.0175C95.8772 11.5351 96.7105 10.5482 98.3333 10.5482C101.096 10.5482 101.096 12.8947 101.096 14.7368V24.1009H101.118Z" fill="black"/>
<path d="M110.548 21.2719C110.548 23.3553 110.636 23.6403 111.184 24.1009H108.575V22.5C108.289 23.0921 107.632 24.3421 105.833 24.3421C105.219 24.3421 104.693 24.2105 104.232 23.9474C102.982 23.2018 102.851 21.9298 102.851 20.943C102.851 18.7719 103.706 18.0921 105.088 17.1272C107.105 15.7675 107.325 15.636 108.443 14.5833C108.443 13.4868 108.443 12.2368 106.82 12.2368C105.219 12.2368 105.219 13.3553 105.219 14.1667C105.219 14.5614 105.241 14.8684 105.263 15.1535H103.311C103.289 14.5833 103.289 13.1579 103.509 12.4781C104.167 10.5263 106.447 10.5263 107.039 10.5263C108.004 10.5263 108.969 10.6798 109.737 11.5132C110.57 12.3684 110.57 13.0921 110.57 14.8903L110.548 21.2719ZM108.443 16.4912C107.829 17.0833 107.719 17.1491 106.689 17.9386C105.724 18.6842 105 19.2544 105 20.7895C105 21.3816 105 22.7632 106.447 22.7632C106.842 22.7632 107.237 22.6316 107.588 22.3684C108.355 21.7763 108.443 20.8772 108.443 19.8026V16.4912Z" fill="black"/>
<path d="M120.57 24.1009H118.575V22.6974C118.289 23.2018 117.588 24.3421 115.768 24.3421C115.504 24.3421 115.197 24.3202 114.934 24.2325C112.763 23.6623 112.697 21.4035 112.697 17.5219C112.697 16.2719 112.697 13.7939 113.026 12.7412C113.399 11.4912 114.408 10.5263 115.877 10.5263C117.39 10.5263 118.048 11.3158 118.421 11.8421V5.26316H120.592V24.1009H120.57ZM116.601 12.2149C115 12.2149 114.956 13.8377 114.89 14.9123C114.847 16.3596 114.847 16.3596 114.847 18.5088C114.847 19.1009 114.847 19.7807 114.89 20.614C114.934 21.1842 115.022 22.6754 116.601 22.6754C118.421 22.6754 118.421 20.8991 118.465 17.5C118.509 14.2982 118.509 12.2149 116.601 12.2149Z" fill="black"/>
<path d="M125.022 8.42105H122.917V5.67982H125.022V8.42105ZM125.022 24.1009H122.917V10.7456H125.022V24.1009Z" fill="black"/>
<path d="M134.43 21.2719C134.43 23.3553 134.518 23.6403 135.066 24.1009H132.456V22.5C132.171 23.0921 131.513 24.3421 129.715 24.3421C129.101 24.3421 128.575 24.2105 128.114 23.9474C126.864 23.2018 126.732 21.9298 126.732 20.943C126.732 18.7719 127.588 18.0921 128.969 17.1272C130.987 15.7675 131.206 15.636 132.325 14.5833C132.325 13.4868 132.325 12.2368 130.702 12.2368C129.101 12.2368 129.101 13.3553 129.101 14.1667C129.101 14.5614 129.123 14.8684 129.145 15.1535H127.193C127.171 14.5833 127.171 13.1579 127.39 12.4781C128.048 10.5263 130.329 10.5263 130.921 10.5263C131.886 10.5263 132.851 10.6798 133.618 11.5132C134.452 12.3684 134.452 13.0921 134.452 14.8903L134.43 21.2719ZM132.325 16.4912C131.71 17.0833 131.601 17.1491 130.57 17.9386C129.605 18.6842 128.882 19.2544 128.882 20.7895C128.882 21.3816 128.882 22.7632 130.329 22.7632C130.724 22.7632 131.118 22.6316 131.469 22.3684C132.237 21.7763 132.325 20.8772 132.325 19.8026V16.4912Z" fill="black"/>
<path d="M144.452 24.1009H142.281V15.4167C142.281 13.4868 142.281 12.2149 140.702 12.2149C138.925 12.2149 138.925 14.0351 138.925 15.5044V24.1228H136.798V10.7895H138.816V12.0175C139.211 11.5351 140.044 10.5482 141.667 10.5482C144.43 10.5482 144.43 12.8947 144.43 14.7368V24.1009H144.452Z" fill="black"/>
<path d="M153.07 24.1009V5.26316H156.623C158.465 5.26316 160.154 5.26316 161.272 6.66667C162.149 7.76316 162.237 8.75 162.237 13.3114C162.237 14.3202 162.237 15.5263 162.193 18.0921C162.171 19.9342 162.105 21.2719 161.447 22.3903C160.373 24.1009 158.618 24.1009 156.601 24.1009H153.07ZM155.417 22.0175H156.93C158.421 22.0175 159.496 21.886 159.759 20.1974C159.89 19.3202 159.912 16.6667 159.912 15.6798C159.912 13.9474 159.912 13.2895 159.89 11.4693C159.868 9.40789 159.847 8.39912 159.013 7.80702C158.421 7.41228 157.895 7.41228 155.417 7.41228V22.0175Z" fill="black"/>
<path d="M166.667 8.42105H164.561V5.67982H166.667V8.42105ZM166.667 24.1009H164.561V10.7456H166.667V24.1009Z" fill="black"/>
<path d="M176.71 10.7675V23.3991C176.71 25.1096 176.71 25.636 176.469 26.3816C175.855 28.2675 173.706 28.5746 172.544 28.5746C170.965 28.5746 168.925 27.8728 168.925 25.1535H170.877C170.899 25.7237 170.965 26.886 172.697 26.886C174.561 26.886 174.561 25.4386 174.561 24.2544V22.6974C173.838 23.7281 172.873 24.1667 171.864 24.1667C170.899 24.1667 169.671 23.7719 169.167 22.4123C168.794 21.4254 168.794 20.4605 168.794 17.1491C168.794 14.8026 168.816 13.8596 169.035 12.9825C169.145 12.4781 169.627 10.5044 172.105 10.5044C173.838 10.5044 174.43 11.4474 174.715 11.9518V10.7456H176.71V10.7675ZM174.517 14.2325C174.474 12.9605 173.925 12.0395 172.697 12.0395C170.943 12.0395 170.943 13.9693 170.943 16.0746C170.943 17.3903 170.943 19.7807 171.031 20.7237C171.075 21.7544 171.513 22.5658 172.653 22.5658C173.662 22.5658 174.298 21.9298 174.496 20.943C174.605 20.3289 174.605 18.3772 174.605 17.6316C174.605 17.5658 174.539 14.6053 174.517 14.2325Z" fill="black"/>
<path d="M181.14 8.42105H179.035V5.67982H181.14V8.42105ZM181.14 24.1009H179.035V10.7456H181.14V24.1009Z" fill="black"/>
<path d="M188.202 12.3684H186.25V20.8553C186.25 21.7105 186.338 22.5658 187.478 22.5658C187.829 22.5658 188.004 22.5219 188.224 22.4561V24.1886C187.939 24.2763 187.61 24.3421 187.039 24.3421C185.175 24.3421 184.583 23.7061 184.32 23.0921C184.057 22.4781 184.057 22.2149 184.057 19.7588V12.3684H182.456V10.7456H184.101V7.17105H186.228V10.7456H188.18V12.3684H188.202Z" fill="black"/>
<path d="M196.908 21.2719C196.908 23.3553 196.996 23.6403 197.544 24.1009H194.934V22.5C194.649 23.0921 193.991 24.3421 192.193 24.3421C191.579 24.3421 191.053 24.2105 190.592 23.9474C189.342 23.2018 189.211 21.9298 189.211 20.943C189.211 18.7719 190.066 18.0921 191.447 17.1272C193.465 15.7675 193.684 15.636 194.803 14.5833C194.803 13.4868 194.803 12.2368 193.18 12.2368C191.579 12.2368 191.579 13.3553 191.579 14.1667C191.579 14.5614 191.601 14.8684 191.623 15.1535H189.671C189.649 14.5833 189.649 13.1579 189.868 12.4781C190.526 10.5263 192.807 10.5263 193.399 10.5263C194.364 10.5263 195.329 10.6798 196.096 11.5132C196.93 12.3684 196.93 13.0921 196.93 14.8903L196.908 21.2719ZM194.803 16.4912C194.189 17.0833 194.079 17.1491 193.048 17.9386C192.083 18.6842 191.36 19.2544 191.36 20.7895C191.36 21.3816 191.36 22.7632 192.807 22.7632C193.202 22.7632 193.597 22.6316 193.947 22.3684C194.715 21.7763 194.803 20.8772 194.803 19.8026V16.4912Z" fill="black"/>
<path d="M201.425 24.1009H199.254V5.26316H201.425V24.1009Z" fill="black"/>
<path d="M209.386 17.5877H211.623C211.623 19.5614 211.623 19.7807 211.645 20.1316C211.667 20.614 211.842 22.3684 213.904 22.3684C214.649 22.3684 216.272 22.0833 216.272 20.0219C216.272 18.5307 215.614 17.7851 214.539 16.6886L211.974 14.0789C210.197 12.2368 209.803 11.0965 209.803 9.38596C209.803 8.35526 209.803 4.97807 214.167 4.97807C215.132 4.97807 216.754 5.13158 217.61 6.53509C218.136 7.41228 218.136 8.04825 218.136 10.8333H216.075C216.031 9.05702 216.031 8.85965 215.965 8.50877C215.921 8.15789 215.68 6.99561 214.013 6.99561C212.039 6.99561 212.039 8.70614 212.039 9.23246C212.039 10.636 212.544 11.2061 213.882 12.6096L216.25 15.0877C217.807 16.7325 218.487 17.6974 218.487 19.8684C218.487 23.8597 215.329 24.386 213.925 24.386C212.105 24.386 211.162 23.7719 210.768 23.443C209.561 22.5 209.298 21.0965 209.298 19.693V17.5877H209.386V17.5877Z" fill="black"/>
<path d="M227.719 19.9781C227.719 20.8772 227.719 21.557 227.478 22.2368C226.711 24.3421 224.627 24.3421 223.947 24.3421C223.158 24.3421 221.316 24.2325 220.526 22.2807C220.285 21.6447 220.175 21.3816 220.175 16.0088C220.175 13.1579 220.417 10.5482 223.86 10.5482C224.715 10.5482 227.171 10.5482 227.588 13.4649C227.697 14.1228 227.697 14.4956 227.697 17.8728H222.346C222.346 18.9035 222.325 20.2632 222.368 20.7456C222.412 21.25 222.522 22.6316 224.057 22.6316C225.614 22.6316 225.746 21.3158 225.746 19.9561L227.719 19.9781ZM225.724 16.1184V14.4737C225.702 13.75 225.68 12.171 224.079 12.171C222.982 12.171 222.675 12.8728 222.522 13.2895C222.368 13.7939 222.368 14.2325 222.368 16.1184H225.724Z" fill="black"/>
<path d="M232.039 24.1009H229.846V10.7675H231.908V13.2675C232.39 12.2368 233.224 10.4167 235.504 10.5482V12.7632C234.539 12.7632 233.377 12.7632 232.632 13.8596C232.215 14.4956 232.039 15.2412 232.039 17.7193V24.1009Z" fill="black"/>
<path d="M241.71 24.1009H239.276L236.425 10.7675H238.75L240.504 21.6667L242.456 10.7675H244.759L241.71 24.1009Z" fill="black"/>
<path d="M248.07 8.42105H245.965V5.67982H248.07V8.42105ZM248.07 24.1009H245.965V10.7456H248.07V24.1009Z" fill="black"/>
<path d="M257.763 19.1447C257.763 21.5789 257.763 24.3421 253.904 24.3421C252.281 24.3421 250.965 23.75 250.526 22.2368C250.263 21.3596 250.197 19.9342 250.197 17.7632C250.197 13.0263 250.329 10.5263 254.123 10.5263C257.785 10.5263 257.785 12.9605 257.785 15.5921H255.768C255.768 13.2895 255.768 12.1491 254.079 12.1491C252.39 12.1491 252.368 13.2895 252.368 17.0395C252.368 17.5658 252.368 19.4737 252.39 20.614C252.412 21.3158 252.478 22.6754 254.035 22.6754C255.614 22.6754 255.746 21.3596 255.746 19.1447H257.763V19.1447Z" fill="black"/>
<path d="M267.149 19.9781C267.149 20.8772 267.149 21.557 266.908 22.2368C266.14 24.3421 264.057 24.3421 263.377 24.3421C262.588 24.3421 260.746 24.2325 259.956 22.2807C259.715 21.6447 259.605 21.3816 259.605 16.0088C259.605 13.1579 259.846 10.5482 263.289 10.5482C264.145 10.5482 266.601 10.5482 267.018 13.4649C267.127 14.1228 267.127 14.4956 267.127 17.8728H261.798C261.798 18.9035 261.776 20.2632 261.82 20.7456C261.864 21.25 261.974 22.6316 263.509 22.6316C265.066 22.6316 265.197 21.3158 265.197 19.9561L267.149 19.9781ZM265.154 16.1184V14.4737C265.132 13.75 265.11 12.171 263.509 12.171C262.412 12.171 262.105 12.8728 261.952 13.2895C261.798 13.7939 261.798 14.2325 261.798 16.1184H265.154Z" fill="black"/>
<path d="M72.4561 44.7149H74.693C74.693 46.6886 74.693 46.9079 74.7149 47.2588C74.7368 47.7412 74.9123 49.4956 76.9737 49.4956C77.7193 49.4956 79.3421 49.2105 79.3421 47.1491C79.3421 45.6579 78.6842 44.9123 77.6096 43.8158L75.0438 41.2061C73.2675 39.364 72.8728 38.2237 72.8728 36.5132C72.8728 35.4825 72.8728 32.1053 77.2368 32.1053C78.2017 32.1053 79.8245 32.2588 80.6798 33.6623C81.2061 34.5395 81.2061 35.1754 81.2061 37.9605H79.1447C79.1009 36.1842 79.1009 35.9868 79.0351 35.636C78.9912 35.2851 78.75 34.1228 77.0833 34.1228C75.1096 34.1228 75.1096 35.8333 75.1096 36.3596C75.1096 37.7632 75.614 38.3333 76.9517 39.7368L79.3202 42.2149C80.8772 43.8596 81.557 44.8246 81.557 46.9956C81.557 50.9868 78.421 51.5132 76.9956 51.5132C75.1754 51.5132 74.2324 50.8991 73.8377 50.5702C72.6316 49.6272 72.3684 48.2237 72.3684 46.8202V44.7149H72.4561Z" fill="black"/>
<path d="M90.7675 47.0833C90.7675 47.9825 90.7675 48.6623 90.5263 49.3421C89.7587 51.4474 87.6754 51.4474 86.9956 51.4474C86.2061 51.4474 84.364 51.3377 83.5745 49.386C83.3333 48.75 83.2236 48.4868 83.2236 43.114C83.2236 40.2632 83.4649 37.6535 86.9079 37.6535C87.7631 37.6535 90.2193 37.6535 90.6359 40.5702C90.7456 41.2281 90.7456 41.6009 90.7456 44.9781H85.3947C85.3947 46.0088 85.3728 47.3684 85.4166 47.8509C85.4605 48.3553 85.5701 49.7368 87.1052 49.7368C88.6623 49.7368 88.7938 48.4211 88.7938 47.0614H90.7675V47.0833V47.0833ZM88.7719 43.2456V41.6009C88.75 40.8772 88.728 39.2982 87.1272 39.2982C86.0307 39.2982 85.7236 40 85.5701 40.4167C85.4166 40.9211 85.4166 41.3596 85.4166 43.2456H88.7719Z" fill="black"/>
<path d="M95.0878 51.2061H92.8948V37.8728H94.9562V40.3728C95.4386 39.3421 96.272 37.5219 98.5527 37.6535V39.8684C97.5878 39.8684 96.4255 39.8684 95.6799 40.9649C95.2632 41.6009 95.0878 42.3465 95.0878 44.8246V51.2061V51.2061Z" fill="black"/>
<path d="M104.781 51.2061H102.346L99.4956 37.8728H101.82L103.575 48.7719L105.526 37.8728H107.829L104.781 51.2061Z" fill="black"/>
<path d="M111.118 35.5263H109.013V32.7851H111.118V35.5263ZM111.118 51.2061H109.013V37.8509H111.118V51.2061Z" fill="black"/>
<path d="M120.833 46.25C120.833 48.6842 120.833 51.4474 116.974 51.4474C115.351 51.4474 114.035 50.8553 113.596 49.3421C113.333 48.4649 113.268 47.0395 113.268 44.8684C113.268 40.1316 113.399 37.6316 117.193 37.6316C120.855 37.6316 120.855 40.0658 120.855 42.6974H118.816C118.816 40.3947 118.816 39.2544 117.127 39.2544C115.439 39.2544 115.417 40.3947 115.417 44.1447C115.417 44.6711 115.417 46.5789 115.439 47.7193C115.461 48.4211 115.526 49.7807 117.083 49.7807C118.662 49.7807 118.794 48.4649 118.794 46.25H120.833Z" fill="black"/>
<path d="M130.219 47.0833C130.219 47.9825 130.219 48.6623 129.978 49.3421C129.211 51.4474 127.127 51.4474 126.447 51.4474C125.658 51.4474 123.816 51.3377 123.026 49.386C122.785 48.75 122.675 48.4868 122.675 43.114C122.675 40.2632 122.917 37.6535 126.36 37.6535C127.215 37.6535 129.671 37.6535 130.088 40.5702C130.197 41.2281 130.197 41.6009 130.197 44.9781H124.846C124.846 46.0088 124.825 47.3684 124.868 47.8509C124.912 48.3553 125.022 49.7368 126.557 49.7368C128.114 49.7368 128.246 48.4211 128.246 47.0614H130.219V47.0833ZM128.224 43.2456V41.6009C128.202 40.8772 128.18 39.2982 126.579 39.2982C125.482 39.2982 125.175 40 125.022 40.4167C124.868 40.9211 124.868 41.3596 124.868 43.2456H128.224Z" fill="black"/>
<path d="M146.118 51.2061H143.947V42.5219C143.947 40.5921 143.947 39.3202 142.368 39.3202C140.592 39.3202 140.592 41.1403 140.592 42.6096V51.2281H138.465V37.8947H140.482V39.1228C140.877 38.6403 141.711 37.6535 143.333 37.6535C146.096 37.6535 146.096 40 146.096 41.8421V51.2061H146.118Z" fill="black"/>
<path d="M156.118 51.2061H154.057V49.9781C153.64 50.5044 152.873 51.4474 151.228 51.4474C150.11 51.4474 149.408 50.943 149.057 50.4167C148.487 49.5614 148.443 48.5965 148.443 46.2719V37.8728H150.57V46.6228L150.592 47.8947C150.592 48.4211 150.636 49.8465 152.149 49.8465C153.991 49.8465 153.991 47.9825 153.991 46.6009V37.8728H156.096V51.2061H156.118Z" fill="black"/>
<path d="M171.689 51.2061H169.518V42.4781C169.518 41.2939 169.496 40.7895 169.386 40.3947C169.189 39.8026 168.728 39.2763 167.829 39.2763C166.118 39.2763 166.118 41.0526 166.118 42.4561V51.2061H163.991V42.4781C163.991 40.7017 163.991 39.2763 162.346 39.2763C160.614 39.2763 160.614 40.9649 160.614 42.5V51.1842H158.443V37.8509H160.461V39.1886C160.855 38.6623 161.667 37.6096 163.311 37.6096C165.022 37.6096 165.636 38.6403 165.921 39.1886C166.338 38.6184 167.061 37.6096 168.684 37.6096C168.947 37.6096 169.934 37.6096 170.768 38.443C171.667 39.3421 171.667 40.3289 171.667 42.5V51.2061H171.689Z" fill="black"/>
<path d="M181.316 47.0833C181.316 47.9825 181.316 48.6623 181.075 49.3421C180.307 51.4474 178.224 51.4474 177.544 51.4474C176.754 51.4474 174.912 51.3377 174.123 49.386C173.882 48.75 173.772 48.4868 173.772 43.114C173.772 40.2632 174.013 37.6535 177.456 37.6535C178.311 37.6535 180.768 37.6535 181.184 40.5702C181.294 41.2281 181.294 41.6009 181.294 44.9781H175.943C175.943 46.0088 175.921 47.3684 175.965 47.8509C176.009 48.3553 176.118 49.7368 177.653 49.7368C179.21 49.7368 179.342 48.4211 179.342 47.0614H181.316V47.0833ZM179.32 43.2456V41.6009C179.298 40.8772 179.276 39.2982 177.675 39.2982C176.579 39.2982 176.272 40 176.118 40.4167C175.965 40.921 175.965 41.3596 175.965 43.2456H179.32ZM178.114 36.2061H176.403L177.807 33.3333H180.724L178.114 36.2061Z" fill="black"/>
<path d="M185.636 51.2061H183.443V37.8728H185.504V40.3728C185.987 39.3421 186.82 37.5219 189.101 37.6535V39.8684C188.136 39.8684 186.974 39.8684 186.228 40.9649C185.811 41.6009 185.636 42.3465 185.636 44.8246V51.2061Z" fill="black"/>
<path d="M192.215 35.5263H190.11V32.7851H192.215V35.5263ZM192.215 51.2061H190.11V37.8509H192.215V51.2061Z" fill="black"/>
<path d="M202.215 55.4605H200.11V49.8904C199.846 50.307 199.145 51.4693 197.434 51.4693C195.833 51.4693 194.824 50.3509 194.517 48.9035C194.386 48.1579 194.32 45.6798 194.32 44.7807C194.32 43.6842 194.32 41.0746 194.517 40.1974C194.89 38.5746 196.162 37.6535 197.5 37.6535C199.123 37.6535 199.759 38.6842 200.132 39.3421V37.8947H202.193L202.215 55.4605ZM200.044 41.4035C200.022 40.8991 199.89 39.3421 198.202 39.3421C196.754 39.3421 196.689 40.614 196.623 41.1623C196.579 41.8202 196.579 43.6184 196.579 44.7807C196.579 48.3114 196.579 49.7588 198.224 49.7588C200.153 49.7588 200.153 47.807 200.153 44.4518C200.153 43.8158 200.088 42.0614 200.044 41.4035Z" fill="black"/>
<path d="M212.237 51.2061H210.175V49.9781C209.759 50.5044 208.991 51.4474 207.346 51.4474C206.228 51.4474 205.526 50.943 205.175 50.4167C204.605 49.5614 204.561 48.5965 204.561 46.2719V37.8728H206.689V46.6228L206.711 47.8947C206.711 48.4211 206.754 49.8465 208.268 49.8465C210.11 49.8465 210.11 47.9825 210.11 46.6009V37.8728H212.215V51.2061H212.237Z" fill="black"/>
<path d="M221.886 47.0833C221.886 47.9825 221.886 48.6623 221.645 49.3421C220.877 51.4474 218.794 51.4474 218.114 51.4474C217.325 51.4474 215.482 51.3377 214.693 49.386C214.452 48.75 214.342 48.4868 214.342 43.114C214.342 40.2632 214.583 37.6535 218.026 37.6535C218.882 37.6535 221.338 37.6535 221.754 40.5702C221.864 41.2281 221.864 41.6009 221.864 44.9781H216.513C216.513 46.0088 216.491 47.3684 216.535 47.8509C216.579 48.3553 216.689 49.7368 218.224 49.7368C219.781 49.7368 219.912 48.4211 219.912 47.0614H221.886V47.0833ZM219.89 43.2456V41.6009C219.868 40.8772 219.847 39.2982 218.246 39.2982C217.149 39.2982 216.842 40 216.689 40.4167C216.535 40.9211 216.535 41.3596 216.535 43.2456H219.89Z" fill="black"/>
<path d="M237.478 46.25C237.478 48.6842 237.478 51.4474 233.618 51.4474C231.996 51.4474 230.68 50.8553 230.241 49.3421C229.978 48.4649 229.912 47.0395 229.912 44.8684C229.912 40.1316 230.044 37.6316 233.838 37.6316C237.5 37.6316 237.5 40.0658 237.5 42.6974H235.482C235.482 40.3947 235.482 39.2544 233.794 39.2544C232.105 39.2544 232.083 40.3947 232.083 44.1447C232.083 44.6711 232.083 46.5789 232.105 47.7193C232.127 48.4211 232.193 49.7807 233.75 49.7807C235.329 49.7807 235.461 48.4649 235.461 46.25H237.478Z" fill="black"/>
<path d="M246.623 48.3772C246.623 50.4605 246.71 50.7456 247.259 51.2061H244.649V49.6053C244.364 50.1974 243.706 51.4474 241.908 51.4474C241.294 51.4474 240.768 51.3158 240.307 51.0526C239.057 50.307 238.925 49.0351 238.925 48.0482C238.925 45.8772 239.781 45.1974 241.162 44.2325C243.18 42.8728 243.399 42.7412 244.518 41.6886C244.518 40.5921 244.518 39.3421 242.895 39.3421C241.294 39.3421 241.294 40.4605 241.294 41.2719C241.294 41.6667 241.316 41.9737 241.338 42.2588H239.386C239.364 41.6886 239.364 40.2632 239.583 39.5833C240.241 37.6316 242.522 37.6316 243.114 37.6316C244.079 37.6316 245.044 37.7851 245.811 38.6184C246.645 39.4737 246.645 40.1974 246.645 41.9956L246.623 48.3772ZM244.518 43.6184C243.903 44.2105 243.794 44.2763 242.763 45.0658C241.798 45.8114 241.075 46.3816 241.075 47.9167C241.075 48.5088 241.075 49.8903 242.522 49.8903C242.917 49.8903 243.311 49.7588 243.662 49.4956C244.43 48.9035 244.518 48.0044 244.518 46.9298V43.6184Z" fill="black"/>
<path d="M256.645 51.2061H254.474V42.5219C254.474 40.5921 254.474 39.3202 252.895 39.3202C251.118 39.3202 251.118 41.1403 251.118 42.6096V51.2281H248.991V37.8947H251.009V39.1228C251.403 38.6403 252.237 37.6535 253.86 37.6535C256.623 37.6535 256.623 40 256.623 41.8421L256.645 51.2061Z" fill="black"/>
<path d="M266.075 48.3772C266.075 50.4605 266.162 50.7456 266.71 51.2061H264.101V49.6053C263.816 50.1974 263.158 51.4474 261.36 51.4474C260.746 51.4474 260.219 51.3158 259.759 51.0526C258.509 50.307 258.377 49.0351 258.377 48.0482C258.377 45.8772 259.232 45.1974 260.614 44.2325C262.632 42.8728 262.851 42.7412 263.969 41.6886C263.969 40.5921 263.969 39.3421 262.346 39.3421C260.746 39.3421 260.746 40.4605 260.746 41.2719C260.746 41.6667 260.767 41.9737 260.789 42.2588H258.838C258.816 41.6886 258.816 40.2632 259.035 39.5833C259.693 37.6316 261.974 37.6316 262.566 37.6316C263.531 37.6316 264.496 37.7851 265.263 38.6184C266.096 39.4737 266.096 40.1974 266.096 41.9956L266.075 48.3772ZM263.969 43.6184C263.355 44.2105 263.246 44.2763 262.215 45.0658C261.25 45.8114 260.526 46.3816 260.526 47.9167C260.526 48.5088 260.526 49.8903 261.974 49.8903C262.368 49.8903 262.763 49.7588 263.114 49.4956C263.882 48.9035 263.969 48.0044 263.969 46.9298V43.6184Z" fill="black"/>
<path d="M276.096 51.2061H274.101V49.8026C273.816 50.307 273.114 51.4474 271.294 51.4474C271.031 51.4474 270.724 51.4254 270.46 51.3377C268.289 50.7675 268.224 48.5088 268.224 44.6272C268.224 43.3772 268.224 40.8991 268.553 39.8465C268.925 38.5965 269.934 37.6316 271.403 37.6316C272.917 37.6316 273.575 38.4211 273.947 38.9474V32.3903H276.118L276.096 51.2061ZM272.127 39.3202C270.526 39.3202 270.482 40.943 270.417 42.0175C270.373 43.4649 270.373 43.4649 270.373 45.614C270.373 46.2061 270.373 46.886 270.417 47.7193C270.46 48.2895 270.548 49.7807 272.127 49.7807C273.947 49.7807 273.947 48.0044 273.991 44.6053C274.035 41.4035 274.035 39.3202 272.127 39.3202Z" fill="black"/>
<path d="M280.548 35.5263H278.443V32.7851H280.548V35.5263ZM280.548 51.2061H278.443V37.8509H280.548V51.2061Z" fill="black"/>
<path d="M290.197 47.0833C290.197 47.9825 290.197 48.6623 289.956 49.3421C289.189 51.4474 287.105 51.4474 286.425 51.4474C285.636 51.4474 283.794 51.3377 283.004 49.386C282.763 48.75 282.654 48.4868 282.654 43.114C282.654 40.2632 282.895 37.6535 286.338 37.6535C287.193 37.6535 289.649 37.6535 290.066 40.5702C290.175 41.2281 290.175 41.6009 290.175 44.9781H284.825C284.825 46.0088 284.803 47.3684 284.846 47.8509C284.89 48.3553 285 49.7368 286.535 49.7368C288.092 49.7368 288.224 48.4211 288.224 47.0614H290.197V47.0833V47.0833ZM288.202 43.2456V41.6009C288.18 40.8772 288.158 39.2982 286.557 39.2982C285.461 39.2982 285.153 40 285 40.4167C284.846 40.9211 284.846 41.3596 284.846 43.2456H288.202Z" fill="black"/>
<path d="M300 51.2061H297.829V42.5219C297.829 40.5921 297.829 39.3202 296.25 39.3202C294.474 39.3202 294.474 41.1403 294.474 42.6096V51.2281H292.346V37.8947H294.364V39.1228C294.759 38.6403 295.592 37.6535 297.215 37.6535C299.978 37.6535 299.978 40 299.978 41.8421L300 51.2061Z" fill="black"/>
<path d="M57.4561 0.767544H0.767517V57.4561H57.4561V0.767544Z" fill="black"/>
<path d="M46.9298 16.5351L46.8421 14.0351C46.8421 13.7939 47.0395 13.7939 47.4781 13.8816L49.4956 14.2763L49.2324 13.6184C49.1447 13.3553 49.1228 13.2018 49.3202 13.0263L51.7105 11.0746L51.2719 10.8114C51.1403 10.7237 51.1403 10.614 51.2061 10.3947L51.6447 8.94737L50.4824 9.1886C50.1535 9.25438 50.0658 9.18859 50 9.01316L49.671 8.35526L48.5307 9.64912C48.3333 9.89035 48.0482 9.73684 48.1359 9.38596L48.6842 6.71052L47.8509 7.19298C47.7193 7.2807 47.5658 7.30263 47.5 7.14912L46.6009 5.35088L45.7017 7.14912C45.614 7.30263 45.4824 7.2807 45.3509 7.19298L44.5175 6.71052L45.0658 9.38596C45.1535 9.73684 44.8684 9.89035 44.671 9.64912L43.5307 8.35526L43.2017 9.01316C43.114 9.18859 43.0263 9.27631 42.7193 9.1886L41.557 8.94737L41.9956 10.3947C42.0614 10.614 42.0614 10.7237 41.9298 10.8114L41.4912 11.0746L43.8816 13.0263C44.0789 13.2018 44.057 13.3772 43.9693 13.6184L43.7061 14.2763L45.7237 13.8816C46.1623 13.7939 46.3596 13.7939 46.3596 14.0351L46.2719 16.5351H46.9298Z" fill="white"/>
<path d="M37.4781 31.4035C37.4781 33.0702 37.4561 33.5088 37.3465 33.9912C37.193 34.7149 36.7763 35.9649 34.5395 35.9649C32.6316 35.9649 31.864 34.8465 31.6667 33.6842C31.6228 33.3333 31.5351 32.807 31.5351 29.693C31.5351 26.4035 31.579 26.0307 31.6667 25.4824C31.7763 24.9342 32.0833 23.136 34.6491 23.136C35.6798 23.136 36.9518 23.5746 37.2588 24.9342C37.3904 25.5263 37.3904 26.2719 37.3904 27.2368H35.943V26.2939C35.943 25.4386 35.9211 24.4298 34.6491 24.4298C33.3333 24.4298 33.2237 25.4825 33.1579 25.9649C33.0483 26.864 33.0483 28.75 33.0483 29.693C33.0483 30.4605 33.0921 32.9824 33.1579 33.4649C33.2018 33.6842 33.3772 34.6272 34.6053 34.6272C35.7237 34.6272 35.8772 33.6842 35.9211 33.443C35.9869 33.136 35.9869 32.8509 35.9869 31.3596H37.4781V31.4035Z" fill="white"/>
<path d="M38.75 35.8114V23.3553H41.0965C42.3026 23.3553 43.4211 23.3553 44.1667 24.2982C44.7588 25.0219 44.8026 25.6798 44.8026 28.6842C44.8026 29.364 44.8026 30.1535 44.7588 31.8421C44.7368 33.0482 44.7149 33.9474 44.2544 34.6711C43.5526 35.7895 42.3903 35.7895 41.0526 35.7895H38.75V35.8114ZM40.307 34.4518H41.3158C42.3026 34.4518 43.0044 34.364 43.1798 33.2456C43.2675 32.6535 43.2895 30.921 43.2895 30.2632C43.2895 29.1228 43.2895 28.6842 43.2675 27.4781C43.2456 26.1184 43.2237 25.4605 42.6754 25.0658C42.2807 24.8026 41.9298 24.8026 40.2851 24.8026V34.4518H40.307Z" fill="white"/>
<path d="M45.7895 31.4912H47.2807C47.2807 32.807 47.2807 32.9386 47.3026 33.1579C47.3246 33.4649 47.4342 34.6491 48.7939 34.6491C49.2983 34.6491 50.3728 34.4518 50.3728 33.0921C50.3728 32.1053 49.9342 31.6009 49.2325 30.8772L47.5439 29.1447C46.3597 27.9386 46.1184 27.171 46.1184 26.0307C46.1184 25.3509 46.1184 23.114 49.0132 23.114C49.6491 23.114 50.7237 23.2237 51.2939 24.1447C51.6447 24.7368 51.6447 25.1535 51.6447 26.9737H50.2851C50.2412 25.7895 50.2412 25.6579 50.2193 25.4386C50.1754 25.2193 50.0219 24.4298 48.9254 24.4298C47.6316 24.4298 47.6316 25.5482 47.6316 25.921C47.6316 26.864 47.9605 27.2368 48.8377 28.1579L50.4167 29.8026C51.4474 30.8991 51.9079 31.5351 51.9079 32.9605C51.9079 35.614 49.8246 35.943 48.9035 35.943C47.6974 35.943 47.0614 35.5482 46.8202 35.3289C46.0307 34.7149 45.8553 33.7719 45.8553 32.8509V31.4912H45.7895Z" fill="white"/>
<path d="M31.4693 46.9298H32.9605C32.9605 48.2456 32.9605 48.3772 32.9825 48.5965C33.0044 48.9035 33.114 50.0877 34.4737 50.0877C34.9781 50.0877 36.0526 49.8903 36.0526 48.5307C36.0526 47.5439 35.614 47.0395 34.9123 46.3158L33.2237 44.5833C32.0395 43.3772 31.7982 42.6096 31.7982 41.4693C31.7982 40.7895 31.7982 38.5526 34.693 38.5526C35.3289 38.5526 36.4035 38.6623 36.9737 39.5833C37.3246 40.1754 37.3246 40.5921 37.3246 42.4123H35.9211C35.8772 41.2281 35.8772 41.0965 35.8553 40.8772C35.8114 40.6579 35.6579 39.8684 34.5614 39.8684C33.2675 39.8684 33.2675 40.9868 33.2675 41.3596C33.2675 42.3026 33.5965 42.6754 34.4737 43.5965L36.0526 45.2412C37.0833 46.3377 37.5439 46.9737 37.5439 48.3991C37.5439 51.0526 35.4605 51.3816 34.5395 51.3816C33.3333 51.3816 32.6974 50.9868 32.4561 50.7675C31.6667 50.1535 31.4912 49.2105 31.4912 48.2895V46.9298H31.4693Z" fill="white"/>
<path d="M44.4737 51.2281H42.2807L39.8684 40.4386L40.0877 51.2281H38.5526V38.7719H40.6579L43.1798 49.693L42.9605 38.7719H44.4517V51.2281H44.4737V51.2281Z" fill="white"/>
<path d="M51.6447 46.8421C51.6447 48.5088 51.6228 48.9474 51.5131 49.4298C51.3596 50.1535 50.943 51.4035 48.7061 51.4035C46.7982 51.4035 46.0307 50.2851 45.8333 49.1228C45.7894 48.7719 45.7017 48.2456 45.7017 45.1316C45.7017 41.8421 45.7456 41.4693 45.8333 40.921C45.943 40.3728 46.25 38.5746 48.8158 38.5746C49.8465 38.5746 51.1184 39.0132 51.4254 40.3728C51.557 40.9649 51.557 41.7105 51.557 42.6754H50.1096V41.7325C50.1096 40.8772 50.0877 39.8684 48.8158 39.8684C47.5 39.8684 47.3903 40.921 47.3245 41.4035C47.2149 42.3026 47.2149 44.1886 47.2149 45.1316C47.2149 45.8991 47.2587 48.421 47.3245 48.9035C47.3684 49.1228 47.5438 50.0658 48.7719 50.0658C49.8903 50.0658 50.0438 49.1228 50.0877 48.8816C50.1535 48.5746 50.1535 48.2895 50.1535 46.7982H51.6447V46.8421Z" fill="white"/>
<path d="M58.2237 58.2237H0V0H58.2237V58.2237ZM1.53509 56.6667H56.6667V1.53509H1.53509V56.6667Z" fill="white"/>
</g>
<defs>
<clipPath id="clip0">
<rect width="300" height="58.2237" fill="white"/>
</clipPath>
</defs>
</svg>
