<?xml version="1.0" encoding="utf-8"?>
<svg viewBox="51.157 127.777 300 58.224" xmlns="http://www.w3.org/2000/svg">
  <path d="M 81.864 44.456 C 81.864 47 81.842 47.658 81.667 48.382 C 81.425 49.478 80.811 51.364 77.434 51.364 C 74.561 51.364 73.377 49.654 73.092 47.921 C 73.004 47.395 72.895 46.583 72.895 41.89 C 72.895 36.934 72.982 36.342 73.114 35.509 C 73.268 34.675 73.75 31.956 77.632 31.956 C 79.189 31.956 81.097 32.614 81.579 34.675 C 81.798 35.575 81.798 36.693 81.776 38.162 L 79.583 38.162 L 79.583 36.759 C 79.583 35.487 79.561 33.93 77.632 33.93 C 75.636 33.93 75.461 35.531 75.395 36.254 C 75.241 37.614 75.241 40.465 75.241 41.912 C 75.241 43.053 75.285 46.868 75.395 47.614 C 75.482 47.965 75.724 49.368 77.588 49.368 C 79.276 49.368 79.518 47.921 79.583 47.592 C 79.693 47.11 79.693 46.693 79.693 44.434 L 81.864 44.456 Z" fill="black" transform="matrix(1, 0, 0, 1, 51.156616, 127.776993)"/>
  <path d="M 91.097 48.272 C 91.097 50.355 91.184 50.64 91.732 51.101 L 89.123 51.101 L 89.123 49.5 C 88.838 50.092 88.18 51.342 86.382 51.342 C 85.768 51.342 85.241 51.211 84.781 50.947 C 83.531 50.202 83.399 48.93 83.399 47.943 C 83.399 45.772 84.254 45.092 85.636 44.127 C 87.654 42.768 87.873 42.636 88.991 41.583 C 88.991 40.487 88.991 39.237 87.368 39.237 C 85.768 39.237 85.768 40.355 85.768 41.167 C 85.768 41.561 85.79 41.868 85.811 42.154 L 83.86 42.154 C 83.838 41.583 83.838 40.158 84.057 39.478 C 84.715 37.526 86.996 37.526 87.588 37.526 C 88.553 37.526 89.518 37.68 90.285 38.513 C 91.118 39.368 91.118 40.092 91.118 41.89 L 91.118 48.272 L 91.097 48.272 Z M 88.991 43.491 C 88.377 44.083 88.268 44.149 87.237 44.939 C 86.272 45.684 85.548 46.254 85.548 47.79 C 85.548 48.382 85.548 49.763 86.996 49.763 C 87.39 49.763 87.785 49.632 88.136 49.368 C 88.904 48.776 88.991 47.877 88.991 46.803 L 88.991 43.491 Z" fill="black" transform="matrix(1, 0, 0, 1, 51.156616, 127.776993)"/>
  <path d="M 101.118 51.101 L 98.947 51.101 L 98.947 42.417 C 98.947 40.487 98.947 39.215 97.368 39.215 C 95.592 39.215 95.592 41.035 95.592 42.504 L 95.592 51.123 L 93.465 51.123 L 93.465 37.79 L 95.482 37.79 L 95.482 39.018 C 95.877 38.535 96.711 37.548 98.333 37.548 C 101.096 37.548 101.096 39.895 101.096 41.737 L 101.096 51.101 L 101.118 51.101 Z" fill="black" transform="matrix(1, 0, 0, 1, 51.156616, 127.776993)"/>
  <path d="M 110.548 48.272 C 110.548 50.355 110.636 50.64 111.184 51.101 L 108.575 51.101 L 108.575 49.5 C 108.289 50.092 107.632 51.342 105.833 51.342 C 105.219 51.342 104.693 51.211 104.232 50.947 C 102.982 50.202 102.851 48.93 102.851 47.943 C 102.851 45.772 103.706 45.092 105.088 44.127 C 107.105 42.768 107.325 42.636 108.443 41.583 C 108.443 40.487 108.443 39.237 106.82 39.237 C 105.219 39.237 105.219 40.355 105.219 41.167 C 105.219 41.561 105.241 41.868 105.263 42.154 L 103.311 42.154 C 103.289 41.583 103.289 40.158 103.509 39.478 C 104.167 37.526 106.447 37.526 107.039 37.526 C 108.004 37.526 108.969 37.68 109.737 38.513 C 110.57 39.368 110.57 40.092 110.57 41.89 L 110.548 48.272 Z M 108.443 43.491 C 107.829 44.083 107.719 44.149 106.689 44.939 C 105.724 45.684 105 46.254 105 47.79 C 105 48.382 105 49.763 106.447 49.763 C 106.842 49.763 107.237 49.632 107.588 49.368 C 108.355 48.776 108.443 47.877 108.443 46.803 L 108.443 43.491 Z" fill="black" transform="matrix(1, 0, 0, 1, 51.156616, 127.776993)"/>
  <path d="M 120.57 51.101 L 118.575 51.101 L 118.575 49.697 C 118.289 50.202 117.588 51.342 115.768 51.342 C 115.504 51.342 115.197 51.32 114.934 51.233 C 112.763 50.662 112.697 48.404 112.697 44.522 C 112.697 43.272 112.697 40.794 113.026 39.741 C 113.399 38.491 114.408 37.526 115.877 37.526 C 117.39 37.526 118.048 38.316 118.421 38.842 L 118.421 32.263 L 120.592 32.263 L 120.592 51.101 L 120.57 51.101 Z M 116.601 39.215 C 115 39.215 114.956 40.838 114.89 41.912 C 114.847 43.36 114.847 43.36 114.847 45.509 C 114.847 46.101 114.847 46.781 114.89 47.614 C 114.934 48.184 115.022 49.675 116.601 49.675 C 118.421 49.675 118.421 47.899 118.465 44.5 C 118.509 41.298 118.509 39.215 116.601 39.215 Z" fill="black" transform="matrix(1, 0, 0, 1, 51.156616, 127.776993)"/>
  <path d="M 125.022 35.421 L 122.917 35.421 L 122.917 32.68 L 125.022 32.68 L 125.022 35.421 Z M 125.022 51.101 L 122.917 51.101 L 122.917 37.746 L 125.022 37.746 L 125.022 51.101 Z" fill="black" transform="matrix(1, 0, 0, 1, 51.156616, 127.776993)"/>
  <path d="M 134.43 48.272 C 134.43 50.355 134.518 50.64 135.066 51.101 L 132.456 51.101 L 132.456 49.5 C 132.171 50.092 131.513 51.342 129.715 51.342 C 129.101 51.342 128.575 51.211 128.114 50.947 C 126.864 50.202 126.732 48.93 126.732 47.943 C 126.732 45.772 127.588 45.092 128.969 44.127 C 130.987 42.768 131.206 42.636 132.325 41.583 C 132.325 40.487 132.325 39.237 130.702 39.237 C 129.101 39.237 129.101 40.355 129.101 41.167 C 129.101 41.561 129.123 41.868 129.145 42.154 L 127.193 42.154 C 127.171 41.583 127.171 40.158 127.39 39.478 C 128.048 37.526 130.329 37.526 130.921 37.526 C 131.886 37.526 132.851 37.68 133.618 38.513 C 134.452 39.368 134.452 40.092 134.452 41.89 L 134.43 48.272 Z M 132.325 43.491 C 131.71 44.083 131.601 44.149 130.57 44.939 C 129.605 45.684 128.882 46.254 128.882 47.79 C 128.882 48.382 128.882 49.763 130.329 49.763 C 130.724 49.763 131.118 49.632 131.469 49.368 C 132.237 48.776 132.325 47.877 132.325 46.803 L 132.325 43.491 Z" fill="black" transform="matrix(1, 0, 0, 1, 51.156616, 127.776993)"/>
  <path d="M 144.452 51.101 L 142.281 51.101 L 142.281 42.417 C 142.281 40.487 142.281 39.215 140.702 39.215 C 138.925 39.215 138.925 41.035 138.925 42.504 L 138.925 51.123 L 136.798 51.123 L 136.798 37.79 L 138.816 37.79 L 138.816 39.018 C 139.211 38.535 140.044 37.548 141.667 37.548 C 144.43 37.548 144.43 39.895 144.43 41.737 L 144.43 51.101 L 144.452 51.101 Z" fill="black" transform="matrix(1, 0, 0, 1, 51.156616, 127.776993)"/>
  <path d="M 153.07 51.101 L 153.07 32.263 L 156.623 32.263 C 158.465 32.263 160.154 32.263 161.272 33.667 C 162.149 34.763 162.237 35.75 162.237 40.311 C 162.237 41.32 162.237 42.526 162.193 45.092 C 162.171 46.934 162.105 48.272 161.447 49.39 C 160.373 51.101 158.618 51.101 156.601 51.101 L 153.07 51.101 Z M 155.417 49.018 L 156.93 49.018 C 158.421 49.018 159.496 48.886 159.759 47.197 C 159.89 46.32 159.912 43.667 159.912 42.68 C 159.912 40.947 159.912 40.29 159.89 38.469 C 159.868 36.408 159.847 35.399 159.013 34.807 C 158.421 34.412 157.895 34.412 155.417 34.412 L 155.417 49.018 Z" fill="black" transform="matrix(1, 0, 0, 1, 51.156616, 127.776993)"/>
  <path d="M 166.667 35.421 L 164.561 35.421 L 164.561 32.68 L 166.667 32.68 L 166.667 35.421 Z M 166.667 51.101 L 164.561 51.101 L 164.561 37.746 L 166.667 37.746 L 166.667 51.101 Z" fill="black" transform="matrix(1, 0, 0, 1, 51.156616, 127.776993)"/>
  <path d="M 176.71 37.768 L 176.71 50.399 C 176.71 52.11 176.71 52.636 176.469 53.382 C 175.855 55.268 173.706 55.575 172.544 55.575 C 170.965 55.575 168.925 54.873 168.925 52.154 L 170.877 52.154 C 170.899 52.724 170.965 53.886 172.697 53.886 C 174.561 53.886 174.561 52.439 174.561 51.254 L 174.561 49.697 C 173.838 50.728 172.873 51.167 171.864 51.167 C 170.899 51.167 169.671 50.772 169.167 49.412 C 168.794 48.425 168.794 47.461 168.794 44.149 C 168.794 41.803 168.816 40.86 169.035 39.983 C 169.145 39.478 169.627 37.504 172.105 37.504 C 173.838 37.504 174.43 38.447 174.715 38.952 L 174.715 37.746 L 176.71 37.746 L 176.71 37.768 Z M 174.517 41.233 C 174.474 39.961 173.925 39.04 172.697 39.04 C 170.943 39.04 170.943 40.969 170.943 43.075 C 170.943 44.39 170.943 46.781 171.031 47.724 C 171.075 48.754 171.513 49.566 172.653 49.566 C 173.662 49.566 174.298 48.93 174.496 47.943 C 174.605 47.329 174.605 45.377 174.605 44.632 C 174.605 44.566 174.539 41.605 174.517 41.233 Z" fill="black" transform="matrix(1, 0, 0, 1, 51.156616, 127.776993)"/>
  <path d="M 181.14 35.421 L 179.035 35.421 L 179.035 32.68 L 181.14 32.68 L 181.14 35.421 Z M 181.14 51.101 L 179.035 51.101 L 179.035 37.746 L 181.14 37.746 L 181.14 51.101 Z" fill="black" transform="matrix(1, 0, 0, 1, 51.156616, 127.776993)"/>
  <path d="M 188.202 39.368 L 186.25 39.368 L 186.25 47.855 C 186.25 48.711 186.338 49.566 187.478 49.566 C 187.829 49.566 188.004 49.522 188.224 49.456 L 188.224 51.189 C 187.939 51.276 187.61 51.342 187.039 51.342 C 185.175 51.342 184.583 50.706 184.32 50.092 C 184.057 49.478 184.057 49.215 184.057 46.759 L 184.057 39.368 L 182.456 39.368 L 182.456 37.746 L 184.101 37.746 L 184.101 34.171 L 186.228 34.171 L 186.228 37.746 L 188.18 37.746 L 188.18 39.368 L 188.202 39.368 Z" fill="black" transform="matrix(1, 0, 0, 1, 51.156616, 127.776993)"/>
  <path d="M 196.908 48.272 C 196.908 50.355 196.996 50.64 197.544 51.101 L 194.934 51.101 L 194.934 49.5 C 194.649 50.092 193.991 51.342 192.193 51.342 C 191.579 51.342 191.053 51.211 190.592 50.947 C 189.342 50.202 189.211 48.93 189.211 47.943 C 189.211 45.772 190.066 45.092 191.447 44.127 C 193.465 42.768 193.684 42.636 194.803 41.583 C 194.803 40.487 194.803 39.237 193.18 39.237 C 191.579 39.237 191.579 40.355 191.579 41.167 C 191.579 41.561 191.601 41.868 191.623 42.154 L 189.671 42.154 C 189.649 41.583 189.649 40.158 189.868 39.478 C 190.526 37.526 192.807 37.526 193.399 37.526 C 194.364 37.526 195.329 37.68 196.096 38.513 C 196.93 39.368 196.93 40.092 196.93 41.89 L 196.908 48.272 Z M 194.803 43.491 C 194.189 44.083 194.079 44.149 193.048 44.939 C 192.083 45.684 191.36 46.254 191.36 47.79 C 191.36 48.382 191.36 49.763 192.807 49.763 C 193.202 49.763 193.597 49.632 193.947 49.368 C 194.715 48.776 194.803 47.877 194.803 46.803 L 194.803 43.491 Z" fill="black" transform="matrix(1, 0, 0, 1, 51.156616, 127.776993)"/>
  <path d="M 201.425 51.101 L 199.254 51.101 L 199.254 32.263 L 201.425 32.263 L 201.425 51.101 Z" fill="black" transform="matrix(1, 0, 0, 1, 51.156616, 127.776993)"/>
  <path d="M 209.386 44.588 L 211.623 44.588 C 211.623 46.561 211.623 46.781 211.645 47.132 C 211.667 47.614 211.842 49.368 213.904 49.368 C 214.649 49.368 216.272 49.083 216.272 47.022 C 216.272 45.531 215.614 44.785 214.539 43.689 L 211.974 41.079 C 210.197 39.237 209.803 38.097 209.803 36.386 C 209.803 35.355 209.803 31.978 214.167 31.978 C 215.132 31.978 216.754 32.132 217.61 33.535 C 218.136 34.412 218.136 35.048 218.136 37.833 L 216.075 37.833 C 216.031 36.057 216.031 35.86 215.965 35.509 C 215.921 35.158 215.68 33.996 214.013 33.996 C 212.039 33.996 212.039 35.706 212.039 36.232 C 212.039 37.636 212.544 38.206 213.882 39.61 L 216.25 42.088 C 217.807 43.733 218.487 44.697 218.487 46.868 C 218.487 50.86 215.329 51.386 213.925 51.386 C 212.105 51.386 211.162 50.772 210.768 50.443 C 209.561 49.5 209.298 48.097 209.298 46.693 L 209.298 44.588 L 209.386 44.588 L 209.386 44.588 Z" fill="black" transform="matrix(1, 0, 0, 1, 51.156616, 127.776993)"/>
  <path d="M 227.719 46.978 C 227.719 47.877 227.719 48.557 227.478 49.237 C 226.711 51.342 224.627 51.342 223.947 51.342 C 223.158 51.342 221.316 51.233 220.526 49.281 C 220.285 48.645 220.175 48.382 220.175 43.009 C 220.175 40.158 220.417 37.548 223.86 37.548 C 224.715 37.548 227.171 37.548 227.588 40.465 C 227.697 41.123 227.697 41.496 227.697 44.873 L 222.346 44.873 C 222.346 45.904 222.325 47.263 222.368 47.746 C 222.412 48.25 222.522 49.632 224.057 49.632 C 225.614 49.632 225.746 48.316 225.746 46.956 L 227.719 46.978 Z M 225.724 43.118 L 225.724 41.474 C 225.702 40.75 225.68 39.171 224.079 39.171 C 222.982 39.171 222.675 39.873 222.522 40.29 C 222.368 40.794 222.368 41.233 222.368 43.118 L 225.724 43.118 Z" fill="black" transform="matrix(1, 0, 0, 1, 51.156616, 127.776993)"/>
  <path d="M 232.039 51.101 L 229.846 51.101 L 229.846 37.768 L 231.908 37.768 L 231.908 40.268 C 232.39 39.237 233.224 37.417 235.504 37.548 L 235.504 39.763 C 234.539 39.763 233.377 39.763 232.632 40.86 C 232.215 41.496 232.039 42.241 232.039 44.719 L 232.039 51.101 Z" fill="black" transform="matrix(1, 0, 0, 1, 51.156616, 127.776993)"/>
  <path d="M 241.71 51.101 L 239.276 51.101 L 236.425 37.768 L 238.75 37.768 L 240.504 48.667 L 242.456 37.768 L 244.759 37.768 L 241.71 51.101 Z" fill="black" transform="matrix(1, 0, 0, 1, 51.156616, 127.776993)"/>
  <path d="M 248.07 35.421 L 245.965 35.421 L 245.965 32.68 L 248.07 32.68 L 248.07 35.421 Z M 248.07 51.101 L 245.965 51.101 L 245.965 37.746 L 248.07 37.746 L 248.07 51.101 Z" fill="black" transform="matrix(1, 0, 0, 1, 51.156616, 127.776993)"/>
  <path d="M 257.763 46.145 C 257.763 48.579 257.763 51.342 253.904 51.342 C 252.281 51.342 250.965 50.75 250.526 49.237 C 250.263 48.36 250.197 46.934 250.197 44.763 C 250.197 40.026 250.329 37.526 254.123 37.526 C 257.785 37.526 257.785 39.961 257.785 42.592 L 255.768 42.592 C 255.768 40.29 255.768 39.149 254.079 39.149 C 252.39 39.149 252.368 40.29 252.368 44.04 C 252.368 44.566 252.368 46.474 252.39 47.614 C 252.412 48.316 252.478 49.675 254.035 49.675 C 255.614 49.675 255.746 48.36 255.746 46.145 L 257.763 46.145 L 257.763 46.145 Z" fill="black" transform="matrix(1, 0, 0, 1, 51.156616, 127.776993)"/>
  <path d="M 267.149 46.978 C 267.149 47.877 267.149 48.557 266.908 49.237 C 266.14 51.342 264.057 51.342 263.377 51.342 C 262.588 51.342 260.746 51.233 259.956 49.281 C 259.715 48.645 259.605 48.382 259.605 43.009 C 259.605 40.158 259.846 37.548 263.289 37.548 C 264.145 37.548 266.601 37.548 267.018 40.465 C 267.127 41.123 267.127 41.496 267.127 44.873 L 261.798 44.873 C 261.798 45.904 261.776 47.263 261.82 47.746 C 261.864 48.25 261.974 49.632 263.509 49.632 C 265.066 49.632 265.197 48.316 265.197 46.956 L 267.149 46.978 Z M 265.154 43.118 L 265.154 41.474 C 265.132 40.75 265.11 39.171 263.509 39.171 C 262.412 39.171 262.105 39.873 261.952 40.29 C 261.798 40.794 261.798 41.233 261.798 43.118 L 265.154 43.118 Z" fill="black" transform="matrix(1, 0, 0, 1, 51.156616, 127.776993)"/>
  <path d="M 72.456 17.715 L 74.693 17.715 C 74.693 19.689 74.693 19.908 74.715 20.259 C 74.737 20.741 74.912 22.496 76.974 22.496 C 77.719 22.496 79.342 22.211 79.342 20.149 C 79.342 18.658 78.684 17.912 77.61 16.816 L 75.044 14.206 C 73.268 12.364 72.873 11.224 72.873 9.513 C 72.873 8.483 72.873 5.105 77.237 5.105 C 78.202 5.105 79.825 5.259 80.68 6.662 C 81.206 7.54 81.206 8.175 81.206 10.961 L 79.145 10.961 C 79.101 9.184 79.101 8.987 79.035 8.636 C 78.991 8.285 78.75 7.123 77.083 7.123 C 75.11 7.123 75.11 8.833 75.11 9.36 C 75.11 10.763 75.614 11.333 76.952 12.737 L 79.32 15.215 C 80.877 16.86 81.557 17.825 81.557 19.996 C 81.557 23.987 78.421 24.513 76.996 24.513 C 75.175 24.513 74.232 23.899 73.838 23.57 C 72.632 22.627 72.368 21.224 72.368 19.82 L 72.368 17.715 L 72.456 17.715 Z" fill="black" transform="matrix(1, 0, 0, 1, 51.156616, 127.776993)"/>
  <path d="M 90.768 20.083 C 90.768 20.983 90.768 21.662 90.526 22.342 C 89.759 24.447 87.675 24.447 86.996 24.447 C 86.206 24.447 84.364 24.338 83.575 22.386 C 83.333 21.75 83.224 21.487 83.224 16.114 C 83.224 13.263 83.465 10.654 86.908 10.654 C 87.763 10.654 90.219 10.654 90.636 13.57 C 90.746 14.228 90.746 14.601 90.746 17.978 L 85.395 17.978 C 85.395 19.009 85.373 20.368 85.417 20.851 C 85.461 21.355 85.57 22.737 87.105 22.737 C 88.662 22.737 88.794 21.421 88.794 20.061 L 90.768 20.061 L 90.768 20.083 L 90.768 20.083 Z M 88.772 16.246 L 88.772 14.601 C 88.75 13.877 88.728 12.298 87.127 12.298 C 86.031 12.298 85.724 13 85.57 13.417 C 85.417 13.921 85.417 14.36 85.417 16.246 L 88.772 16.246 Z" fill="black" transform="matrix(1, 0, 0, 1, 51.156616, 127.776993)"/>
  <path d="M 95.088 24.206 L 92.895 24.206 L 92.895 10.873 L 94.956 10.873 L 94.956 13.373 C 95.439 12.342 96.272 10.522 98.553 10.654 L 98.553 12.868 C 97.588 12.868 96.426 12.868 95.68 13.965 C 95.263 14.601 95.088 15.347 95.088 17.825 L 95.088 24.206 L 95.088 24.206 Z" fill="black" transform="matrix(1, 0, 0, 1, 51.156616, 127.776993)"/>
  <path d="M 104.781 24.206 L 102.346 24.206 L 99.496 10.873 L 101.82 10.873 L 103.575 21.772 L 105.526 10.873 L 107.829 10.873 L 104.781 24.206 Z" fill="black" transform="matrix(1, 0, 0, 1, 51.156616, 127.776993)"/>
  <path d="M 111.118 8.526 L 109.013 8.526 L 109.013 5.785 L 111.118 5.785 L 111.118 8.526 Z M 111.118 24.206 L 109.013 24.206 L 109.013 10.851 L 111.118 10.851 L 111.118 24.206 Z" fill="black" transform="matrix(1, 0, 0, 1, 51.156616, 127.776993)"/>
  <path d="M 120.833 19.25 C 120.833 21.684 120.833 24.447 116.974 24.447 C 115.351 24.447 114.035 23.855 113.596 22.342 C 113.333 21.465 113.268 20.04 113.268 17.868 C 113.268 13.132 113.399 10.632 117.193 10.632 C 120.855 10.632 120.855 13.066 120.855 15.697 L 118.816 15.697 C 118.816 13.395 118.816 12.254 117.127 12.254 C 115.439 12.254 115.417 13.395 115.417 17.145 C 115.417 17.671 115.417 19.579 115.439 20.719 C 115.461 21.421 115.526 22.781 117.083 22.781 C 118.662 22.781 118.794 21.465 118.794 19.25 L 120.833 19.25 Z" fill="black" transform="matrix(1, 0, 0, 1, 51.156616, 127.776993)"/>
  <path d="M 130.219 20.083 C 130.219 20.983 130.219 21.662 129.978 22.342 C 129.211 24.447 127.127 24.447 126.447 24.447 C 125.658 24.447 123.816 24.338 123.026 22.386 C 122.785 21.75 122.675 21.487 122.675 16.114 C 122.675 13.263 122.917 10.654 126.36 10.654 C 127.215 10.654 129.671 10.654 130.088 13.57 C 130.197 14.228 130.197 14.601 130.197 17.978 L 124.846 17.978 C 124.846 19.009 124.825 20.368 124.868 20.851 C 124.912 21.355 125.022 22.737 126.557 22.737 C 128.114 22.737 128.246 21.421 128.246 20.061 L 130.219 20.061 L 130.219 20.083 Z M 128.224 16.246 L 128.224 14.601 C 128.202 13.877 128.18 12.298 126.579 12.298 C 125.482 12.298 125.175 13 125.022 13.417 C 124.868 13.921 124.868 14.36 124.868 16.246 L 128.224 16.246 Z" fill="black" transform="matrix(1, 0, 0, 1, 51.156616, 127.776993)"/>
  <path d="M 146.118 24.206 L 143.947 24.206 L 143.947 15.522 C 143.947 13.592 143.947 12.32 142.368 12.32 C 140.592 12.32 140.592 14.14 140.592 15.61 L 140.592 24.228 L 138.465 24.228 L 138.465 10.895 L 140.482 10.895 L 140.482 12.123 C 140.877 11.64 141.711 10.654 143.333 10.654 C 146.096 10.654 146.096 13 146.096 14.842 L 146.096 24.206 L 146.118 24.206 Z" fill="black" transform="matrix(1, 0, 0, 1, 51.156616, 127.776993)"/>
  <path d="M 156.118 24.206 L 154.057 24.206 L 154.057 22.978 C 153.64 23.504 152.873 24.447 151.228 24.447 C 150.11 24.447 149.408 23.943 149.057 23.417 C 148.487 22.561 148.443 21.597 148.443 19.272 L 148.443 10.873 L 150.57 10.873 L 150.57 19.623 L 150.592 20.895 C 150.592 21.421 150.636 22.847 152.149 22.847 C 153.991 22.847 153.991 20.983 153.991 19.601 L 153.991 10.873 L 156.096 10.873 L 156.096 24.206 L 156.118 24.206 Z" fill="black" transform="matrix(1, 0, 0, 1, 51.156616, 127.776993)"/>
  <path d="M 171.689 24.206 L 169.518 24.206 L 169.518 15.478 C 169.518 14.294 169.496 13.79 169.386 13.395 C 169.189 12.803 168.728 12.276 167.829 12.276 C 166.118 12.276 166.118 14.053 166.118 15.456 L 166.118 24.206 L 163.991 24.206 L 163.991 15.478 C 163.991 13.702 163.991 12.276 162.346 12.276 C 160.614 12.276 160.614 13.965 160.614 15.5 L 160.614 24.184 L 158.443 24.184 L 158.443 10.851 L 160.461 10.851 L 160.461 12.189 C 160.855 11.662 161.667 10.61 163.311 10.61 C 165.022 10.61 165.636 11.64 165.921 12.189 C 166.338 11.618 167.061 10.61 168.684 10.61 C 168.947 10.61 169.934 10.61 170.768 11.443 C 171.667 12.342 171.667 13.329 171.667 15.5 L 171.667 24.206 L 171.689 24.206 Z" fill="black" transform="matrix(1, 0, 0, 1, 51.156616, 127.776993)"/>
  <path d="M 181.316 20.083 C 181.316 20.983 181.316 21.662 181.075 22.342 C 180.307 24.447 178.224 24.447 177.544 24.447 C 176.754 24.447 174.912 24.338 174.123 22.386 C 173.882 21.75 173.772 21.487 173.772 16.114 C 173.772 13.263 174.013 10.654 177.456 10.654 C 178.311 10.654 180.768 10.654 181.184 13.57 C 181.294 14.228 181.294 14.601 181.294 17.978 L 175.943 17.978 C 175.943 19.009 175.921 20.368 175.965 20.851 C 176.009 21.355 176.118 22.737 177.653 22.737 C 179.21 22.737 179.342 21.421 179.342 20.061 L 181.316 20.061 L 181.316 20.083 Z M 179.32 16.246 L 179.32 14.601 C 179.298 13.877 179.276 12.298 177.675 12.298 C 176.579 12.298 176.272 13 176.118 13.417 C 175.965 13.921 175.965 14.36 175.965 16.246 L 179.32 16.246 Z M 178.114 9.206 L 176.403 9.206 L 177.807 6.333 L 180.724 6.333 L 178.114 9.206 Z" fill="black" transform="matrix(1, 0, 0, 1, 51.156616, 127.776993)"/>
  <path d="M 185.636 24.206 L 183.443 24.206 L 183.443 10.873 L 185.504 10.873 L 185.504 13.373 C 185.987 12.342 186.82 10.522 189.101 10.654 L 189.101 12.868 C 188.136 12.868 186.974 12.868 186.228 13.965 C 185.811 14.601 185.636 15.347 185.636 17.825 L 185.636 24.206 Z" fill="black" transform="matrix(1, 0, 0, 1, 51.156616, 127.776993)"/>
  <path d="M 192.215 8.526 L 190.11 8.526 L 190.11 5.785 L 192.215 5.785 L 192.215 8.526 Z M 192.215 24.206 L 190.11 24.206 L 190.11 10.851 L 192.215 10.851 L 192.215 24.206 Z" fill="black" transform="matrix(1, 0, 0, 1, 51.156616, 127.776993)"/>
  <path d="M 202.215 28.461 L 200.11 28.461 L 200.11 22.89 C 199.846 23.307 199.145 24.469 197.434 24.469 C 195.833 24.469 194.824 23.351 194.517 21.904 C 194.386 21.158 194.32 18.68 194.32 17.781 C 194.32 16.684 194.32 14.075 194.517 13.197 C 194.89 11.575 196.162 10.654 197.5 10.654 C 199.123 10.654 199.759 11.684 200.132 12.342 L 200.132 10.895 L 202.193 10.895 L 202.215 28.461 Z M 200.044 14.404 C 200.022 13.899 199.89 12.342 198.202 12.342 C 196.754 12.342 196.689 13.614 196.623 14.162 C 196.579 14.82 196.579 16.618 196.579 17.781 C 196.579 21.311 196.579 22.759 198.224 22.759 C 200.153 22.759 200.153 20.807 200.153 17.452 C 200.153 16.816 200.088 15.061 200.044 14.404 Z" fill="black" transform="matrix(1, 0, 0, 1, 51.156616, 127.776993)"/>
  <path d="M 212.237 24.206 L 210.175 24.206 L 210.175 22.978 C 209.759 23.504 208.991 24.447 207.346 24.447 C 206.228 24.447 205.526 23.943 205.175 23.417 C 204.605 22.561 204.561 21.597 204.561 19.272 L 204.561 10.873 L 206.689 10.873 L 206.689 19.623 L 206.711 20.895 C 206.711 21.421 206.754 22.847 208.268 22.847 C 210.11 22.847 210.11 20.983 210.11 19.601 L 210.11 10.873 L 212.215 10.873 L 212.215 24.206 L 212.237 24.206 Z" fill="black" transform="matrix(1, 0, 0, 1, 51.156616, 127.776993)"/>
  <path d="M 221.886 20.083 C 221.886 20.983 221.886 21.662 221.645 22.342 C 220.877 24.447 218.794 24.447 218.114 24.447 C 217.325 24.447 215.482 24.338 214.693 22.386 C 214.452 21.75 214.342 21.487 214.342 16.114 C 214.342 13.263 214.583 10.654 218.026 10.654 C 218.882 10.654 221.338 10.654 221.754 13.57 C 221.864 14.228 221.864 14.601 221.864 17.978 L 216.513 17.978 C 216.513 19.009 216.491 20.368 216.535 20.851 C 216.579 21.355 216.689 22.737 218.224 22.737 C 219.781 22.737 219.912 21.421 219.912 20.061 L 221.886 20.061 L 221.886 20.083 Z M 219.89 16.246 L 219.89 14.601 C 219.868 13.877 219.847 12.298 218.246 12.298 C 217.149 12.298 216.842 13 216.689 13.417 C 216.535 13.921 216.535 14.36 216.535 16.246 L 219.89 16.246 Z" fill="black" transform="matrix(1, 0, 0, 1, 51.156616, 127.776993)"/>
  <path d="M 237.478 19.25 C 237.478 21.684 237.478 24.447 233.618 24.447 C 231.996 24.447 230.68 23.855 230.241 22.342 C 229.978 21.465 229.912 20.04 229.912 17.868 C 229.912 13.132 230.044 10.632 233.838 10.632 C 237.5 10.632 237.5 13.066 237.5 15.697 L 235.482 15.697 C 235.482 13.395 235.482 12.254 233.794 12.254 C 232.105 12.254 232.083 13.395 232.083 17.145 C 232.083 17.671 232.083 19.579 232.105 20.719 C 232.127 21.421 232.193 22.781 233.75 22.781 C 235.329 22.781 235.461 21.465 235.461 19.25 L 237.478 19.25 Z" fill="black" transform="matrix(1, 0, 0, 1, 51.156616, 127.776993)"/>
  <path d="M 246.623 21.377 C 246.623 23.461 246.71 23.746 247.259 24.206 L 244.649 24.206 L 244.649 22.605 C 244.364 23.197 243.706 24.447 241.908 24.447 C 241.294 24.447 240.768 24.316 240.307 24.053 C 239.057 23.307 238.925 22.035 238.925 21.048 C 238.925 18.877 239.781 18.197 241.162 17.233 C 243.18 15.873 243.399 15.741 244.518 14.689 C 244.518 13.592 244.518 12.342 242.895 12.342 C 241.294 12.342 241.294 13.461 241.294 14.272 C 241.294 14.667 241.316 14.974 241.338 15.259 L 239.386 15.259 C 239.364 14.689 239.364 13.263 239.583 12.583 C 240.241 10.632 242.522 10.632 243.114 10.632 C 244.079 10.632 245.044 10.785 245.811 11.618 C 246.645 12.474 246.645 13.197 246.645 14.996 L 246.623 21.377 Z M 244.518 16.618 C 243.903 17.211 243.794 17.276 242.763 18.066 C 241.798 18.811 241.075 19.382 241.075 20.917 C 241.075 21.509 241.075 22.89 242.522 22.89 C 242.917 22.89 243.311 22.759 243.662 22.496 C 244.43 21.904 244.518 21.004 244.518 19.93 L 244.518 16.618 Z" fill="black" transform="matrix(1, 0, 0, 1, 51.156616, 127.776993)"/>
  <path d="M 256.645 24.206 L 254.474 24.206 L 254.474 15.522 C 254.474 13.592 254.474 12.32 252.895 12.32 C 251.118 12.32 251.118 14.14 251.118 15.61 L 251.118 24.228 L 248.991 24.228 L 248.991 10.895 L 251.009 10.895 L 251.009 12.123 C 251.403 11.64 252.237 10.654 253.86 10.654 C 256.623 10.654 256.623 13 256.623 14.842 L 256.645 24.206 Z" fill="black" transform="matrix(1, 0, 0, 1, 51.156616, 127.776993)"/>
  <path d="M 266.075 21.377 C 266.075 23.461 266.162 23.746 266.71 24.206 L 264.101 24.206 L 264.101 22.605 C 263.816 23.197 263.158 24.447 261.36 24.447 C 260.746 24.447 260.219 24.316 259.759 24.053 C 258.509 23.307 258.377 22.035 258.377 21.048 C 258.377 18.877 259.232 18.197 260.614 17.233 C 262.632 15.873 262.851 15.741 263.969 14.689 C 263.969 13.592 263.969 12.342 262.346 12.342 C 260.746 12.342 260.746 13.461 260.746 14.272 C 260.746 14.667 260.767 14.974 260.789 15.259 L 258.838 15.259 C 258.816 14.689 258.816 13.263 259.035 12.583 C 259.693 10.632 261.974 10.632 262.566 10.632 C 263.531 10.632 264.496 10.785 265.263 11.618 C 266.096 12.474 266.096 13.197 266.096 14.996 L 266.075 21.377 Z M 263.969 16.618 C 263.355 17.211 263.246 17.276 262.215 18.066 C 261.25 18.811 260.526 19.382 260.526 20.917 C 260.526 21.509 260.526 22.89 261.974 22.89 C 262.368 22.89 262.763 22.759 263.114 22.496 C 263.882 21.904 263.969 21.004 263.969 19.93 L 263.969 16.618 Z" fill="black" transform="matrix(1, 0, 0, 1, 51.156616, 127.776993)"/>
  <path d="M 276.096 24.206 L 274.101 24.206 L 274.101 22.803 C 273.816 23.307 273.114 24.447 271.294 24.447 C 271.031 24.447 270.724 24.425 270.46 24.338 C 268.289 23.768 268.224 21.509 268.224 17.627 C 268.224 16.377 268.224 13.899 268.553 12.847 C 268.925 11.597 269.934 10.632 271.403 10.632 C 272.917 10.632 273.575 11.421 273.947 11.947 L 273.947 5.39 L 276.118 5.39 L 276.096 24.206 Z M 272.127 12.32 C 270.526 12.32 270.482 13.943 270.417 15.018 C 270.373 16.465 270.373 16.465 270.373 18.614 C 270.373 19.206 270.373 19.886 270.417 20.719 C 270.46 21.29 270.548 22.781 272.127 22.781 C 273.947 22.781 273.947 21.004 273.991 17.605 C 274.035 14.404 274.035 12.32 272.127 12.32 Z" fill="black" transform="matrix(1, 0, 0, 1, 51.156616, 127.776993)"/>
  <path d="M 280.548 8.526 L 278.443 8.526 L 278.443 5.785 L 280.548 5.785 L 280.548 8.526 Z M 280.548 24.206 L 278.443 24.206 L 278.443 10.851 L 280.548 10.851 L 280.548 24.206 Z" fill="black" transform="matrix(1, 0, 0, 1, 51.156616, 127.776993)"/>
  <path d="M 290.197 20.083 C 290.197 20.983 290.197 21.662 289.956 22.342 C 289.189 24.447 287.105 24.447 286.425 24.447 C 285.636 24.447 283.794 24.338 283.004 22.386 C 282.763 21.75 282.654 21.487 282.654 16.114 C 282.654 13.263 282.895 10.654 286.338 10.654 C 287.193 10.654 289.649 10.654 290.066 13.57 C 290.175 14.228 290.175 14.601 290.175 17.978 L 284.825 17.978 C 284.825 19.009 284.803 20.368 284.846 20.851 C 284.89 21.355 285 22.737 286.535 22.737 C 288.092 22.737 288.224 21.421 288.224 20.061 L 290.197 20.061 L 290.197 20.083 L 290.197 20.083 Z M 288.202 16.246 L 288.202 14.601 C 288.18 13.877 288.158 12.298 286.557 12.298 C 285.461 12.298 285.153 13 285 13.417 C 284.846 13.921 284.846 14.36 284.846 16.246 L 288.202 16.246 Z" fill="black" transform="matrix(1, 0, 0, 1, 51.156616, 127.776993)"/>
  <path d="M 300 24.206 L 297.829 24.206 L 297.829 15.522 C 297.829 13.592 297.829 12.32 296.25 12.32 C 294.474 12.32 294.474 14.14 294.474 15.61 L 294.474 24.228 L 292.346 24.228 L 292.346 10.895 L 294.364 10.895 L 294.364 12.123 C 294.759 11.64 295.592 10.654 297.215 10.654 C 299.978 10.654 299.978 13 299.978 14.842 L 300 24.206 Z" fill="black" transform="matrix(1, 0, 0, 1, 51.156616, 127.776993)"/>
  <path d="M57.4561 0.767544H0.767517V57.4561H57.4561V0.767544Z" fill="black" transform="matrix(1, 0, 0, 1, 51.156616, 127.776993)"/>
  <path d="M46.9298 16.5351L46.8421 14.0351C46.8421 13.7939 47.0395 13.7939 47.4781 13.8816L49.4956 14.2763L49.2324 13.6184C49.1447 13.3553 49.1228 13.2018 49.3202 13.0263L51.7105 11.0746L51.2719 10.8114C51.1403 10.7237 51.1403 10.614 51.2061 10.3947L51.6447 8.94737L50.4824 9.1886C50.1535 9.25438 50.0658 9.18859 50 9.01316L49.671 8.35526L48.5307 9.64912C48.3333 9.89035 48.0482 9.73684 48.1359 9.38596L48.6842 6.71052L47.8509 7.19298C47.7193 7.2807 47.5658 7.30263 47.5 7.14912L46.6009 5.35088L45.7017 7.14912C45.614 7.30263 45.4824 7.2807 45.3509 7.19298L44.5175 6.71052L45.0658 9.38596C45.1535 9.73684 44.8684 9.89035 44.671 9.64912L43.5307 8.35526L43.2017 9.01316C43.114 9.18859 43.0263 9.27631 42.7193 9.1886L41.557 8.94737L41.9956 10.3947C42.0614 10.614 42.0614 10.7237 41.9298 10.8114L41.4912 11.0746L43.8816 13.0263C44.0789 13.2018 44.057 13.3772 43.9693 13.6184L43.7061 14.2763L45.7237 13.8816C46.1623 13.7939 46.3596 13.7939 46.3596 14.0351L46.2719 16.5351H46.9298Z" fill="white" transform="matrix(1, 0, 0, 1, 51.156616, 127.776993)"/>
  <path d="M 37.478 46.791 C 37.478 48.457 37.456 48.896 37.346 49.378 C 37.193 50.102 36.776 51.352 34.539 51.352 C 32.632 51.352 31.864 50.234 31.667 49.071 C 31.623 48.72 31.535 48.194 31.535 45.08 C 31.535 41.791 31.579 41.418 31.667 40.869 C 31.776 40.321 32.083 38.523 34.649 38.523 C 35.68 38.523 36.952 38.962 37.259 40.321 C 37.39 40.913 37.39 41.659 37.39 42.624 L 35.943 42.624 L 35.943 41.681 C 35.943 40.826 35.921 39.817 34.649 39.817 C 33.333 39.817 33.224 40.87 33.158 41.352 C 33.048 42.251 33.048 44.137 33.048 45.08 C 33.048 45.848 33.092 48.369 33.158 48.852 C 33.202 49.071 33.377 50.014 34.605 50.014 C 35.724 50.014 35.877 49.071 35.921 48.83 C 35.987 48.523 35.987 48.238 35.987 46.747 L 37.478 46.747 L 37.478 46.791 Z" fill="white" transform="matrix(1, 0, 0, 1, 51.156616, 127.776993)"/>
  <path d="M 38.75 51.179 L 38.75 38.723 L 41.097 38.723 C 42.303 38.723 43.421 38.723 44.167 39.666 C 44.759 40.39 44.803 41.048 44.803 44.052 C 44.803 44.732 44.803 45.521 44.759 47.21 C 44.737 48.416 44.715 49.315 44.254 50.039 C 43.553 51.157 42.39 51.157 41.053 51.157 L 38.75 51.157 L 38.75 51.179 Z M 40.307 49.82 L 41.316 49.82 C 42.303 49.82 43.004 49.732 43.18 48.613 C 43.268 48.021 43.29 46.289 43.29 45.631 C 43.29 44.491 43.29 44.052 43.268 42.846 C 43.246 41.486 43.224 40.828 42.675 40.434 C 42.281 40.17 41.93 40.17 40.285 40.17 L 40.285 49.82 L 40.307 49.82 Z" fill="white" transform="matrix(1, 0, 0, 1, 51.156616, 127.776993)"/>
  <path d="M 45.79 47 L 47.281 47 C 47.281 48.316 47.281 48.448 47.303 48.667 C 47.325 48.974 47.434 50.158 48.794 50.158 C 49.298 50.158 50.373 49.961 50.373 48.601 C 50.373 47.614 49.934 47.11 49.233 46.386 L 47.544 44.654 C 46.36 43.448 46.118 42.68 46.118 41.54 C 46.118 40.86 46.118 38.623 49.013 38.623 C 49.649 38.623 50.724 38.733 51.294 39.654 C 51.645 40.246 51.645 40.663 51.645 42.483 L 50.285 42.483 C 50.241 41.299 50.241 41.167 50.219 40.948 C 50.175 40.728 50.022 39.939 48.925 39.939 C 47.632 39.939 47.632 41.057 47.632 41.43 C 47.632 42.373 47.961 42.746 48.838 43.667 L 50.417 45.312 C 51.447 46.408 51.908 47.044 51.908 48.47 C 51.908 51.123 49.825 51.452 48.904 51.452 C 47.697 51.452 47.061 51.057 46.82 50.838 C 46.031 50.224 45.855 49.281 45.855 48.36 L 45.855 47 L 45.79 47 Z" fill="white" transform="matrix(1, 0, 0, 1, 51.156616, 127.776993)"/>
  <path d="M 31.469 31.5 L 32.961 31.5 C 32.961 32.816 32.961 32.948 32.983 33.167 C 33.004 33.474 33.114 34.658 34.474 34.658 C 34.978 34.658 36.053 34.461 36.053 33.101 C 36.053 32.114 35.614 31.61 34.912 30.886 L 33.224 29.154 C 32.039 27.948 31.798 27.18 31.798 26.04 C 31.798 25.36 31.798 23.123 34.693 23.123 C 35.329 23.123 36.404 23.233 36.974 24.154 C 37.325 24.746 37.325 25.163 37.325 26.983 L 35.921 26.983 C 35.877 25.799 35.877 25.667 35.855 25.448 C 35.811 25.228 35.658 24.439 34.561 24.439 C 33.268 24.439 33.268 25.557 33.268 25.93 C 33.268 26.873 33.597 27.246 34.474 28.167 L 36.053 29.812 C 37.083 30.908 37.544 31.544 37.544 32.97 C 37.544 35.623 35.461 35.952 34.54 35.952 C 33.333 35.952 32.697 35.557 32.456 35.338 C 31.667 34.724 31.491 33.781 31.491 32.86 L 31.491 31.5 L 31.469 31.5 Z" fill="white" transform="matrix(1, 0, 0, 1, 51.156616, 127.776993)"/>
  <path d="M 44.474 35.779 L 42.281 35.779 L 39.868 24.99 L 40.088 35.779 L 38.553 35.779 L 38.553 23.323 L 40.658 23.323 L 43.18 34.244 L 42.961 23.323 L 44.452 23.323 L 44.452 35.779 L 44.474 35.779 L 44.474 35.779 Z" fill="white" transform="matrix(1, 0, 0, 1, 51.156616, 127.776993)"/>
  <path d="M 51.645 31.391 C 51.645 33.057 51.623 33.496 51.513 33.978 C 51.36 34.702 50.943 35.952 48.706 35.952 C 46.798 35.952 46.031 34.834 45.833 33.671 C 45.789 33.32 45.702 32.794 45.702 29.68 C 45.702 26.391 45.746 26.018 45.833 25.469 C 45.943 24.921 46.25 23.123 48.816 23.123 C 49.847 23.123 51.118 23.562 51.425 24.921 C 51.557 25.513 51.557 26.259 51.557 27.224 L 50.11 27.224 L 50.11 26.281 C 50.11 25.426 50.088 24.417 48.816 24.417 C 47.5 24.417 47.39 25.469 47.325 25.952 C 47.215 26.851 47.215 28.737 47.215 29.68 C 47.215 30.448 47.259 32.969 47.325 33.452 C 47.368 33.671 47.544 34.614 48.772 34.614 C 49.89 34.614 50.044 33.671 50.088 33.43 C 50.154 33.123 50.154 32.838 50.154 31.347 L 51.645 31.347 L 51.645 31.391 Z" fill="white" transform="matrix(1, 0, 0, 1, 51.156616, 127.776993)"/>
  <path d="M58.2237 58.2237H0V0H58.2237V58.2237ZM1.53509 56.6667H56.6667V1.53509H1.53509V56.6667Z" fill="white" transform="matrix(1, 0, 0, 1, 51.156616, 127.776993)"/>
</svg>