<svg xmlns="http://www.w3.org/2000/svg" width="20" height="20" viewBox="0 0 94.859 94.858" style="enable-background:new 0 0 94.859 94.858" xml:space="preserve"><path d="M17.312 41.757h60.236a2 2 0 0 0 1.565-3.247L48.994.753a2 2 0 0 0-3.126 0L15.748 38.51a1.998 1.998 0 0 0-.238 2.114 1.997 1.997 0 0 0 1.802 1.133zM77.547 53.102H17.312c-.769 0-1.469.439-1.802 1.133a1.995 1.995 0 0 0 .238 2.113l30.119 37.758a2 2 0 0 0 3.126 0L79.11 56.348a1.996 1.996 0 0 0 .237-2.113 1.99 1.99 0 0 0-1.8-1.133z"/></svg>